{"glyphs":{"0":{"ha":756,"x_min":-8,"x_max":709,"o":"m 434 324 q 405 288 422 301 q 363 269 385 272 q 422 330 401 289 q 444 414 438 361 q 434 324 455 368 m 348 320 q 299 335 323 313 q 267 396 275 357 q 271 468 259 435 q 308 509 283 501 q 356 494 333 516 q 388 433 380 472 q 385 361 396 393 q 348 320 372 328 m 138 809 q 86 706 109 768 q 57 592 68 656 q 63 651 58 615 q 77 709 68 680 q 127 817 94 770 q 217 896 165 871 q 274 915 244 909 q 334 918 305 920 q 222 887 268 913 q 138 809 173 859 m 408 964 q 109 869 221 999 q 1 556 10 754 q 70 207 -8 363 q 302 5 155 37 q 549 107 441 -24 q 679 419 649 227 q 647 764 709 616 q 408 964 576 932 z "},"1":{"ha":530,"x_min":-4,"x_max":467,"o":"m 181 902 q 149 887 163 895 q 120 867 134 879 q 74 816 90 846 q 53 748 55 781 q 64 821 47 783 q 112 878 79 853 q 178 912 143 902 q 251 918 215 924 q 181 902 216 916 m 433 823 q 345 941 402 903 q 230 970 294 974 q 117 937 172 967 q 37 866 65 907 q 4 792 13 831 q 3 723 -4 755 q 33 674 12 690 q 92 661 57 656 q 151 602 134 667 q 160 543 157 578 q 163 515 161 530 l 163 502 l 164 490 q 161 286 170 391 q 153 207 159 252 l 152 189 l 150 172 q 146 141 148 153 q 149 50 140 77 q 197 4 159 15 q 334 74 271 -18 q 427 303 391 155 q 464 588 461 444 q 433 823 467 737 z "},"2":{"ha":777,"x_min":-14,"x_max":711,"o":"m 573 244 q 551 243 565 244 l 538 241 l 526 241 q 573 257 546 256 q 598 253 587 257 q 618 238 611 248 q 573 244 594 245 m 187 463 q 159 433 172 448 q 110 368 127 398 q 77 294 87 333 q 67 212 66 256 l 64 233 l 63 243 l 63 254 l 63 264 l 64 275 l 65 286 l 67 296 q 98 375 75 336 q 151 440 121 411 q 183 468 167 455 l 200 480 q 218 492 210 487 l 202 477 l 187 463 m 254 896 q 217 878 235 888 q 149 833 179 858 q 90 776 117 808 q 67 742 76 759 q 53 703 56 722 q 81 782 52 739 q 140 844 104 815 q 213 887 176 871 q 252 901 233 896 q 294 910 275 908 l 274 903 q 254 896 262 899 m 507 290 q 402 271 450 267 q 353 290 362 274 q 349 305 350 297 q 355 329 349 317 q 433 400 372 362 q 568 524 514 449 q 636 677 621 597 q 623 825 652 759 q 514 936 592 897 q 316 968 421 982 q 141 901 224 956 q 25 783 64 850 q 7 664 -14 715 q 86 605 28 614 q 231 635 146 596 q 296 661 277 656 q 325 654 315 664 q 274 592 346 633 q 74 422 141 515 q 21 173 -10 304 q 153 36 43 80 q 377 0 241 1 q 600 37 513 -1 q 703 143 689 75 q 700 211 711 177 q 663 270 689 245 q 597 302 635 296 q 507 290 555 309 z "},"3":{"ha":751,"x_min":-6,"x_max":690,"o":"m 353 561 q 305 535 334 545 q 258 515 275 526 q 231 475 233 499 q 235 502 229 488 q 252 524 241 514 q 301 547 269 536 q 347 569 326 555 q 383 605 371 585 q 353 561 376 580 m 161 254 q 103 256 125 257 q 77 248 85 254 q 69 238 72 245 l 67 231 l 65 224 q 66 239 65 233 q 73 253 67 248 q 102 265 82 262 q 162 267 125 269 q 220 258 185 264 l 250 254 l 279 249 q 220 248 254 246 l 190 251 l 161 254 m 208 885 q 138 851 165 867 q 107 829 123 842 q 79 804 93 819 q 52 734 51 771 q 54 774 48 753 q 72 810 59 793 q 132 862 92 838 q 281 911 200 903 q 208 885 243 899 m 634 410 q 594 453 616 434 q 558 479 578 466 l 551 484 l 544 488 q 532 496 536 493 q 521 513 522 504 q 537 541 519 524 q 556 559 543 547 l 562 564 l 568 568 l 579 579 q 625 631 608 606 q 654 704 648 666 q 612 873 671 802 q 423 966 551 947 q 283 964 360 977 q 142 919 207 951 q 35 839 72 885 q 1 728 -6 787 q 250 643 19 582 q 312 650 288 652 q 336 636 333 648 q 326 612 340 625 q 282 589 311 598 q 179 473 176 554 q 208 407 181 433 q 286 381 238 379 q 347 353 334 382 q 346 329 351 341 q 326 309 340 316 q 247 302 302 298 q 222 305 237 303 l 197 308 q 146 313 165 312 q 58 301 88 316 q 14 229 19 281 q 71 111 8 168 q 224 26 129 58 q 414 1 321 -5 q 581 56 516 7 q 681 236 671 126 q 634 410 690 335 z "},"4":{"ha":769,"x_min":-9,"x_max":713,"o":"m 445 734 q 437 644 450 680 q 414 603 429 620 q 377 578 398 585 q 428 646 416 600 q 432 733 437 682 q 431 823 428 785 q 438 868 433 849 q 458 908 446 896 q 444 867 448 892 q 441 823 441 847 q 445 734 441 780 m 120 874 q 94 825 106 854 q 74 772 85 808 l 66 745 l 58 718 q 64 774 59 751 q 81 831 71 805 q 113 880 95 861 q 136 899 125 895 q 164 906 151 907 q 120 874 142 903 m 699 525 q 647 844 694 730 q 487 971 593 972 q 387 726 365 969 q 377 645 392 673 q 334 621 363 620 q 290 646 302 621 q 278 722 276 669 q 254 907 283 852 q 164 958 228 958 q 64 893 106 958 q 7 724 22 829 q 11 526 -9 609 q 70 401 26 458 q 205 334 117 340 q 271 334 234 331 q 284 336 277 335 l 290 337 l 296 338 q 316 339 310 339 q 361 318 344 341 q 384 221 383 288 q 427 52 385 109 q 530 0 464 2 q 699 525 713 -5 z "},"5":{"ha":756,"x_min":-8,"x_max":701,"o":"m 417 326 q 403 294 414 309 q 377 269 392 278 q 344 257 359 259 q 393 301 378 279 q 418 361 408 323 q 417 326 421 345 m 140 275 q 107 271 121 273 q 78 258 90 267 q 57 233 68 251 q 71 266 58 253 q 104 283 83 278 q 140 285 123 287 q 174 277 160 281 q 140 275 159 275 m 142 852 q 109 823 121 838 q 95 806 102 816 q 84 788 89 798 q 69 745 75 770 q 64 724 66 736 l 60 701 q 75 791 60 752 q 85 813 79 804 q 100 831 92 823 q 134 863 112 846 q 218 902 172 889 q 262 911 242 908 q 308 916 291 915 q 221 892 254 904 q 142 852 174 876 m 425 631 q 357 642 391 639 q 331 644 345 643 l 319 644 l 309 645 q 255 661 265 646 q 254 695 245 674 q 281 726 262 716 q 469 732 342 755 q 559 749 522 722 q 602 817 595 774 q 586 899 611 861 q 498 957 558 941 q 275 963 399 983 q 50 843 119 938 q 7 668 7 783 q 52 501 7 551 q 119 458 80 470 q 194 447 149 448 l 212 447 l 231 447 q 267 446 253 446 q 329 427 305 442 q 366 368 363 406 q 341 313 368 330 q 314 304 327 305 q 249 314 292 302 q 1 219 22 377 q 52 90 -8 147 q 202 14 107 37 q 395 7 298 -9 q 572 87 500 25 q 673 236 645 151 q 680 401 701 318 q 596 544 660 484 q 425 631 528 608 z "},"6":{"ha":723,"x_min":-10,"x_max":663,"o":"m 452 295 q 420 267 440 275 q 379 261 400 257 q 442 302 421 269 q 456 336 451 315 q 460 376 460 354 q 467 335 468 357 q 452 295 465 313 m 333 347 q 326 386 323 366 q 344 412 330 405 q 376 410 358 420 q 403 382 393 401 q 410 342 413 362 q 393 316 407 323 q 361 318 378 309 q 333 347 343 327 m 255 900 q 216 867 236 888 q 156 785 185 834 q 109 694 131 743 q 73 597 91 653 q 100 697 81 646 q 144 791 116 743 q 210 874 176 844 q 252 905 231 895 q 302 918 279 920 q 255 900 278 916 m 447 579 q 404 623 414 595 q 404 684 397 645 q 406 702 405 692 l 410 721 q 417 761 415 746 q 420 850 425 810 q 377 940 412 907 q 292 969 341 974 q 182 914 237 964 q 71 750 121 857 q 5 510 20 639 q 20 264 -10 376 q 132 75 52 142 q 356 0 220 -1 q 566 73 486 1 q 651 238 639 137 q 612 429 663 338 q 447 579 556 528 z "},"7":{"ha":728,"x_min":-4,"x_max":667,"o":"m 361 389 q 343 314 352 348 q 322 240 334 276 q 334 317 327 280 l 341 354 l 349 392 l 364 467 q 378 543 372 509 q 361 389 380 483 m 218 911 q 153 893 182 903 q 92 864 117 881 q 67 843 80 857 q 52 813 56 829 q 62 846 52 828 q 87 872 74 863 q 149 905 111 892 q 286 921 215 928 q 218 911 251 917 m 582 859 q 418 955 519 926 q 230 970 328 981 q 72 918 135 959 q 1 817 5 876 q 35 724 -4 755 q 127 690 64 699 q 182 684 148 687 l 208 682 q 233 679 223 680 q 306 654 290 672 q 317 469 342 616 q 293 350 310 423 l 290 336 l 287 321 q 281 296 283 304 q 271 250 275 267 q 286 59 248 131 q 431 8 328 -22 q 560 141 501 29 q 641 391 614 245 q 654 661 667 536 q 582 859 640 797 z "},"8":{"ha":749,"x_min":-1,"x_max":681,"o":"m 446 618 q 425 597 437 604 q 397 589 411 589 q 435 625 422 604 q 454 675 447 644 q 446 618 464 646 m 435 268 q 400 241 420 250 q 358 237 378 233 q 425 276 400 244 q 443 310 435 290 q 452 349 449 327 q 435 268 463 305 m 306 337 q 308 383 299 362 q 336 410 317 404 q 373 401 355 415 q 397 362 391 387 q 395 315 404 337 q 368 289 387 294 q 331 298 349 284 q 306 337 313 312 m 364 711 q 386 705 375 714 q 401 682 397 697 q 400 654 405 667 q 383 639 395 642 q 361 644 372 635 q 346 667 350 652 q 347 695 342 682 q 364 711 353 707 m 192 832 q 140 708 149 780 q 148 778 136 743 q 182 840 159 811 q 303 910 231 899 q 192 832 233 882 m 75 448 q 52 349 62 414 q 64 453 44 404 q 92 498 75 479 q 133 530 109 519 q 75 448 94 495 m 602 549 q 597 590 585 570 q 637 728 638 658 q 564 901 635 833 q 374 971 491 970 q 174 897 257 972 q 89 708 90 821 q 106 609 88 657 q 104 573 117 582 q 0 349 1 503 q 88 111 -1 208 q 303 3 174 18 q 578 83 473 -16 q 680 328 678 175 q 602 549 681 452 z "},"9":{"ha":721,"x_min":-10,"x_max":665,"o":"m 381 564 q 369 535 378 549 q 345 513 359 521 q 315 506 330 505 q 359 543 343 521 q 372 567 366 553 q 376 581 374 572 l 378 587 l 380 595 q 381 564 384 576 m 252 589 q 244 629 241 609 q 262 655 248 648 q 294 654 276 663 q 321 625 311 645 q 328 585 331 605 q 311 559 325 566 q 279 561 296 551 q 252 589 261 570 m 219 907 q 180 891 195 899 q 114 844 140 871 q 52 694 58 787 q 52 736 50 712 q 56 758 53 746 q 61 779 57 766 q 105 852 73 819 q 176 901 134 884 q 218 913 193 907 q 260 918 241 917 l 239 913 l 229 909 l 219 907 m 298 972 q 88 899 168 970 q 2 734 15 835 q 42 542 -10 634 q 208 391 98 443 q 250 348 241 376 q 251 286 257 326 q 248 269 250 279 l 244 250 q 237 210 239 224 q 235 121 229 160 q 277 30 241 63 q 363 1 313 -4 q 472 56 418 5 q 583 220 533 113 q 650 461 635 332 q 635 707 665 595 q 523 897 602 829 q 298 972 434 974 z "},"\u0000":{"ha":0,"x_min":0,"x_max":0,"o":""},"\u001d":{"ha":0,"x_min":0,"x_max":0,"o":""}," ":{"ha":269,"x_min":0,"x_max":0,"o":""}," ":{"ha":269,"x_min":0,"x_max":0,"o":""},"!":{"ha":380,"x_min":-7,"x_max":332,"o":"m 62 781 q 85 848 71 819 q 135 903 102 882 q 203 922 168 925 q 140 895 171 918 q 116 871 126 884 q 97 843 105 859 q 72 778 84 819 q 56 709 64 751 q 62 781 56 747 m 154 336 q 203 369 189 342 q 220 435 216 391 q 222 480 221 450 l 223 492 l 224 505 q 226 531 225 519 q 245 649 231 596 q 270 718 251 674 l 278 736 l 286 753 q 300 789 295 774 q 301 924 332 876 q 260 960 286 947 q 201 972 233 973 q 70 905 126 970 q 10 755 28 857 q 4 557 -7 659 q 52 391 16 452 q 154 336 93 323 m 85 205 q 56 154 68 186 q 77 214 52 187 q 104 233 89 227 q 136 236 121 240 q 85 205 106 229 m 136 287 q 49 250 87 287 q 5 161 12 214 q 24 63 -2 108 q 98 5 51 18 q 202 25 154 -11 q 260 127 251 61 q 231 240 269 193 q 136 287 193 287 z "},"\"":{"ha":650,"x_min":-3,"x_max":587,"o":"m 85 954 q 54 900 67 934 q 76 963 50 935 q 104 983 89 977 q 138 985 122 989 q 85 954 108 978 m 138 1038 q 47 1000 87 1038 q 1 907 9 962 q 9 834 -3 869 q 46 774 20 800 q 57 713 65 755 l 56 705 l 54 696 q 52 682 52 688 q 57 659 50 667 q 106 650 74 641 q 172 692 138 660 q 267 872 253 768 q 236 990 275 940 q 138 1038 197 1039 m 397 954 q 366 900 379 934 q 387 963 362 935 q 416 983 400 977 q 449 985 433 989 q 397 954 419 978 m 449 1038 q 359 1000 398 1038 q 313 907 320 962 q 320 834 308 869 q 357 774 332 800 q 368 713 376 755 l 367 705 l 366 696 q 363 682 363 688 q 368 659 362 667 q 418 650 385 641 q 484 692 449 660 q 578 872 565 768 q 547 990 587 940 q 449 1038 509 1039 z "},"#":{"ha":746,"x_min":-1,"x_max":682,"o":"m 438 890 l 436 878 l 433 852 q 429 827 431 838 q 412 777 422 797 q 396 755 405 765 q 375 741 385 745 q 403 782 392 756 q 416 829 411 802 l 419 842 l 421 854 q 427 880 424 870 q 435 905 430 894 l 437 911 q 441 916 439 914 q 448 920 444 919 l 451 920 l 454 920 q 444 914 448 920 q 440 903 442 911 l 438 890 m 417 417 q 387 386 404 397 q 347 372 368 372 q 406 424 384 387 q 433 499 424 452 q 417 417 441 456 m 328 422 q 290 447 306 423 q 275 505 275 471 q 291 560 275 537 q 329 581 307 583 q 366 556 351 581 q 382 499 382 532 q 366 444 382 466 q 328 422 350 421 m 195 905 q 187 890 191 900 q 180 857 182 878 l 178 840 l 176 822 q 172 786 174 800 q 168 859 163 821 q 178 895 171 881 q 191 909 184 905 q 210 911 199 913 q 195 905 199 909 m 172 414 q 140 382 162 395 q 97 366 121 371 l 86 364 l 75 363 l 70 362 l 64 361 q 54 359 58 361 q 64 365 58 362 l 68 367 l 74 369 l 95 376 q 133 393 119 385 q 163 419 153 404 q 182 458 175 434 q 172 414 184 434 m 106 650 q 96 645 102 648 l 86 641 l 76 637 l 66 633 q 59 629 61 631 q 56 625 58 627 l 54 619 q 54 631 52 626 q 61 642 56 637 q 81 653 68 647 q 102 659 90 656 q 124 663 114 663 q 106 650 117 656 m 680 361 q 655 417 677 395 q 609 446 640 433 l 597 451 l 585 456 q 563 467 571 463 q 539 501 542 481 q 556 539 536 522 q 576 554 564 546 l 589 562 l 601 568 q 648 602 634 587 q 673 650 671 623 q 621 727 676 705 q 598 735 612 731 l 587 739 l 576 742 q 538 757 548 749 q 524 800 526 765 q 523 835 523 812 l 522 853 l 522 871 q 509 939 520 916 q 460 971 494 969 q 401 945 420 973 q 379 879 387 924 l 376 861 l 374 843 q 366 811 370 823 q 328 778 354 779 q 298 804 306 776 q 292 833 294 814 l 290 849 l 289 866 q 271 930 283 910 q 216 962 254 961 q 123 863 136 966 q 121 785 119 831 q 121 767 121 777 l 122 760 l 123 752 q 123 731 123 736 q 104 709 123 719 q 84 702 97 707 l 73 698 l 62 694 q 3 618 2 669 q 24 569 3 589 q 68 542 36 557 l 79 536 l 91 530 q 111 516 104 523 q 131 471 131 498 q 111 431 131 444 q 91 422 104 427 l 79 420 l 68 417 q 23 399 36 410 q 0 350 2 383 q 19 297 -1 317 q 41 281 27 289 l 52 275 l 65 269 q 109 242 98 254 q 123 191 128 222 q 125 60 113 107 q 195 0 142 -1 q 260 39 238 0 q 283 122 275 66 l 287 145 l 290 167 q 296 206 293 192 q 326 244 305 244 q 353 212 348 244 q 355 178 354 199 l 355 158 l 356 138 q 372 62 358 88 q 437 18 391 24 q 520 111 507 7 q 524 153 523 130 l 524 173 q 525 192 525 180 q 528 247 526 237 q 558 267 532 259 q 583 273 566 269 l 597 276 l 611 280 q 661 305 645 290 q 680 361 682 326 z "},"$":{"ha":675,"x_min":-3,"x_max":619,"o":"m 397 267 q 381 237 393 252 q 321 208 357 208 q 371 245 356 227 q 396 301 389 267 q 397 267 401 286 m 127 229 q 119 229 122 229 q 89 219 97 225 q 68 197 77 212 q 56 165 62 185 q 58 201 52 183 q 81 231 64 220 q 100 238 92 237 q 109 239 104 239 l 118 239 q 127 239 122 239 l 136 237 l 144 235 l 153 232 l 144 231 l 136 230 l 127 229 m 182 903 l 171 898 q 149 886 158 892 q 85 811 111 863 q 67 763 75 789 q 58 713 61 743 q 75 815 55 766 q 142 898 98 871 q 165 910 151 904 l 178 916 l 189 920 q 225 949 214 929 q 233 972 231 958 l 236 985 l 239 998 q 250 1023 243 1015 q 275 1031 258 1032 q 253 1020 259 1029 q 245 997 248 1013 l 244 984 l 242 971 q 235 945 240 956 q 195 908 224 920 l 182 903 m 612 328 q 526 513 606 434 q 345 616 454 586 q 309 629 328 621 q 265 652 283 640 q 230 724 214 687 q 267 744 239 745 q 290 741 277 744 l 301 738 q 311 734 305 736 l 339 724 l 366 715 q 424 704 399 705 q 492 726 465 703 q 523 791 522 750 q 497 875 524 833 q 435 937 473 911 q 408 953 423 945 q 385 963 398 958 q 360 973 361 972 q 361 997 359 975 q 349 1050 362 1027 q 307 1082 334 1074 q 219 1068 255 1097 q 188 1010 196 1048 q 185 997 186 1004 l 184 990 l 183 985 q 179 970 182 973 q 153 959 177 968 q 130 948 141 954 q 103 931 117 941 q 39 856 65 903 q 4 749 12 808 q 9 637 -3 691 q 117 473 30 543 q 210 417 146 450 l 234 405 l 258 392 q 302 362 284 377 q 339 308 333 338 q 307 261 347 273 q 254 262 284 255 q 228 271 244 265 l 215 275 l 202 278 q 94 288 138 296 q 25 245 50 279 q 0 167 1 212 q 28 76 -1 118 q 100 14 54 39 q 117 7 105 11 q 139 -1 125 3 q 172 -14 169 -12 q 186 -39 184 -21 l 188 -47 l 189 -57 q 195 -78 191 -68 q 252 -127 210 -119 q 317 -115 289 -136 q 352 -56 340 -96 q 355 -41 354 -49 q 357 -28 356 -35 q 361 -15 359 -16 q 379 -7 364 -10 l 383 -6 l 387 -5 q 396 -3 392 -4 q 418 5 407 0 q 481 43 452 20 q 560 133 526 78 q 612 328 619 227 z "},"%":{"ha":1025,"x_min":-9,"x_max":966,"o":"m 668 875 q 616 817 646 854 q 524 691 584 776 l 477 627 q 431 564 452 591 l 407 533 l 383 502 l 358 471 l 333 441 l 378 506 q 422 570 406 545 q 512 699 458 623 q 608 824 573 783 q 663 880 640 860 l 671 886 l 679 892 q 696 903 685 897 q 734 914 718 914 q 668 875 705 910 m 769 964 q 677 955 725 980 q 582 871 635 932 q 472 728 541 824 q 441 686 460 711 l 426 663 l 410 640 q 340 544 369 583 q 188 355 279 460 q 153 315 175 340 l 137 297 l 121 279 q 66 213 85 238 q 3 106 13 146 q 30 24 -9 58 q 145 7 71 -13 q 307 90 216 25 q 661 467 496 227 q 825 795 795 664 q 769 964 856 931 m 106 891 q 137 911 121 905 q 173 914 156 919 q 117 882 140 907 q 83 825 97 861 q 106 891 79 862 m 127 660 q 241 680 188 642 q 307 791 296 720 q 277 917 318 863 q 174 970 237 969 q 77 931 119 971 q 27 833 35 892 q 46 726 18 775 q 127 660 75 675 m 765 258 q 730 203 745 238 q 755 269 728 239 q 785 289 769 283 q 821 292 804 296 q 765 258 789 283 m 822 348 q 726 309 768 349 q 675 211 684 269 q 694 103 667 153 q 775 37 723 52 q 890 58 836 19 q 956 169 945 96 q 925 294 966 241 q 822 348 885 347 z "},"&":{"ha":865,"x_min":-6,"x_max":804,"o":"m 673 487 q 661 463 667 476 l 656 450 l 650 437 q 622 388 635 404 q 573 361 602 364 q 614 394 598 370 q 639 442 625 409 l 645 454 l 651 467 q 665 492 658 481 q 684 513 673 504 q 710 522 696 524 q 688 509 698 521 q 680 498 684 505 l 677 492 l 673 487 m 439 203 q 414 173 431 185 q 344 153 384 149 q 407 183 387 167 q 431 208 420 193 q 445 239 441 224 q 439 203 448 222 m 218 262 q 221 350 202 302 q 239 381 229 369 q 259 393 250 393 q 281 376 268 393 l 285 371 l 288 366 q 298 353 294 359 q 323 323 310 338 q 343 302 333 313 q 359 287 350 296 q 383 263 379 268 q 393 232 399 245 q 360 207 385 214 q 308 203 337 199 q 254 220 278 206 q 218 262 229 237 m 181 805 q 165 735 168 772 q 172 808 161 772 q 210 873 184 846 q 273 913 237 902 q 345 922 305 925 q 276 905 305 918 q 218 865 243 891 q 181 805 195 840 m 125 460 l 115 446 q 94 417 102 430 q 64 354 75 390 q 50 284 53 319 q 83 424 42 360 q 130 480 101 450 l 142 493 l 155 506 q 179 532 170 522 q 159 502 172 519 l 148 488 l 136 474 l 125 460 m 391 736 q 367 677 389 699 q 330 663 348 658 q 304 693 315 668 q 299 749 292 721 q 319 777 304 768 q 351 783 334 785 q 379 768 368 781 q 391 736 391 755 m 406 656 q 427 692 418 671 q 439 734 433 709 q 416 649 445 686 q 380 621 401 630 q 337 613 358 610 q 406 656 378 621 m 730 262 q 703 282 705 269 q 716 317 702 292 q 723 328 718 321 l 726 334 l 730 341 q 747 371 740 357 q 776 450 767 410 q 776 524 787 493 q 743 564 766 551 q 694 570 720 575 q 648 543 667 564 q 619 500 632 526 q 608 479 614 491 l 604 469 l 600 459 q 583 426 589 435 q 562 410 574 412 q 490 460 538 404 q 459 506 471 484 q 450 541 447 530 q 473 568 453 551 l 477 572 l 483 576 q 493 585 489 581 q 515 606 505 596 q 576 765 573 668 q 525 895 578 835 q 359 970 463 966 q 229 942 286 974 q 147 861 177 913 q 117 753 119 811 q 136 648 113 696 q 151 599 151 618 q 140 562 151 581 q 106 522 132 551 q 96 509 100 514 q 83 494 89 501 q 56 460 68 477 q 8 355 22 415 q 5 231 -6 292 q 59 113 18 163 q 183 26 106 56 q 452 26 321 -26 q 536 72 496 43 q 562 92 549 81 q 571 100 566 95 l 575 102 q 578 105 576 104 q 604 102 586 111 q 623 91 610 99 l 633 85 l 644 79 q 695 62 672 64 q 756 79 726 59 q 793 123 781 95 q 800 178 804 149 q 779 230 796 208 q 730 262 760 254 z "},"'":{"ha":338,"x_min":-3,"x_max":275,"o":"m 85 954 q 54 900 67 934 q 76 963 50 935 q 104 983 89 977 q 138 985 122 989 q 85 954 108 978 m 138 1038 q 47 1000 87 1038 q 1 907 9 962 q 9 834 -3 869 q 46 774 20 800 q 57 713 65 755 l 56 705 l 54 696 q 52 682 52 688 q 57 659 50 667 q 106 650 74 641 q 172 692 138 660 q 267 872 253 768 q 236 990 275 940 q 138 1038 197 1039 z "},"(":{"ha":358,"x_min":-21,"x_max":289,"o":"m 176 985 q 159 966 168 979 q 133 920 144 945 q 96 821 113 878 q 71 718 84 780 q 52 614 64 682 q 63 720 54 664 q 86 824 71 772 q 125 924 104 884 q 155 969 139 949 q 174 987 165 981 q 199 997 188 998 q 176 985 189 996 m 216 467 q 229 692 214 576 q 243 783 235 733 q 250 824 246 798 l 254 843 l 257 861 q 268 975 271 941 q 227 1034 262 1019 q 125 996 174 1056 q 48 827 80 941 q 9 304 -21 582 q 105 16 29 127 q 178 -55 139 -34 q 252 -63 216 -77 q 287 -10 284 -51 q 272 97 289 22 l 269 114 l 264 132 q 256 170 259 156 q 239 256 245 218 q 216 467 219 366 z "},")":{"ha":360,"x_min":-1,"x_max":308,"o":"m 81 989 q 64 993 71 993 q 56 991 60 993 l 54 991 l 54 991 q 52 990 52 991 q 50 989 52 990 q 48 981 49 986 q 47 972 47 978 l 47 962 l 48 953 l 50 933 l 50 913 q 40 951 43 934 q 37 972 38 961 l 37 977 l 38 983 q 41 994 39 989 q 47 1000 43 998 q 50 1001 49 1000 l 52 1002 l 53 1002 q 64 1002 59 1003 q 85 996 75 1002 q 115 970 102 988 q 81 989 96 983 m 83 143 l 78 114 q 64 56 71 81 q 70 115 66 85 q 79 174 72 136 q 102 291 92 250 q 89 172 101 241 l 83 143 m 277 669 q 182 956 258 845 q 109 1027 147 1006 q 35 1035 71 1048 q 0 982 3 1023 q 15 875 -1 951 l 19 858 l 22 840 q 31 802 28 816 q 48 716 41 755 q 71 507 68 608 q 58 281 73 397 q 43 190 52 241 q 37 150 41 175 l 33 131 l 30 113 q 19 -1 16 33 q 60 -60 24 -45 q 161 -22 113 -82 q 239 146 206 33 q 277 669 308 391 z "},"*":{"ha":475,"x_min":-5,"x_max":410,"o":"m 210 910 q 204 906 206 908 q 202 900 203 905 l 195 872 q 182 844 191 857 q 161 822 174 832 q 103 805 137 803 l 89 806 l 75 808 q 61 808 66 810 q 53 798 56 806 q 60 811 53 807 q 67 814 62 813 l 71 814 l 75 814 l 103 815 q 153 833 134 817 q 185 876 174 846 q 196 903 190 889 l 197 904 l 198 906 q 201 909 199 907 q 208 913 203 911 q 222 916 215 916 q 210 910 216 914 m 385 834 q 345 850 369 846 l 335 852 l 327 853 q 312 860 318 856 q 298 893 302 867 l 296 904 l 294 915 q 283 937 290 927 q 209 967 254 975 q 152 925 167 960 q 146 908 149 918 l 143 901 l 141 894 q 130 872 136 878 q 91 863 117 861 l 80 864 q 68 864 73 864 q 43 859 54 863 q 1 804 6 845 q 24 743 -5 765 q 40 732 31 737 l 47 727 l 54 723 q 69 707 68 715 q 61 688 70 700 l 57 683 l 52 676 q 43 661 47 669 q 44 603 32 634 q 92 563 58 568 q 154 574 127 557 l 164 581 q 174 587 170 585 q 200 592 186 593 q 224 581 210 591 l 231 576 l 238 570 q 256 560 247 564 q 323 562 292 545 q 359 607 353 576 q 357 652 365 629 l 353 661 l 350 669 q 348 688 347 679 q 366 713 349 703 l 373 718 q 380 724 377 721 q 396 741 390 731 q 408 789 410 762 q 385 834 406 819 z "},"+":{"ha":606,"x_min":-5,"x_max":541,"o":"m 202 674 q 198 650 199 665 q 197 637 197 645 l 197 623 q 189 650 191 636 q 192 678 187 664 q 209 701 197 693 q 236 709 222 711 q 202 674 211 699 m 64 512 q 50 500 54 507 q 46 492 47 497 l 45 486 l 44 480 q 42 504 39 493 q 50 515 44 510 q 60 522 54 518 q 83 528 71 526 q 106 526 95 529 l 95 523 l 85 519 q 64 512 71 515 m 513 545 q 393 573 471 587 q 382 575 387 572 q 376 585 378 578 q 334 702 366 656 q 231 752 294 761 q 187 734 206 749 q 159 696 168 719 q 151 637 147 669 q 157 608 153 625 l 161 594 l 165 579 q 163 573 165 576 q 158 571 161 570 q 104 570 127 572 q 50 559 72 567 q 1 476 -5 537 q 95 384 7 416 q 119 376 105 380 l 125 375 l 130 374 q 140 371 137 372 q 165 357 161 365 q 164 334 165 355 q 163 313 163 323 q 165 286 163 299 q 184 235 168 255 q 231 211 201 214 q 324 268 284 205 q 355 333 342 295 q 361 349 359 347 q 376 354 364 352 q 420 364 400 358 q 529 445 503 388 q 537 498 541 471 q 513 545 533 526 z "},",":{"ha":337,"x_min":-1,"x_max":281,"o":"m 90 217 q 58 163 71 197 q 79 227 54 198 q 108 246 92 240 q 142 249 126 253 q 90 217 112 241 m 142 303 q 51 264 90 302 q 4 170 12 226 q 12 96 -1 132 q 50 36 24 61 q 60 -26 68 17 l 59 -35 l 57 -43 q 55 -58 56 -52 q 60 -81 54 -73 q 111 -90 77 -100 q 176 -47 142 -80 q 273 134 259 29 q 241 254 281 203 q 142 303 202 303 z "},"-":{"ha":612,"x_min":-7,"x_max":541,"o":"m 428 538 q 397 529 412 536 l 389 526 l 382 522 q 365 517 372 518 q 330 513 348 512 l 347 519 q 362 525 356 522 l 370 528 l 377 532 q 393 540 385 536 q 427 547 411 547 q 461 538 448 548 q 428 538 446 542 m 117 519 q 90 517 101 518 q 64 513 73 515 q 53 507 56 510 q 46 495 50 504 q 48 510 45 504 q 60 521 52 516 q 88 528 71 526 q 117 528 105 530 q 145 522 134 526 q 117 519 133 519 m 360 569 q 269 557 332 554 q 212 562 248 558 l 182 565 q 154 568 166 566 q 53 562 87 572 q 1 502 8 547 q 54 401 -7 444 q 204 346 111 361 q 379 347 296 331 q 509 409 469 363 q 540 482 538 441 q 518 551 541 521 q 454 587 494 581 q 360 569 411 595 z "},"­":{"ha":612,"x_min":-7,"x_max":541,"o":"m 428 538 q 397 529 412 536 l 389 526 l 382 522 q 365 517 372 518 q 330 513 348 512 l 347 519 q 362 525 356 522 l 370 528 l 377 532 q 393 540 385 536 q 427 547 411 547 q 461 538 448 548 q 428 538 446 542 m 117 519 q 90 517 101 518 q 64 513 73 515 q 53 507 56 510 q 46 495 50 504 q 48 510 45 504 q 60 521 52 516 q 88 528 71 526 q 117 528 105 530 q 145 522 134 526 q 117 519 133 519 m 360 569 q 269 557 332 554 q 212 562 248 558 l 182 565 q 154 568 166 566 q 53 562 87 572 q 1 502 8 547 q 54 401 -7 444 q 204 346 111 361 q 379 347 296 331 q 509 409 469 363 q 540 482 538 441 q 518 551 541 521 q 454 587 494 581 q 360 569 411 595 z "},".":{"ha":340,"x_min":-6,"x_max":279,"o":"m 87 216 q 55 162 68 197 q 77 226 51 197 q 106 245 90 239 q 140 249 123 253 q 87 216 109 241 m 140 302 q 48 263 87 302 q 1 170 9 225 q 22 66 -6 113 q 100 5 50 18 q 210 26 159 -11 q 270 134 261 64 q 239 253 279 203 q 140 302 200 302 z "},"/":{"ha":739,"x_min":-7,"x_max":689,"o":"m 576 922 q 560 909 568 917 q 532 876 548 897 q 485 806 511 846 l 439 733 l 416 696 q 393 661 404 676 l 402 680 l 412 699 l 432 737 q 475 812 451 773 q 526 882 504 856 q 557 913 543 902 q 575 924 566 920 q 597 926 587 930 q 576 922 587 928 m 611 964 q 538 951 576 979 q 460 861 504 926 q 372 715 427 813 q 347 672 362 699 l 334 649 l 321 627 q 267 530 290 570 q 146 343 218 447 q 119 304 136 328 l 106 285 l 94 267 q 51 202 66 227 q 2 98 9 137 q 24 25 -7 54 q 260 109 103 -52 q 537 509 395 250 q 667 815 646 708 q 611 964 689 932 z "},":":{"ha":342,"x_min":-6,"x_max":279,"o":"m 87 216 q 55 162 68 196 q 77 225 51 197 q 105 245 90 239 q 139 248 123 252 q 87 216 109 240 m 139 302 q 48 262 87 302 q 1 169 9 224 q 22 66 -6 113 q 100 5 50 18 q 209 26 158 -11 q 269 134 260 64 q 239 252 279 202 q 139 302 199 302 m 77 704 q 105 724 90 718 q 139 727 123 731 q 87 695 109 720 q 55 641 68 675 q 77 704 51 675 m 100 484 q 209 505 158 468 q 269 612 260 543 q 239 731 279 681 q 139 781 199 781 q 48 742 87 781 q 1 648 9 703 q 22 545 -6 592 q 100 484 50 497 z "},";":{"ha":342,"x_min":-3,"x_max":281,"o":"m 79 705 q 108 725 92 719 q 142 728 126 732 q 90 696 112 720 q 58 642 71 676 q 79 705 54 677 m 102 484 q 212 506 161 469 q 272 613 263 545 q 241 732 281 682 q 142 782 202 782 q 51 743 90 781 q 4 649 12 705 q 24 546 -3 593 q 102 484 53 498 m 90 217 q 58 163 71 197 q 79 227 54 198 q 108 246 92 240 q 142 249 126 253 q 90 217 112 241 m 142 303 q 51 264 90 302 q 4 170 12 226 q 12 96 -1 132 q 50 36 24 61 q 60 -26 68 17 l 59 -35 l 57 -43 q 55 -58 56 -52 q 60 -81 54 -73 q 111 -90 77 -100 q 176 -47 142 -80 q 273 134 259 29 q 241 254 281 203 q 142 303 202 303 z "},";":{"ha":342,"x_min":-3,"x_max":281,"o":"m 79 705 q 108 725 92 719 q 142 728 126 732 q 90 696 112 720 q 58 642 71 676 q 79 705 54 677 m 102 484 q 212 506 161 469 q 272 613 263 545 q 241 732 281 682 q 142 782 202 782 q 51 743 90 781 q 4 649 12 705 q 24 546 -3 593 q 102 484 53 498 m 90 217 q 58 163 71 197 q 79 227 54 198 q 108 246 92 240 q 142 249 126 253 q 90 217 112 241 m 142 303 q 51 264 90 302 q 4 170 12 226 q 12 96 -1 132 q 50 36 24 61 q 60 -26 68 17 l 59 -35 l 57 -43 q 55 -58 56 -52 q 60 -81 54 -73 q 111 -90 77 -100 q 176 -47 142 -80 q 273 134 259 29 q 241 254 281 203 q 142 303 202 303 z "},"<":{"ha":520,"x_min":0,"x_max":473,"o":"m 158 635 q 87 569 118 605 l 83 565 l 79 560 l 73 550 q 66 541 69 546 l 60 530 q 54 519 57 526 l 52 513 l 49 508 q 47 503 47 505 l 45 496 l 42 484 q 55 532 44 510 q 66 554 62 547 l 73 564 l 77 570 l 81 574 q 152 644 108 610 q 237 694 193 675 q 334 715 292 717 l 321 713 l 315 712 l 309 711 l 303 709 l 298 708 q 286 705 290 707 q 241 686 264 698 q 158 635 195 663 m 281 489 q 319 524 284 501 l 327 528 l 335 533 q 352 544 346 540 q 387 568 372 557 q 426 710 473 633 q 323 755 395 760 q 181 707 258 752 q 54 602 105 663 q 0 475 0 534 q 59 364 0 426 q 194 263 114 307 q 341 214 276 219 q 438 256 414 208 q 439 343 460 302 q 380 408 424 374 q 343 433 366 418 l 334 438 l 326 444 q 311 454 317 450 q 281 489 278 477 z "},"=":{"ha":632,"x_min":-6,"x_max":566,"o":"m 38 605 q 43 621 39 612 q 66 648 52 635 q 129 677 89 665 q 197 689 161 686 q 231 690 212 690 q 265 689 253 690 l 248 688 l 231 686 q 197 682 211 684 q 132 668 157 675 q 100 657 115 664 q 71 642 83 651 q 47 618 56 631 q 39 587 36 602 q 38 605 36 595 m 192 544 q 295 553 230 556 q 351 550 316 553 l 378 547 q 405 545 394 546 q 496 549 467 541 q 543 599 536 561 q 492 680 551 646 q 349 722 439 710 q 178 721 260 732 q 46 675 90 708 q 3 616 12 649 q 12 559 -6 583 q 75 528 31 533 q 192 544 123 522 m 203 374 q 177 376 193 375 l 150 378 q 97 380 119 380 q 71 376 80 378 q 60 371 64 374 q 54 359 56 367 q 58 372 54 368 q 70 380 62 377 q 97 387 80 385 q 151 387 119 389 q 178 385 163 387 l 204 382 q 257 374 231 379 q 203 374 231 373 m 368 421 q 264 411 329 408 q 209 415 243 412 l 181 418 q 155 420 165 419 q 63 415 93 424 q 17 366 24 404 q 68 285 9 319 q 211 243 121 254 q 381 244 298 233 q 513 290 469 256 q 556 349 547 316 q 547 406 566 381 q 485 437 528 431 q 368 421 436 444 z "},">":{"ha":520,"x_min":-23,"x_max":451,"o":"m 197 440 q 175 418 189 429 q 150 401 165 410 l 137 393 l 125 385 q 76 350 92 363 q 56 328 62 338 q 50 300 48 317 q 52 331 44 315 q 71 356 58 343 q 119 393 86 372 l 132 401 l 144 410 q 170 425 161 419 q 210 468 201 446 q 197 440 208 454 m 106 709 q 77 707 87 709 q 54 694 60 704 q 42 667 45 680 q 47 699 39 681 q 59 711 50 706 q 75 718 65 715 q 107 718 90 720 q 137 708 123 715 l 106 709 m 12 712 q 10 625 -11 666 q 70 560 26 593 q 106 535 84 549 l 115 529 l 124 524 q 140 513 134 517 q 170 478 172 491 q 131 444 166 466 l 123 439 l 115 434 q 98 423 104 427 q 64 399 77 410 q 24 256 -23 333 q 127 210 54 206 q 269 259 192 214 q 396 366 346 303 q 451 492 451 433 q 392 604 451 541 q 256 705 337 661 q 109 755 174 749 q 12 712 35 760 z "},"?":{"ha":713,"x_min":-6,"x_max":654,"o":"m 244 205 q 214 153 227 186 q 235 214 211 186 q 262 233 248 227 q 294 235 279 239 q 244 205 265 228 m 294 286 q 208 249 245 286 q 163 160 171 213 q 183 63 157 107 q 257 5 210 18 q 360 25 312 -11 q 418 127 409 61 q 389 239 427 192 q 294 286 351 286 m 312 913 q 264 904 291 911 q 174 872 215 891 q 92 821 126 851 q 52 738 49 783 q 57 787 46 762 q 85 828 66 808 q 168 884 117 860 q 262 913 216 905 q 361 920 315 923 l 336 918 q 312 913 323 916 m 280 496 q 266 490 272 493 q 241 472 250 481 q 227 445 231 461 q 234 478 222 462 q 260 500 241 490 q 292 513 275 509 q 323 521 303 515 q 294 503 312 510 l 280 496 m 416 966 q 279 964 354 976 q 140 920 203 951 q 35 840 71 886 q 1 732 -6 789 q 245 648 18 588 q 307 649 283 657 q 332 622 328 641 q 321 585 335 604 q 278 556 306 566 q 176 443 173 522 q 205 378 178 404 q 281 352 234 352 q 376 371 322 352 q 490 432 437 393 q 644 708 629 535 q 600 875 654 808 q 416 966 541 947 z "},"@":{"ha":944,"x_min":-11,"x_max":888,"o":"m 543 415 q 510 394 528 400 q 472 391 490 387 q 505 404 490 395 q 533 425 522 412 q 553 452 544 436 q 566 486 561 467 q 543 415 573 447 m 462 445 q 440 465 448 450 q 439 497 433 480 q 458 524 444 515 q 488 528 473 532 q 509 508 502 524 q 511 475 516 493 q 491 450 505 458 q 462 445 477 441 m 408 638 q 355 591 376 620 q 326 528 337 567 q 313 457 314 492 q 315 530 306 493 q 345 600 324 570 q 403 647 368 631 q 476 659 437 663 q 408 638 439 654 m 426 913 l 416 911 q 397 907 404 909 q 322 880 355 896 q 193 792 248 847 q 100 665 136 739 q 55 513 67 597 l 59 553 q 62 573 60 561 l 64 583 l 66 593 q 71 612 67 601 l 74 622 l 77 631 q 83 650 79 640 l 92 669 q 183 802 123 742 q 318 890 244 860 q 395 913 353 905 q 415 916 403 914 l 425 917 l 435 918 q 455 918 444 918 l 475 918 l 456 916 l 435 914 l 426 913 m 691 913 q 468 971 587 973 q 252 911 354 969 q 83 754 148 854 q 3 517 14 648 q 45 240 -11 358 q 188 76 94 139 q 366 6 269 22 q 517 11 454 -8 q 586 67 565 26 q 595 149 606 106 q 546 214 584 192 q 441 227 503 239 q 328 239 383 214 q 239 315 275 262 q 192 437 201 368 q 208 591 182 513 q 283 713 233 664 q 390 776 328 758 q 509 785 448 794 q 620 743 570 777 q 684 664 663 715 q 703 566 703 618 q 685 485 702 517 q 642 454 667 452 q 627 486 628 455 q 627 502 627 492 l 627 510 l 627 519 q 626 557 627 543 q 609 639 624 607 q 545 699 589 681 q 471 711 511 713 q 387 692 427 711 q 265 528 291 648 q 307 343 241 412 q 374 300 335 314 q 453 293 413 288 q 570 283 524 302 l 578 279 l 587 276 q 606 269 597 271 q 655 262 627 262 q 790 340 728 264 q 868 521 850 414 q 848 735 888 635 q 691 913 804 849 z "},"A":{"ha":840,"x_min":-12,"x_max":781,"o":"m 473 370 q 444 355 458 359 q 411 354 427 350 q 465 380 441 361 q 506 425 484 395 q 473 370 501 392 m 399 408 q 379 434 384 415 q 382 473 374 453 q 407 505 390 494 q 439 509 424 515 q 460 484 455 503 q 457 444 465 465 q 432 412 449 423 q 399 408 415 402 m 290 773 q 228 679 264 738 q 199 630 216 658 l 171 581 q 219 684 191 630 q 279 781 245 733 q 355 867 319 835 l 366 877 q 376 886 372 882 l 388 895 l 400 902 q 455 918 433 919 q 404 897 432 916 l 393 888 l 382 879 q 372 870 377 876 l 361 860 q 290 773 327 824 m 471 969 q 272 848 382 983 q 94 536 173 726 q 2 201 15 347 q 64 11 -12 40 q 176 12 122 -12 q 262 78 217 30 q 281 99 271 87 l 299 119 q 332 157 321 146 q 392 195 368 195 q 454 159 417 195 q 488 123 466 148 l 507 104 l 525 85 q 608 23 571 39 q 707 24 658 2 q 774 197 766 51 q 743 509 781 334 q 636 815 704 691 q 471 969 559 955 z "},"B":{"ha":761,"x_min":-4,"x_max":699,"o":"m 489 311 q 456 277 477 288 q 410 269 433 264 q 450 285 433 273 q 477 317 468 298 q 484 401 495 352 q 498 357 496 382 q 489 311 500 333 m 363 351 q 354 391 352 371 q 370 418 356 410 q 403 418 385 427 q 432 391 421 410 q 441 351 444 371 q 425 323 439 332 q 393 323 411 315 q 363 351 375 332 m 303 633 q 334 645 320 637 q 358 664 348 654 q 377 689 368 674 q 391 718 385 702 q 367 655 395 684 q 338 636 354 642 q 303 633 319 629 m 290 731 q 309 750 297 745 q 330 750 321 755 q 340 732 339 745 q 334 706 341 719 q 315 687 326 692 q 294 687 302 682 q 283 705 284 692 q 290 731 282 718 m 174 852 q 141 810 158 836 q 94 716 115 772 q 62 614 77 672 q 84 720 67 666 q 130 818 101 773 q 209 894 165 869 q 259 916 235 909 q 313 920 288 922 q 214 886 257 916 q 174 852 192 871 m 466 593 q 461 616 454 598 q 471 635 464 622 l 475 641 l 478 647 q 485 661 482 654 q 511 732 504 698 q 513 831 522 780 q 448 928 504 888 q 320 971 393 969 q 173 926 240 973 q 51 762 95 872 q 1 512 5 647 q 37 259 -4 374 q 170 66 82 134 q 406 1 268 -8 q 614 86 536 9 q 692 259 685 155 q 642 451 699 361 q 466 593 580 548 z "},"C":{"ha":791,"x_min":0,"x_max":730,"o":"m 572 382 q 557 372 566 378 l 550 366 l 543 361 q 507 345 524 349 q 469 343 487 339 q 535 371 504 350 l 543 376 l 550 382 q 568 391 560 388 q 606 395 588 399 q 572 382 589 392 m 180 831 q 117 746 145 795 q 74 647 94 705 q 109 751 84 701 q 171 840 132 800 q 262 903 212 882 q 315 916 290 913 q 370 918 345 920 q 266 894 311 913 q 180 831 217 870 m 719 310 q 643 441 709 415 q 581 446 614 453 q 517 415 547 438 q 456 396 488 393 q 401 424 427 399 q 365 490 376 450 q 360 585 353 534 q 431 668 371 659 q 554 646 475 675 q 618 648 589 634 q 660 691 646 661 q 668 762 674 723 q 633 842 662 804 q 472 956 572 925 q 286 961 380 984 q 86 807 165 932 q 0 469 0 671 q 118 112 0 241 q 248 22 173 51 q 410 1 323 -6 q 646 106 557 14 q 719 310 730 195 z "},"D":{"ha":791,"x_min":-7,"x_max":740,"o":"m 443 370 q 422 334 437 351 q 387 312 406 319 q 346 309 366 305 q 412 344 387 317 q 444 411 438 370 q 443 370 449 391 m 329 365 q 311 428 311 375 q 327 486 311 480 q 368 465 345 494 q 392 408 391 437 q 370 368 393 382 q 329 365 349 355 m 178 907 q 152 878 165 898 q 117 804 133 847 q 92 725 107 777 q 81 685 84 701 l 75 665 l 70 644 q 81 727 73 685 q 105 808 90 768 q 144 884 123 855 q 175 913 160 904 q 196 919 184 918 q 217 919 206 920 l 207 918 l 197 916 q 178 907 185 913 m 173 965 q 57 810 104 945 q 3 515 14 687 q 18 212 -7 345 q 108 32 46 68 q 269 1 173 -5 q 453 50 359 7 q 614 159 548 92 q 706 313 686 231 q 689 588 740 452 q 544 806 645 707 q 347 941 453 895 q 173 965 242 985 z "},"E":{"ha":733,"x_min":-5,"x_max":665,"o":"m 458 281 l 449 277 q 428 272 436 273 q 385 271 404 267 q 425 281 406 275 l 435 286 l 444 289 q 465 296 456 294 q 507 306 488 304 q 549 306 531 309 q 469 284 514 298 l 458 281 m 262 911 q 206 888 231 903 q 157 852 177 871 q 122 804 138 833 q 79 689 97 760 q 65 629 71 661 q 60 598 62 616 l 56 567 q 68 691 56 632 q 111 810 83 760 q 149 861 128 842 q 201 897 174 884 q 261 917 229 911 q 323 921 294 923 q 262 911 288 918 m 393 551 l 398 552 q 409 555 404 554 q 433 554 422 557 q 453 542 447 551 q 431 544 444 544 q 411 542 420 543 l 406 541 l 401 541 q 389 539 394 539 q 367 542 376 538 l 377 545 l 388 549 l 393 551 m 423 331 q 363 327 388 317 q 336 355 342 334 q 342 393 331 375 q 378 414 354 411 q 486 452 451 420 q 515 527 518 481 q 475 589 513 569 q 385 597 437 610 q 327 621 340 585 q 326 651 322 635 q 344 677 331 667 q 402 696 363 691 q 438 699 416 698 l 457 700 l 475 701 q 545 715 521 705 q 593 760 580 729 q 574 869 617 814 q 452 951 532 921 q 281 971 367 981 q 117 895 185 959 q 24 708 55 836 q 1 448 -5 590 q 44 197 7 307 q 149 38 84 79 q 302 0 211 -3 q 471 40 386 3 q 608 131 555 76 q 665 248 664 189 q 604 349 665 326 q 423 331 538 374 z "},"F":{"ha":682,"x_min":-8,"x_max":619,"o":"m 259 910 q 200 890 227 903 q 106 814 139 862 q 65 697 80 774 q 52 572 56 648 q 50 635 50 597 q 56 699 52 667 q 95 821 66 774 q 196 900 132 874 q 322 920 255 924 q 259 910 284 917 m 390 548 q 408 551 396 549 q 426 549 416 551 q 441 537 437 545 q 432 538 437 538 l 424 538 l 416 538 l 408 538 q 391 538 399 537 q 373 541 380 538 q 390 548 380 545 m 331 678 q 405 694 351 692 q 428 694 414 694 l 452 694 q 501 696 483 694 q 584 718 557 700 q 617 792 619 741 q 552 900 615 852 q 403 963 492 946 q 224 959 309 981 q 69 862 127 933 q 3 652 15 796 q 20 369 -8 519 q 104 117 48 216 q 239 1 165 7 q 382 80 346 -8 q 382 254 412 155 q 353 372 353 347 q 398 425 352 414 q 484 469 458 437 q 499 530 505 496 q 463 584 493 567 q 386 594 433 602 q 321 623 340 587 q 315 653 313 638 q 331 678 318 669 z "},"G":{"ha":858,"x_min":-17,"x_max":800,"o":"m 537 588 q 500 545 512 572 q 507 576 498 560 q 530 600 515 589 q 592 608 560 619 q 537 588 558 602 m 534 358 q 513 336 527 346 q 455 328 484 318 q 482 336 472 332 q 506 347 495 340 q 543 387 530 363 q 534 358 543 372 m 296 884 q 193 821 238 859 q 115 728 148 781 q 87 675 99 703 q 75 646 81 663 l 71 631 l 66 617 q 106 734 77 682 q 141 785 117 754 q 184 830 161 810 q 292 893 234 871 q 413 917 351 916 q 353 904 378 911 q 296 884 322 896 m 713 604 q 627 655 673 643 q 545 655 585 667 q 480 617 507 645 q 448 552 454 589 q 453 490 444 520 q 473 445 458 470 l 478 436 l 483 427 q 490 412 488 418 q 486 389 495 398 q 448 382 471 376 q 406 412 426 389 q 361 559 356 468 q 399 669 364 623 q 495 733 435 718 q 600 787 564 750 q 630 867 633 821 q 593 931 628 905 q 506 965 560 956 q 267 935 388 986 q 58 745 130 876 q 5 420 -17 606 q 149 114 27 229 q 434 0 266 3 q 667 66 577 -3 q 782 271 755 136 q 784 451 800 360 q 713 604 766 552 z "},"H":{"ha":886,"x_min":-2,"x_max":825,"o":"m 595 903 q 577 888 585 899 q 559 844 565 873 q 553 747 552 806 l 553 735 l 553 723 q 553 697 553 708 q 540 648 550 669 q 511 606 529 623 q 467 582 490 589 q 531 652 513 604 q 541 699 539 675 q 541 722 541 708 l 541 734 l 540 747 q 549 846 539 808 q 572 892 558 877 q 593 906 583 903 q 618 909 604 909 q 595 903 604 907 m 137 886 q 101 824 114 861 q 80 752 90 793 l 71 716 l 62 680 q 89 828 64 756 q 130 893 103 869 q 163 914 145 907 q 201 919 182 921 q 137 886 165 916 m 616 961 q 518 899 547 957 q 495 724 490 842 q 473 647 497 673 q 419 627 452 625 q 368 656 385 630 q 356 724 351 682 q 332 904 369 844 q 223 969 299 958 q 113 941 163 979 q 45 840 66 905 q 0 540 2 713 q 34 222 -2 373 q 119 62 60 111 q 226 30 167 22 q 343 220 356 49 q 396 346 334 346 q 444 323 427 346 q 462 226 465 292 q 498 55 456 114 q 607 0 536 0 q 776 150 728 0 q 819 509 810 258 q 770 831 825 703 q 616 961 712 966 z "},"I":{"ha":449,"x_min":-16,"x_max":387,"o":"m 84 893 q 67 866 73 883 q 61 833 62 852 q 66 765 59 808 l 73 730 l 79 695 q 56 762 64 732 q 47 834 46 802 q 55 871 49 855 q 77 901 63 891 q 146 919 106 924 q 84 893 108 915 m 329 854 q 252 941 300 909 q 161 972 210 968 q 75 957 115 976 q 18 903 36 938 q 20 710 -16 837 q 36 656 25 690 l 44 630 l 52 603 q 76 497 71 539 q 85 289 87 396 q 83 207 85 254 l 81 189 l 81 172 q 79 140 80 153 q 87 46 77 73 q 139 3 100 12 q 276 83 215 -15 q 359 326 330 171 q 380 619 387 474 q 329 854 373 772 z "},"J":{"ha":730,"x_min":-17,"x_max":666,"o":"m 409 908 q 390 884 395 899 q 384 852 385 871 q 386 819 383 842 q 374 852 376 834 q 378 889 371 872 q 404 916 386 908 q 439 921 421 925 q 409 908 420 916 m 418 334 q 385 287 405 303 q 332 268 361 267 q 378 294 358 274 q 407 338 395 311 q 424 391 416 360 l 431 417 l 437 444 q 418 334 439 383 m 90 421 q 66 378 73 404 q 57 327 59 357 q 57 274 56 302 q 54 381 38 330 q 83 428 63 411 q 134 444 106 449 q 90 421 109 441 m 559 906 q 476 967 525 953 q 391 962 431 980 q 335 903 351 945 q 337 802 317 859 q 387 478 393 639 q 369 366 385 408 q 327 319 353 321 q 286 337 300 317 q 263 386 277 348 q 252 415 256 404 q 235 444 244 431 q 176 488 214 475 q 105 492 140 501 q 43 454 69 483 q 7 264 -17 387 q 83 109 24 174 q 214 20 136 49 q 368 2 288 -6 q 512 54 448 11 q 632 233 593 110 q 663 484 666 340 q 631 733 661 613 q 559 906 602 850 z "},"K":{"ha":791,"x_min":-10,"x_max":724,"o":"m 448 760 q 395 702 420 725 q 328 660 361 672 q 388 709 355 676 q 438 768 414 736 q 462 798 451 783 l 467 806 l 473 814 q 486 830 480 824 q 517 854 500 846 q 556 862 538 864 q 493 823 521 859 q 482 808 489 818 l 477 800 l 472 791 q 448 760 463 778 m 180 908 q 155 884 168 899 q 121 824 138 863 q 96 757 111 800 l 86 722 l 75 688 q 87 760 79 730 q 109 829 96 798 q 148 891 127 869 q 178 913 161 905 q 214 920 197 922 q 180 908 195 918 m 486 515 q 473 542 458 530 q 494 555 478 547 l 502 559 l 510 563 q 528 571 522 568 q 610 625 578 596 q 676 727 657 668 q 674 831 694 782 q 613 899 656 877 q 524 909 570 922 q 435 840 472 895 q 317 711 373 746 q 287 703 294 697 q 290 735 278 710 q 321 901 340 837 q 250 967 306 954 q 71 852 134 994 q 5 521 19 739 q 24 168 -10 302 q 176 10 67 6 q 292 157 275 14 q 292 265 296 205 q 288 307 290 286 q 286 323 287 315 l 285 330 l 284 332 l 283 334 q 289 359 281 353 q 311 354 297 366 q 381 199 348 322 q 442 68 402 119 q 526 7 479 22 q 614 8 571 -7 q 688 68 658 25 q 722 179 721 117 q 696 300 724 238 q 486 515 635 432 z "},"L":{"ha":753,"x_min":-9,"x_max":689,"o":"m 517 313 q 467 309 488 311 l 443 305 l 418 302 l 393 298 q 368 298 378 296 q 392 304 378 300 l 404 309 l 416 312 q 466 321 439 318 q 566 313 526 328 q 517 313 547 314 m 163 897 q 143 867 154 886 q 114 800 127 836 q 92 731 104 771 l 81 696 l 71 661 q 102 805 77 734 q 134 871 116 844 q 158 901 146 889 q 173 913 167 909 q 191 918 182 918 q 163 897 177 915 m 382 353 q 318 433 326 338 q 317 534 315 469 q 320 591 318 553 l 321 621 l 323 652 q 309 874 329 804 q 187 970 279 975 q 67 840 118 966 q 5 557 20 726 q 15 250 -9 387 q 108 49 42 98 q 269 0 170 2 q 455 33 358 -1 q 610 120 548 66 q 681 233 677 176 q 600 357 689 327 q 382 353 517 386 z "},"M":{"ha":1112,"x_min":-9,"x_max":1048,"o":"m 759 903 q 726 872 743 892 q 672 799 704 846 l 659 780 l 645 761 q 613 726 629 740 q 574 699 594 709 q 528 691 550 689 q 606 733 570 694 q 635 768 620 747 l 648 787 l 661 806 q 719 880 695 854 q 755 909 739 899 q 801 919 779 921 q 759 903 777 917 m 212 842 q 165 765 188 811 q 129 682 151 736 q 113 638 121 660 l 105 617 l 97 595 q 153 770 115 691 q 205 848 178 820 q 241 878 220 865 q 286 888 263 890 q 212 842 248 884 m 1039 507 q 967 838 1031 709 q 823 970 907 959 q 711 937 761 978 q 611 815 672 905 q 521 745 559 736 q 459 807 496 749 q 377 905 416 873 q 275 941 328 945 q 47 609 133 927 q 2 243 -9 405 q 113 37 14 58 q 216 66 172 25 q 278 165 249 98 q 300 223 288 188 l 305 237 l 310 251 q 319 276 315 266 q 357 336 340 330 q 382 315 370 340 q 393 288 387 307 l 396 280 l 399 272 l 406 256 q 443 193 423 214 q 509 162 471 163 q 565 184 538 161 q 606 234 583 199 l 614 247 l 623 259 q 640 280 633 273 q 674 293 657 299 q 707 239 690 287 q 714 217 710 230 l 718 205 l 722 193 q 741 140 733 161 q 794 45 765 78 q 886 0 832 1 q 1015 143 977 -3 q 1039 507 1048 271 z "},"N":{"ha":913,"x_min":0,"x_max":854,"o":"m 619 883 q 606 857 611 875 q 597 827 602 846 l 594 811 l 590 795 q 587 828 587 810 q 593 861 588 846 q 612 890 600 882 q 646 896 627 901 q 619 883 626 890 m 606 550 q 576 519 595 529 q 536 513 557 509 q 570 528 557 518 q 593 555 585 539 q 603 591 600 569 l 606 631 q 613 591 612 611 q 606 550 614 568 m 171 899 q 138 858 153 886 q 116 808 125 833 q 100 757 107 784 q 75 650 88 716 q 66 596 71 627 l 58 542 q 66 652 58 593 q 87 760 73 707 q 129 863 106 827 q 168 904 147 891 q 221 918 195 920 q 171 899 194 916 m 668 947 q 564 908 597 956 q 544 698 523 847 q 555 593 556 616 q 536 566 553 568 q 517 585 527 566 q 496 637 509 600 l 494 645 l 491 653 l 485 671 q 471 709 477 692 q 437 787 454 753 q 312 940 382 892 q 143 948 227 998 q 37 753 77 907 q 0 433 0 610 q 39 133 0 252 q 161 0 83 1 q 279 165 283 -1 q 274 227 278 191 q 271 255 273 238 l 269 268 l 267 281 q 270 337 261 334 q 283 332 279 339 q 298 303 287 328 q 309 277 304 288 q 328 240 318 258 q 389 136 353 192 q 490 35 431 71 q 617 5 554 -3 q 848 425 836 35 q 806 783 854 636 q 668 947 755 935 z "},"O":{"ha":858,"x_min":-21,"x_max":821,"o":"m 462 304 q 430 277 448 286 q 391 268 411 267 q 451 312 429 282 q 479 382 471 340 q 462 304 488 340 m 320 374 q 328 420 316 399 q 362 445 340 441 q 402 432 384 448 q 425 391 420 416 q 416 345 429 365 q 382 320 404 323 q 342 332 361 317 q 320 374 324 348 m 285 894 q 192 835 233 873 q 123 748 155 800 l 116 736 l 109 724 l 97 699 l 86 672 l 76 646 q 114 753 87 702 q 183 844 141 806 q 281 904 228 886 q 337 917 307 913 l 351 918 l 366 919 l 394 918 q 285 894 332 913 m 512 956 q 162 888 302 1008 q 8 585 39 782 q 53 231 -21 394 q 297 11 132 55 q 589 91 452 -31 q 766 391 713 202 q 764 737 821 584 q 512 956 699 910 z "},"P":{"ha":723,"x_min":-10,"x_max":665,"o":"m 456 568 q 434 532 449 548 q 399 509 418 516 q 358 505 378 500 q 395 518 378 509 q 425 541 412 528 q 463 608 450 568 q 456 568 465 588 m 334 625 q 361 654 345 646 q 393 656 379 663 q 411 629 408 648 q 404 590 414 610 q 376 561 394 570 q 345 559 359 552 q 328 586 330 567 q 334 625 324 606 m 231 893 q 151 836 184 871 q 96 753 119 802 q 62 659 77 715 q 71 709 64 680 q 87 758 78 734 q 142 844 106 806 q 227 902 178 884 q 276 916 250 911 q 326 920 304 920 q 231 893 270 912 m 357 973 q 132 898 221 975 q 20 707 52 830 q 5 462 -10 595 q 72 221 20 332 q 183 56 122 114 q 292 1 237 5 q 378 30 342 -4 q 421 121 414 64 q 418 210 426 160 q 412 250 416 224 l 408 269 q 405 287 406 279 q 406 349 399 326 q 448 392 415 376 q 614 543 558 444 q 653 734 665 635 q 568 901 641 836 q 357 973 487 971 z "},"Q":{"ha":959,"x_min":-19,"x_max":897,"o":"m 553 372 q 524 325 544 346 q 477 293 503 303 q 422 286 452 282 q 473 302 450 290 q 514 334 497 315 q 544 376 532 352 q 562 427 556 400 q 553 372 564 398 m 399 343 q 361 387 371 355 q 364 454 351 419 q 408 505 378 489 q 466 511 437 522 q 505 467 495 499 q 502 399 515 434 q 458 348 488 365 q 399 343 429 332 m 235 838 q 170 770 203 811 q 117 691 144 738 q 162 776 134 734 q 226 848 189 816 q 309 900 266 883 q 355 913 330 908 l 367 916 l 379 917 l 391 918 l 403 918 q 313 890 355 911 q 235 838 271 870 m 848 191 q 833 203 842 196 l 827 208 l 820 214 q 800 232 806 225 q 791 270 783 250 q 821 496 828 372 q 764 728 814 621 q 623 906 711 843 q 401 970 525 977 q 136 821 249 963 q 5 507 29 688 q 63 182 -19 318 q 359 2 156 29 q 452 1 406 -4 q 565 29 511 6 q 623 41 600 43 q 661 23 642 38 l 668 16 l 676 9 q 693 -5 686 -1 q 739 -27 714 -22 q 829 -16 789 -38 q 881 43 864 3 q 889 121 897 81 q 848 191 881 164 z "},"R":{"ha":809,"x_min":-1,"x_max":745,"o":"m 443 524 q 408 501 427 509 q 368 498 388 494 q 433 534 408 506 q 466 600 456 559 q 443 524 473 558 m 325 605 q 339 642 326 627 q 371 656 353 656 q 401 640 389 655 q 413 602 414 623 q 399 565 412 580 q 368 551 385 550 q 337 568 349 551 q 325 605 324 583 m 256 892 q 178 830 213 871 q 122 746 149 797 q 82 652 102 708 q 113 750 92 702 q 168 839 135 800 q 251 901 206 882 q 301 917 275 912 q 353 919 329 921 q 256 892 298 914 m 707 292 q 651 368 683 333 q 625 395 640 381 q 613 406 620 399 l 608 410 l 602 415 q 574 447 579 437 q 579 475 568 461 q 650 623 633 541 q 644 777 666 703 q 558 905 619 854 q 391 970 491 959 q 166 903 260 984 q 39 693 83 831 q 0 418 -1 568 q 40 154 1 273 q 110 41 63 82 q 200 4 151 5 q 278 33 246 3 q 314 123 312 66 q 334 250 317 227 q 370 239 347 266 q 401 181 385 222 l 408 164 l 414 146 q 431 109 423 125 q 569 2 476 20 q 649 14 608 -5 q 716 73 690 34 q 745 169 745 115 q 707 292 745 229 z "},"S":{"ha":789,"x_min":-25,"x_max":732,"o":"m 416 311 q 396 281 410 294 q 366 264 382 269 q 332 264 348 260 q 387 290 370 273 q 416 345 411 312 q 416 311 421 328 m 145 290 q 113 286 123 288 q 83 274 95 281 q 62 250 73 267 q 77 281 64 269 q 110 298 89 294 q 145 300 127 302 q 179 294 163 298 q 145 290 167 292 m 280 913 q 233 903 254 909 q 146 865 181 888 q 80 798 104 838 q 53 706 60 764 l 53 730 l 56 755 l 62 779 l 66 791 l 71 802 q 138 876 92 846 q 231 913 179 903 q 329 920 280 924 l 304 918 l 292 916 l 280 913 m 433 640 q 332 669 357 656 q 315 693 311 680 q 340 704 318 706 q 363 701 349 703 l 375 698 l 387 695 q 631 771 606 642 q 621 834 637 800 q 567 900 604 870 q 328 972 477 973 q 113 916 201 972 q 2 735 15 852 q 297 380 -25 488 q 360 330 377 355 q 334 317 353 317 q 263 330 311 317 q 3 230 25 396 q 56 95 -7 155 q 214 14 115 39 q 417 7 315 -10 q 603 92 528 26 q 707 245 680 158 q 709 409 732 327 q 615 551 684 492 q 433 640 542 616 z "},"T":{"ha":852,"x_min":-7,"x_max":794,"o":"m 242 909 q 165 893 195 902 q 93 863 120 881 q 64 838 73 850 q 53 802 53 824 q 59 842 48 823 q 87 872 68 857 q 161 906 115 892 q 321 918 237 926 q 242 909 277 914 m 371 969 q 102 933 205 978 q 1 798 -7 886 q 42 726 5 748 q 124 703 69 709 l 146 701 l 169 699 q 210 694 194 697 q 260 660 251 685 q 248 484 266 645 q 236 344 239 401 q 237 201 231 262 q 300 52 246 109 q 437 1 358 -9 q 545 291 584 21 q 522 534 524 433 q 543 660 521 642 q 596 673 558 671 q 631 673 607 673 l 650 672 l 668 673 q 737 686 712 673 q 781 738 770 701 q 766 825 794 784 q 681 896 741 864 q 371 969 562 959 z "},"U":{"ha":848,"x_min":-1,"x_max":805,"o":"m 542 881 q 527 857 534 873 q 514 798 520 836 q 508 738 511 777 l 505 707 l 501 677 q 501 800 494 740 q 518 861 507 840 q 538 886 527 879 q 570 890 550 893 l 562 889 l 555 888 q 542 881 547 885 m 458 353 q 425 337 442 341 q 391 337 408 333 q 422 347 411 342 q 450 363 437 353 q 472 385 461 372 q 481 398 477 391 l 491 412 q 458 353 487 376 m 188 903 q 159 872 174 891 q 119 798 138 841 q 89 718 105 766 q 77 676 83 699 l 65 634 q 79 720 68 675 q 106 803 90 762 q 151 878 127 850 q 184 908 168 897 q 226 919 207 922 q 188 903 206 918 m 572 943 q 470 868 496 943 q 452 563 441 783 q 391 389 462 389 q 338 456 351 390 q 341 610 326 519 q 334 900 375 812 q 230 971 304 965 q 113 905 167 976 q 31 726 62 839 q 0 490 1 612 q 32 256 -1 359 q 181 59 72 128 q 406 0 281 -3 q 625 71 530 4 q 753 262 726 142 q 743 714 805 486 q 671 878 715 817 q 572 943 625 942 z "},"V":{"ha":893,"x_min":-4,"x_max":843,"o":"m 624 891 q 598 846 610 874 q 579 797 590 828 l 570 772 l 560 747 q 587 852 566 804 q 616 898 600 881 q 666 919 638 922 q 624 891 642 915 m 510 523 q 492 491 503 505 q 461 469 478 475 q 443 465 454 467 q 425 467 435 465 l 433 469 l 441 471 q 457 478 451 475 q 481 500 471 486 q 500 528 491 510 l 509 543 l 518 558 q 510 523 517 541 m 103 869 q 89 851 96 863 q 72 808 79 834 q 62 761 66 789 l 57 737 l 53 713 q 60 811 46 764 q 81 857 68 840 q 100 874 89 869 q 124 878 112 881 q 103 869 112 876 m 688 969 q 570 916 616 981 q 511 764 536 867 q 501 720 506 745 l 496 699 l 492 678 q 476 601 481 624 q 431 519 456 524 q 393 538 410 515 q 361 600 378 557 q 345 641 355 615 l 337 663 l 328 687 q 289 783 307 745 q 180 915 242 880 q 72 915 122 947 q 21 842 40 894 q 0 717 2 790 q 69 360 -4 553 q 250 87 136 187 q 490 2 368 -14 q 682 141 593 16 q 802 427 764 259 q 813 781 843 617 q 768 909 799 861 q 688 969 735 961 z "},"W":{"ha":1157,"x_min":-16,"x_max":1107,"o":"m 895 886 q 873 838 884 867 q 857 786 867 819 l 848 760 l 840 734 q 861 842 843 791 q 887 892 873 873 q 908 911 896 903 q 935 919 921 920 q 895 886 912 913 m 806 525 q 794 495 802 509 q 769 472 783 479 q 737 467 753 464 q 764 481 754 473 q 783 502 775 489 q 797 528 789 511 l 803 543 l 810 557 q 806 525 810 541 m 479 603 q 461 576 471 591 l 445 549 l 436 535 l 427 522 q 406 496 416 507 q 378 477 392 484 q 345 473 361 471 q 398 503 375 476 q 416 529 407 514 l 425 543 l 433 556 q 471 609 456 592 q 522 649 496 640 q 479 603 503 637 m 105 868 q 80 806 91 844 q 65 741 72 779 l 60 707 l 54 673 q 67 810 50 745 q 96 873 79 850 q 121 899 109 890 q 155 907 138 909 q 105 868 125 903 m 932 971 q 836 897 873 967 q 788 743 807 843 q 775 661 783 712 l 772 642 l 769 623 q 764 590 766 604 q 734 519 751 521 q 696 548 717 518 q 677 579 688 559 l 667 596 l 656 614 q 606 680 629 659 q 540 707 574 709 q 466 673 500 705 q 412 608 441 651 l 401 591 l 396 583 l 391 574 q 373 547 380 556 q 340 526 354 521 q 312 605 323 533 q 307 639 310 618 l 304 657 l 302 676 q 291 755 296 726 q 248 900 275 852 q 152 960 212 964 q 14 787 49 954 q 18 426 -16 637 q 147 98 52 208 q 335 13 231 2 q 421 54 386 18 q 488 161 452 86 q 532 228 517 220 q 580 181 554 239 q 818 0 663 -5 q 975 112 909 3 q 1078 462 1049 233 q 1068 831 1107 689 q 932 971 1027 977 z "},"X":{"ha":906,"x_min":-5,"x_max":871,"o":"m 487 879 q 452 810 471 859 l 445 791 l 438 772 q 424 734 430 748 q 401 700 414 712 q 366 680 387 684 q 415 738 399 694 l 421 757 l 427 776 q 439 814 434 800 q 456 851 448 834 q 479 886 467 872 q 512 911 494 902 q 551 920 532 920 q 487 879 513 913 m 112 874 q 90 852 98 864 q 67 791 74 829 q 79 859 57 827 q 107 883 91 875 q 142 888 124 891 q 112 874 125 883 m 568 547 q 549 586 538 561 q 593 642 555 602 l 601 650 l 609 659 q 625 677 618 669 q 656 716 644 698 q 694 810 690 764 q 669 913 701 870 q 592 966 641 954 q 496 956 543 979 q 415 870 444 931 q 391 810 401 842 q 382 786 387 800 l 379 775 l 376 766 q 363 738 370 746 q 342 726 355 728 q 314 757 329 724 q 308 772 311 763 l 304 781 l 301 791 q 285 830 292 815 q 235 905 262 878 q 150 940 199 939 q 66 910 103 941 q 20 829 29 879 q 35 716 8 775 q 138 588 64 649 q 164 528 174 558 q 115 452 159 510 q 0 159 -5 292 q 33 60 3 100 q 112 6 62 20 q 276 62 204 -20 q 354 218 331 124 l 355 223 l 357 229 l 359 240 q 368 264 363 254 q 390 302 378 292 q 477 210 425 327 q 562 89 511 133 q 661 41 608 48 q 753 58 711 33 q 819 130 796 81 q 798 359 871 241 q 568 547 726 474 z "},"Y":{"ha":771,"x_min":-5,"x_max":706,"o":"m 477 801 q 465 785 472 795 l 452 770 q 427 738 437 749 q 393 713 410 721 q 353 706 374 704 q 419 745 391 709 l 431 760 l 443 777 q 467 809 458 798 q 526 867 495 843 q 562 888 545 880 q 602 895 585 897 q 564 882 583 892 q 532 859 548 873 q 477 801 500 830 m 77 907 q 64 886 68 899 q 57 861 60 878 l 53 833 q 47 861 47 846 q 52 890 47 877 q 71 915 58 907 q 100 920 85 924 q 77 907 86 916 m 675 717 q 701 844 706 787 q 664 924 696 897 q 586 945 632 951 q 489 897 537 939 q 436 842 460 871 q 417 819 427 831 q 409 808 414 814 l 406 803 l 402 798 q 378 769 386 777 q 353 758 366 758 q 308 796 339 758 q 294 814 302 803 l 286 824 l 279 834 q 245 877 258 861 q 73 968 150 989 q 22 932 42 958 q 0 862 3 903 q 85 631 -5 764 q 136 562 106 597 q 147 549 140 557 l 153 543 l 157 536 q 176 514 169 523 q 199 421 209 470 q 191 378 197 408 l 186 355 l 182 331 q 168 229 172 272 q 212 52 161 109 q 273 12 236 25 q 348 0 309 -2 q 421 21 388 3 q 477 76 456 41 q 503 220 505 123 q 502 265 503 236 l 500 290 l 500 314 q 502 424 498 375 q 522 489 504 457 q 564 547 534 510 l 571 555 l 577 563 q 591 579 585 572 q 619 617 607 600 q 675 717 652 664 z "},"Z":{"ha":852,"x_min":-9,"x_max":789,"o":"m 606 271 l 594 271 l 571 271 l 559 271 l 547 271 l 535 271 l 524 271 q 475 272 496 271 q 523 281 495 277 l 534 282 l 547 283 q 570 284 560 285 l 595 283 q 619 279 610 281 q 664 260 646 273 q 617 269 642 266 l 606 271 m 218 484 q 146 429 178 460 q 89 359 113 398 q 54 275 63 319 q 62 321 54 294 q 80 364 67 339 q 137 438 101 404 q 213 492 173 473 l 254 514 l 275 524 l 296 534 l 277 521 l 258 508 l 218 484 m 228 892 q 166 863 191 880 q 128 807 136 841 q 137 842 129 826 q 160 870 146 859 q 224 905 184 892 q 366 919 288 924 l 330 914 l 296 908 q 228 892 257 901 m 558 330 q 526 328 544 330 q 496 326 515 328 q 442 322 456 323 q 391 336 391 320 q 452 393 389 356 q 482 411 464 401 l 498 420 l 516 430 q 589 473 561 455 q 727 585 680 530 q 787 739 789 658 q 694 899 784 838 q 454 969 604 960 q 185 939 283 979 q 77 812 85 899 q 150 692 68 731 q 225 669 182 677 q 299 663 260 663 q 343 663 318 663 l 353 664 l 361 664 q 377 665 371 665 q 411 654 408 665 q 397 640 412 648 q 349 617 388 635 q 315 601 330 608 q 273 581 293 591 q 172 524 222 554 q 61 420 106 482 q 3 290 14 357 q 24 159 -9 218 q 149 53 61 94 q 306 12 207 26 q 509 2 411 -5 q 687 43 620 9 q 772 155 765 83 q 713 291 781 243 q 558 330 652 334 z "},"[":{"ha":514,"x_min":0,"x_max":0,"o":""},"\\":{"ha":647,"x_min":-3,"x_max":611,"o":"m 123 692 q 84 765 104 725 q 51 841 62 810 q 41 882 43 865 q 41 903 39 893 q 50 921 42 916 q 43 903 43 915 q 46 882 43 894 q 59 844 50 867 q 94 770 73 811 l 131 696 l 149 659 q 168 622 160 638 l 156 639 l 144 656 l 123 692 m 364 665 q 176 924 254 854 q 26 952 90 1000 q 1 885 -3 930 q 35 777 4 844 q 112 631 59 726 q 136 590 121 616 l 148 568 l 160 546 q 212 453 191 492 q 307 262 256 372 q 326 220 314 246 l 335 200 l 344 181 q 376 113 363 138 q 437 22 409 47 q 509 3 469 -7 q 555 239 611 31 q 364 665 507 420 z "},"]":{"ha":514,"x_min":0,"x_max":0,"o":""},"^":{"ha":609,"x_min":-5,"x_max":545,"o":"m 205 896 q 159 850 182 876 q 80 744 123 809 q 151 857 104 804 q 199 903 176 885 q 229 920 212 912 q 261 926 249 928 q 231 915 246 924 q 205 896 221 909 m 261 968 q 151 909 212 968 q 50 774 94 854 q 1 627 6 692 q 43 531 -5 555 q 130 530 89 509 q 194 589 161 545 q 219 625 204 603 l 224 634 l 230 643 q 241 659 237 652 q 275 688 263 691 q 309 650 288 685 l 315 642 l 319 634 q 330 617 326 623 q 353 583 343 597 q 496 543 420 496 q 541 646 545 573 q 493 787 538 711 q 388 913 450 863 q 261 968 321 968 z "},"_":{"ha":739,"x_min":-7,"x_max":681,"o":"m 572 198 q 525 194 549 198 q 478 185 507 192 l 454 179 q 430 176 439 176 q 452 184 439 178 l 464 189 l 475 193 q 523 205 498 202 q 572 207 551 210 q 618 189 602 203 q 572 198 601 197 m 96 181 l 83 179 q 58 172 68 176 q 41 155 45 166 q 54 180 37 170 q 80 190 64 186 q 136 189 109 195 q 122 186 130 187 l 109 183 l 96 181 m 446 224 q 330 218 410 212 q 259 224 307 220 l 223 228 q 187 231 203 230 q 62 224 104 237 q 1 161 7 209 q 70 57 -7 100 q 255 5 140 19 q 470 9 367 -7 q 630 71 580 27 q 673 143 666 104 q 658 210 681 181 q 582 245 633 239 q 446 224 524 252 z "},"`":{"ha":694,"x_min":0,"x_max":0,"o":""},"a":{"ha":840,"x_min":-12,"x_max":781,"o":"m 473 370 q 444 355 458 359 q 411 354 427 350 q 465 380 441 361 q 506 425 484 395 q 473 370 501 392 m 399 408 q 379 434 384 415 q 382 473 374 453 q 407 505 390 494 q 439 509 424 515 q 460 484 455 503 q 457 444 465 465 q 432 412 449 423 q 399 408 415 402 m 290 773 q 228 679 264 738 q 199 630 216 658 l 171 581 q 219 684 191 630 q 279 781 245 733 q 355 867 319 835 l 366 877 q 376 886 372 882 l 388 895 l 400 902 q 455 918 433 919 q 404 897 432 916 l 393 888 l 382 879 q 372 870 377 876 l 361 860 q 290 773 327 824 m 471 969 q 272 848 382 983 q 94 536 173 726 q 2 201 15 347 q 64 11 -12 40 q 176 12 122 -12 q 262 78 217 30 q 281 99 271 87 l 299 119 q 332 157 321 146 q 392 195 368 195 q 454 159 417 195 q 488 123 466 148 l 507 104 l 525 85 q 608 23 571 39 q 707 24 658 2 q 774 197 766 51 q 743 509 781 334 q 636 815 704 691 q 471 969 559 955 z "},"b":{"ha":761,"x_min":-4,"x_max":699,"o":"m 489 311 q 456 277 477 288 q 410 269 433 264 q 450 285 433 273 q 477 317 468 298 q 484 401 495 352 q 498 357 496 382 q 489 311 500 333 m 363 351 q 354 391 352 371 q 370 418 356 410 q 403 418 385 427 q 432 391 421 410 q 441 351 444 371 q 425 323 439 332 q 393 323 411 315 q 363 351 375 332 m 303 633 q 334 645 320 637 q 358 664 348 654 q 377 689 368 674 q 391 718 385 702 q 367 655 395 684 q 338 636 354 642 q 303 633 319 629 m 290 731 q 309 750 297 745 q 330 750 321 755 q 340 732 339 745 q 334 706 341 719 q 315 687 326 692 q 294 687 302 682 q 283 705 284 692 q 290 731 282 718 m 174 852 q 141 810 158 836 q 94 716 115 772 q 62 614 77 672 q 84 720 67 666 q 130 818 101 773 q 209 894 165 869 q 259 916 235 909 q 313 920 288 922 q 214 886 257 916 q 174 852 192 871 m 466 593 q 461 616 454 598 q 471 635 464 622 l 475 641 l 478 647 q 485 661 482 654 q 511 732 504 698 q 513 831 522 780 q 448 928 504 888 q 320 971 393 969 q 173 926 240 973 q 51 762 95 872 q 1 512 5 647 q 37 259 -4 374 q 170 66 82 134 q 406 1 268 -8 q 614 86 536 9 q 692 259 685 155 q 642 451 699 361 q 466 593 580 548 z "},"c":{"ha":791,"x_min":0,"x_max":730,"o":"m 572 382 q 557 372 566 378 l 550 366 l 543 361 q 507 345 524 349 q 469 343 487 339 q 535 371 504 350 l 543 376 l 550 382 q 568 391 560 388 q 606 395 588 399 q 572 382 589 392 m 180 831 q 117 746 145 795 q 74 647 94 705 q 109 751 84 701 q 171 840 132 800 q 262 903 212 882 q 315 916 290 913 q 370 918 345 920 q 266 894 311 913 q 180 831 217 870 m 719 310 q 643 441 709 415 q 581 446 614 453 q 517 415 547 438 q 456 396 488 393 q 401 424 427 399 q 365 490 376 450 q 360 585 353 534 q 431 668 371 659 q 554 646 475 675 q 618 648 589 634 q 660 691 646 661 q 668 762 674 723 q 633 842 662 804 q 472 956 572 925 q 286 961 380 984 q 86 807 165 932 q 0 469 0 671 q 118 112 0 241 q 248 22 173 51 q 410 1 323 -6 q 646 106 557 14 q 719 310 730 195 z "},"d":{"ha":791,"x_min":-7,"x_max":740,"o":"m 443 370 q 422 334 437 351 q 387 312 406 319 q 346 309 366 305 q 412 344 387 317 q 444 411 438 370 q 443 370 449 391 m 329 365 q 311 428 311 375 q 327 486 311 480 q 368 465 345 494 q 392 408 391 437 q 370 368 393 382 q 329 365 349 355 m 178 907 q 152 878 165 898 q 117 804 133 847 q 92 725 107 777 q 81 685 84 701 l 75 665 l 70 644 q 81 727 73 685 q 105 808 90 768 q 144 884 123 855 q 175 913 160 904 q 196 919 184 918 q 217 919 206 920 l 207 918 l 197 916 q 178 907 185 913 m 173 965 q 57 810 104 945 q 3 515 14 687 q 18 212 -7 345 q 108 32 46 68 q 269 1 173 -5 q 453 50 359 7 q 614 159 548 92 q 706 313 686 231 q 689 588 740 452 q 544 806 645 707 q 347 941 453 895 q 173 965 242 985 z "},"e":{"ha":733,"x_min":-5,"x_max":665,"o":"m 458 281 l 449 277 q 428 272 436 273 q 385 271 404 267 q 425 281 406 275 l 435 286 l 444 289 q 465 296 456 294 q 507 306 488 304 q 549 306 531 309 q 469 284 514 298 l 458 281 m 262 911 q 206 888 231 903 q 157 852 177 871 q 122 804 138 833 q 79 689 97 760 q 65 629 71 661 q 60 598 62 616 l 56 567 q 68 691 56 632 q 111 810 83 760 q 149 861 128 842 q 201 897 174 884 q 261 917 229 911 q 323 921 294 923 q 262 911 288 918 m 393 551 l 398 552 q 409 555 404 554 q 433 554 422 557 q 453 542 447 551 q 431 544 444 544 q 411 542 420 543 l 406 541 l 401 541 q 389 539 394 539 q 367 542 376 538 l 377 545 l 388 549 l 393 551 m 423 331 q 363 327 388 317 q 336 355 342 334 q 342 393 331 375 q 378 414 354 411 q 486 452 451 420 q 515 527 518 481 q 475 589 513 569 q 385 597 437 610 q 327 621 340 585 q 326 651 322 635 q 344 677 331 667 q 402 696 363 691 q 438 699 416 698 l 457 700 l 475 701 q 545 715 521 705 q 593 760 580 729 q 574 869 617 814 q 452 951 532 921 q 281 971 367 981 q 117 895 185 959 q 24 708 55 836 q 1 448 -5 590 q 44 197 7 307 q 149 38 84 79 q 302 0 211 -3 q 471 40 386 3 q 608 131 555 76 q 665 248 664 189 q 604 349 665 326 q 423 331 538 374 z "},"f":{"ha":682,"x_min":-8,"x_max":619,"o":"m 259 910 q 200 890 227 903 q 106 814 139 862 q 65 697 80 774 q 52 572 56 648 q 50 635 50 597 q 56 699 52 667 q 95 821 66 774 q 196 900 132 874 q 322 920 255 924 q 259 910 284 917 m 390 548 q 408 551 396 549 q 426 549 416 551 q 441 537 437 545 q 432 538 437 538 l 424 538 l 416 538 l 408 538 q 391 538 399 537 q 373 541 380 538 q 390 548 380 545 m 331 678 q 405 694 351 692 q 428 694 414 694 l 452 694 q 501 696 483 694 q 584 718 557 700 q 617 792 619 741 q 552 900 615 852 q 403 963 492 946 q 224 959 309 981 q 69 862 127 933 q 3 652 15 796 q 20 369 -8 519 q 104 117 48 216 q 239 1 165 7 q 382 80 346 -8 q 382 254 412 155 q 353 372 353 347 q 398 425 352 414 q 484 469 458 437 q 499 530 505 496 q 463 584 493 567 q 386 594 433 602 q 321 623 340 587 q 315 653 313 638 q 331 678 318 669 z "},"g":{"ha":858,"x_min":-17,"x_max":800,"o":"m 537 588 q 500 545 512 572 q 507 576 498 560 q 530 600 515 589 q 592 608 560 619 q 537 588 558 602 m 534 358 q 513 336 527 346 q 455 328 484 318 q 482 336 472 332 q 506 347 495 340 q 543 387 530 363 q 534 358 543 372 m 296 884 q 193 821 238 859 q 115 728 148 781 q 87 675 99 703 q 75 646 81 663 l 71 631 l 66 617 q 106 734 77 682 q 141 785 117 754 q 184 830 161 810 q 292 893 234 871 q 413 917 351 916 q 353 904 378 911 q 296 884 322 896 m 713 604 q 627 655 673 643 q 545 655 585 667 q 480 617 507 645 q 448 552 454 589 q 453 490 444 520 q 473 445 458 470 l 478 436 l 483 427 q 490 412 488 418 q 486 389 495 398 q 448 382 471 376 q 406 412 426 389 q 361 559 356 468 q 399 669 364 623 q 495 733 435 718 q 600 787 564 750 q 630 867 633 821 q 593 931 628 905 q 506 965 560 956 q 267 935 388 986 q 58 745 130 876 q 5 420 -17 606 q 149 114 27 229 q 434 0 266 3 q 667 66 577 -3 q 782 271 755 136 q 784 451 800 360 q 713 604 766 552 z "},"h":{"ha":886,"x_min":-2,"x_max":825,"o":"m 595 903 q 577 888 585 899 q 559 844 565 873 q 553 747 552 806 l 553 735 l 553 723 q 553 697 553 708 q 540 648 550 669 q 511 606 529 623 q 467 582 490 589 q 531 652 513 604 q 541 699 539 675 q 541 722 541 708 l 541 734 l 540 747 q 549 846 539 808 q 572 892 558 877 q 593 906 583 903 q 618 909 604 909 q 595 903 604 907 m 137 886 q 101 824 114 861 q 80 752 90 793 l 71 716 l 62 680 q 89 828 64 756 q 130 893 103 869 q 163 914 145 907 q 201 919 182 921 q 137 886 165 916 m 616 961 q 518 899 547 957 q 495 724 490 842 q 473 647 497 673 q 419 627 452 625 q 368 656 385 630 q 356 724 351 682 q 332 904 369 844 q 223 969 299 958 q 113 941 163 979 q 45 840 66 905 q 0 540 2 713 q 34 222 -2 373 q 119 62 60 111 q 226 30 167 22 q 343 220 356 49 q 396 346 334 346 q 444 323 427 346 q 462 226 465 292 q 498 55 456 114 q 607 0 536 0 q 776 150 728 0 q 819 509 810 258 q 770 831 825 703 q 616 961 712 966 z "},"i":{"ha":449,"x_min":-16,"x_max":387,"o":"m 84 893 q 67 866 73 883 q 61 833 62 852 q 66 765 59 808 l 73 730 l 79 695 q 56 762 64 732 q 47 834 46 802 q 55 871 49 855 q 77 901 63 891 q 146 919 106 924 q 84 893 108 915 m 329 854 q 252 941 300 909 q 161 972 210 968 q 75 957 115 976 q 18 903 36 938 q 20 710 -16 837 q 36 656 25 690 l 44 630 l 52 603 q 76 497 71 539 q 85 289 87 396 q 83 207 85 254 l 81 189 l 81 172 q 79 140 80 153 q 87 46 77 73 q 139 3 100 12 q 276 83 215 -15 q 359 326 330 171 q 380 619 387 474 q 329 854 373 772 z "},"j":{"ha":730,"x_min":-17,"x_max":666,"o":"m 409 908 q 390 884 395 899 q 384 852 385 871 q 386 819 383 842 q 374 852 376 834 q 378 889 371 872 q 404 916 386 908 q 439 921 421 925 q 409 908 420 916 m 418 334 q 385 287 405 303 q 332 268 361 267 q 378 294 358 274 q 407 338 395 311 q 424 391 416 360 l 431 417 l 437 444 q 418 334 439 383 m 90 421 q 66 378 73 404 q 57 327 59 357 q 57 274 56 302 q 54 381 38 330 q 83 428 63 411 q 134 444 106 449 q 90 421 109 441 m 559 906 q 476 967 525 953 q 391 962 431 980 q 335 903 351 945 q 337 802 317 859 q 387 478 393 639 q 369 366 385 408 q 327 319 353 321 q 286 337 300 317 q 263 386 277 348 q 252 415 256 404 q 235 444 244 431 q 176 488 214 475 q 105 492 140 501 q 43 454 69 483 q 7 264 -17 387 q 83 109 24 174 q 214 20 136 49 q 368 2 288 -6 q 512 54 448 11 q 632 233 593 110 q 663 484 666 340 q 631 733 661 613 q 559 906 602 850 z "},"k":{"ha":791,"x_min":-10,"x_max":724,"o":"m 448 760 q 395 702 420 725 q 328 660 361 672 q 388 709 355 676 q 438 768 414 736 q 462 798 451 783 l 467 806 l 473 814 q 486 830 480 824 q 517 854 500 846 q 556 862 538 864 q 493 823 521 859 q 482 808 489 818 l 477 800 l 472 791 q 448 760 463 778 m 180 908 q 155 884 168 899 q 121 824 138 863 q 96 757 111 800 l 86 722 l 75 688 q 87 760 79 730 q 109 829 96 798 q 148 891 127 869 q 178 913 161 905 q 214 920 197 922 q 180 908 195 918 m 486 515 q 473 542 458 530 q 494 555 478 547 l 502 559 l 510 563 q 528 571 522 568 q 610 625 578 596 q 676 727 657 668 q 674 831 694 782 q 613 899 656 877 q 524 909 570 922 q 435 840 472 895 q 317 711 373 746 q 287 703 294 697 q 290 735 278 710 q 321 901 340 837 q 250 967 306 954 q 71 852 134 994 q 5 521 19 739 q 24 168 -10 302 q 176 10 67 6 q 292 157 275 14 q 292 265 296 205 q 288 307 290 286 q 286 323 287 315 l 285 330 l 284 332 l 283 334 q 289 359 281 353 q 311 354 297 366 q 381 199 348 322 q 442 68 402 119 q 526 7 479 22 q 614 8 571 -7 q 688 68 658 25 q 722 179 721 117 q 696 300 724 238 q 486 515 635 432 z "},"l":{"ha":753,"x_min":-9,"x_max":689,"o":"m 517 313 q 467 309 488 311 l 443 305 l 418 302 l 393 298 q 368 298 378 296 q 392 304 378 300 l 404 309 l 416 312 q 466 321 439 318 q 566 313 526 328 q 517 313 547 314 m 163 897 q 143 867 154 886 q 114 800 127 836 q 92 731 104 771 l 81 696 l 71 661 q 102 805 77 734 q 134 871 116 844 q 158 901 146 889 q 173 913 167 909 q 191 918 182 918 q 163 897 177 915 m 382 353 q 318 433 326 338 q 317 534 315 469 q 320 591 318 553 l 321 621 l 323 652 q 309 874 329 804 q 187 970 279 975 q 67 840 118 966 q 5 557 20 726 q 15 250 -9 387 q 108 49 42 98 q 269 0 170 2 q 455 33 358 -1 q 610 120 548 66 q 681 233 677 176 q 600 357 689 327 q 382 353 517 386 z "},"m":{"ha":1112,"x_min":-9,"x_max":1048,"o":"m 759 903 q 726 872 743 892 q 672 799 704 846 l 659 780 l 645 761 q 613 726 629 740 q 574 699 594 709 q 528 691 550 689 q 606 733 570 694 q 635 768 620 747 l 648 787 l 661 806 q 719 880 695 854 q 755 909 739 899 q 801 919 779 921 q 759 903 777 917 m 212 842 q 165 765 188 811 q 129 682 151 736 q 113 638 121 660 l 105 617 l 97 595 q 153 770 115 691 q 205 848 178 820 q 241 878 220 865 q 286 888 263 890 q 212 842 248 884 m 1039 507 q 967 838 1031 709 q 823 970 907 959 q 711 937 761 978 q 611 815 672 905 q 521 745 559 736 q 459 807 496 749 q 377 905 416 873 q 275 941 328 945 q 47 609 133 927 q 2 243 -9 405 q 113 37 14 58 q 216 66 172 25 q 278 165 249 98 q 300 223 288 188 l 305 237 l 310 251 q 319 276 315 266 q 357 336 340 330 q 382 315 370 340 q 393 288 387 307 l 396 280 l 399 272 l 406 256 q 443 193 423 214 q 509 162 471 163 q 565 184 538 161 q 606 234 583 199 l 614 247 l 623 259 q 640 280 633 273 q 674 293 657 299 q 707 239 690 287 q 714 217 710 230 l 718 205 l 722 193 q 741 140 733 161 q 794 45 765 78 q 886 0 832 1 q 1015 143 977 -3 q 1039 507 1048 271 z "},"n":{"ha":913,"x_min":0,"x_max":854,"o":"m 619 883 q 606 857 611 875 q 597 827 602 846 l 594 811 l 590 795 q 587 828 587 810 q 593 861 588 846 q 612 890 600 882 q 646 896 627 901 q 619 883 626 890 m 606 550 q 576 519 595 529 q 536 513 557 509 q 570 528 557 518 q 593 555 585 539 q 603 591 600 569 l 606 631 q 613 591 612 611 q 606 550 614 568 m 171 899 q 138 858 153 886 q 116 808 125 833 q 100 757 107 784 q 75 650 88 716 q 66 596 71 627 l 58 542 q 66 652 58 593 q 87 760 73 707 q 129 863 106 827 q 168 904 147 891 q 221 918 195 920 q 171 899 194 916 m 668 947 q 564 908 597 956 q 544 698 523 847 q 555 593 556 616 q 536 566 553 568 q 517 585 527 566 q 496 637 509 600 l 494 645 l 491 653 l 485 671 q 471 709 477 692 q 437 787 454 753 q 312 940 382 892 q 143 948 227 998 q 37 753 77 907 q 0 433 0 610 q 39 133 0 252 q 161 0 83 1 q 279 165 283 -1 q 274 227 278 191 q 271 255 273 238 l 269 268 l 267 281 q 270 337 261 334 q 283 332 279 339 q 298 303 287 328 q 309 277 304 288 q 328 240 318 258 q 389 136 353 192 q 490 35 431 71 q 617 5 554 -3 q 848 425 836 35 q 806 783 854 636 q 668 947 755 935 z "},"o":{"ha":858,"x_min":-21,"x_max":821,"o":"m 462 304 q 430 277 448 286 q 391 268 411 267 q 451 312 429 282 q 479 382 471 340 q 462 304 488 340 m 320 374 q 328 420 316 399 q 362 445 340 441 q 402 432 384 448 q 425 391 420 416 q 416 345 429 365 q 382 320 404 323 q 342 332 361 317 q 320 374 324 348 m 285 894 q 192 835 233 873 q 123 748 155 800 l 116 736 l 109 724 l 97 699 l 86 672 l 76 646 q 114 753 87 702 q 183 844 141 806 q 281 904 228 886 q 337 917 307 913 l 351 918 l 366 919 l 394 918 q 285 894 332 913 m 512 956 q 162 888 302 1008 q 8 585 39 782 q 53 231 -21 394 q 297 11 132 55 q 589 91 452 -31 q 766 391 713 202 q 764 737 821 584 q 512 956 699 910 z "},"p":{"ha":723,"x_min":-10,"x_max":665,"o":"m 456 568 q 434 532 449 548 q 399 509 418 516 q 358 505 378 500 q 395 518 378 509 q 425 541 412 528 q 463 608 450 568 q 456 568 465 588 m 334 625 q 361 654 345 646 q 393 656 379 663 q 411 629 408 648 q 404 590 414 610 q 376 561 394 570 q 345 559 359 552 q 328 586 330 567 q 334 625 324 606 m 231 893 q 151 836 184 871 q 96 753 119 802 q 62 659 77 715 q 71 709 64 680 q 87 758 78 734 q 142 844 106 806 q 227 902 178 884 q 276 916 250 911 q 326 920 304 920 q 231 893 270 912 m 357 973 q 132 898 221 975 q 20 707 52 830 q 5 462 -10 595 q 72 221 20 332 q 183 56 122 114 q 292 1 237 5 q 378 30 342 -4 q 421 121 414 64 q 418 210 426 160 q 412 250 416 224 l 408 269 q 405 287 406 279 q 406 349 399 326 q 448 392 415 376 q 614 543 558 444 q 653 734 665 635 q 568 901 641 836 q 357 973 487 971 z "},"q":{"ha":959,"x_min":-19,"x_max":897,"o":"m 553 372 q 524 325 544 346 q 477 293 503 303 q 422 286 452 282 q 473 302 450 290 q 514 334 497 315 q 544 376 532 352 q 562 427 556 400 q 553 372 564 398 m 399 343 q 361 387 371 355 q 364 454 351 419 q 408 505 378 489 q 466 511 437 522 q 505 467 495 499 q 502 399 515 434 q 458 348 488 365 q 399 343 429 332 m 235 838 q 170 770 203 811 q 117 691 144 738 q 162 776 134 734 q 226 848 189 816 q 309 900 266 883 q 355 913 330 908 l 367 916 l 379 917 l 391 918 l 403 918 q 313 890 355 911 q 235 838 271 870 m 848 191 q 833 203 842 196 l 827 208 l 820 214 q 800 232 806 225 q 791 270 783 250 q 821 496 828 372 q 764 728 814 621 q 623 906 711 843 q 401 970 525 977 q 136 821 249 963 q 5 507 29 688 q 63 182 -19 318 q 359 2 156 29 q 452 1 406 -4 q 565 29 511 6 q 623 41 600 43 q 661 23 642 38 l 668 16 l 676 9 q 693 -5 686 -1 q 739 -27 714 -22 q 829 -16 789 -38 q 881 43 864 3 q 889 121 897 81 q 848 191 881 164 z "},"r":{"ha":809,"x_min":-1,"x_max":745,"o":"m 443 524 q 408 501 427 509 q 368 498 388 494 q 433 534 408 506 q 466 600 456 559 q 443 524 473 558 m 325 605 q 339 642 326 627 q 371 656 353 656 q 401 640 389 655 q 413 602 414 623 q 399 565 412 580 q 368 551 385 550 q 337 568 349 551 q 325 605 324 583 m 256 892 q 178 830 213 871 q 122 746 149 797 q 82 652 102 708 q 113 750 92 702 q 168 839 135 800 q 251 901 206 882 q 301 917 275 912 q 353 919 329 921 q 256 892 298 914 m 707 292 q 651 368 683 333 q 625 395 640 381 q 613 406 620 399 l 608 410 l 602 415 q 574 447 579 437 q 579 475 568 461 q 650 623 633 541 q 644 777 666 703 q 558 905 619 854 q 391 970 491 959 q 166 903 260 984 q 39 693 83 831 q 0 418 -1 568 q 40 154 1 273 q 110 41 63 82 q 200 4 151 5 q 278 33 246 3 q 314 123 312 66 q 334 250 317 227 q 370 239 347 266 q 401 181 385 222 l 408 164 l 414 146 q 431 109 423 125 q 569 2 476 20 q 649 14 608 -5 q 716 73 690 34 q 745 169 745 115 q 707 292 745 229 z "},"s":{"ha":789,"x_min":-25,"x_max":732,"o":"m 416 311 q 396 281 410 294 q 366 264 382 269 q 332 264 348 260 q 387 290 370 273 q 416 345 411 312 q 416 311 421 328 m 145 290 q 113 286 123 288 q 83 274 95 281 q 62 250 73 267 q 77 281 64 269 q 110 298 89 294 q 145 300 127 302 q 179 294 163 298 q 145 290 167 292 m 280 913 q 233 903 254 909 q 146 865 181 888 q 80 798 104 838 q 53 706 60 764 l 53 730 l 56 755 l 62 779 l 66 791 l 71 802 q 138 876 92 846 q 231 913 179 903 q 329 920 280 924 l 304 918 l 292 916 l 280 913 m 433 640 q 332 669 357 656 q 315 693 311 680 q 340 704 318 706 q 363 701 349 703 l 375 698 l 387 695 q 631 771 606 642 q 621 834 637 800 q 567 900 604 870 q 328 972 477 973 q 113 916 201 972 q 2 735 15 852 q 297 380 -25 488 q 360 330 377 355 q 334 317 353 317 q 263 330 311 317 q 3 230 25 396 q 56 95 -7 155 q 214 14 115 39 q 417 7 315 -10 q 603 92 528 26 q 707 245 680 158 q 709 409 732 327 q 615 551 684 492 q 433 640 542 616 z "},"t":{"ha":852,"x_min":-7,"x_max":794,"o":"m 242 909 q 165 893 195 902 q 93 863 120 881 q 64 838 73 850 q 53 802 53 824 q 59 842 48 823 q 87 872 68 857 q 161 906 115 892 q 321 918 237 926 q 242 909 277 914 m 371 969 q 102 933 205 978 q 1 798 -7 886 q 42 726 5 748 q 124 703 69 709 l 146 701 l 169 699 q 210 694 194 697 q 260 660 251 685 q 248 484 266 645 q 236 344 239 401 q 237 201 231 262 q 300 52 246 109 q 437 1 358 -9 q 545 291 584 21 q 522 534 524 433 q 543 660 521 642 q 596 673 558 671 q 631 673 607 673 l 650 672 l 668 673 q 737 686 712 673 q 781 738 770 701 q 766 825 794 784 q 681 896 741 864 q 371 969 562 959 z "},"u":{"ha":848,"x_min":-1,"x_max":805,"o":"m 542 881 q 527 857 534 873 q 514 798 520 836 q 508 738 511 777 l 505 707 l 501 677 q 501 800 494 740 q 518 861 507 840 q 538 886 527 879 q 570 890 550 893 l 562 889 l 555 888 q 542 881 547 885 m 458 353 q 425 337 442 341 q 391 337 408 333 q 422 347 411 342 q 450 363 437 353 q 472 385 461 372 q 481 398 477 391 l 491 412 q 458 353 487 376 m 188 903 q 159 872 174 891 q 119 798 138 841 q 89 718 105 766 q 77 676 83 699 l 65 634 q 79 720 68 675 q 106 803 90 762 q 151 878 127 850 q 184 908 168 897 q 226 919 207 922 q 188 903 206 918 m 572 943 q 470 868 496 943 q 452 563 441 783 q 391 389 462 389 q 338 456 351 390 q 341 610 326 519 q 334 900 375 812 q 230 971 304 965 q 113 905 167 976 q 31 726 62 839 q 0 490 1 612 q 32 256 -1 359 q 181 59 72 128 q 406 0 281 -3 q 625 71 530 4 q 753 262 726 142 q 743 714 805 486 q 671 878 715 817 q 572 943 625 942 z "},"v":{"ha":893,"x_min":-4,"x_max":843,"o":"m 624 891 q 598 846 610 874 q 579 797 590 828 l 570 772 l 560 747 q 587 852 566 804 q 616 898 600 881 q 666 919 638 922 q 624 891 642 915 m 510 523 q 492 491 503 505 q 461 469 478 475 q 443 465 454 467 q 425 467 435 465 l 433 469 l 441 471 q 457 478 451 475 q 481 500 471 486 q 500 528 491 510 l 509 543 l 518 558 q 510 523 517 541 m 103 869 q 89 851 96 863 q 72 808 79 834 q 62 761 66 789 l 57 737 l 53 713 q 60 811 46 764 q 81 857 68 840 q 100 874 89 869 q 124 878 112 881 q 103 869 112 876 m 688 969 q 570 916 616 981 q 511 764 536 867 q 501 720 506 745 l 496 699 l 492 678 q 476 601 481 624 q 431 519 456 524 q 393 538 410 515 q 361 600 378 557 q 345 641 355 615 l 337 663 l 328 687 q 289 783 307 745 q 180 915 242 880 q 72 915 122 947 q 21 842 40 894 q 0 717 2 790 q 69 360 -4 553 q 250 87 136 187 q 490 2 368 -14 q 682 141 593 16 q 802 427 764 259 q 813 781 843 617 q 768 909 799 861 q 688 969 735 961 z "},"w":{"ha":1157,"x_min":-16,"x_max":1107,"o":"m 895 886 q 873 838 884 867 q 857 786 867 819 l 848 760 l 840 734 q 861 842 843 791 q 887 892 873 873 q 908 911 896 903 q 935 919 921 920 q 895 886 912 913 m 806 525 q 794 495 802 509 q 769 472 783 479 q 737 467 753 464 q 764 481 754 473 q 783 502 775 489 q 797 528 789 511 l 803 543 l 810 557 q 806 525 810 541 m 479 603 q 461 576 471 591 l 445 549 l 436 535 l 427 522 q 406 496 416 507 q 378 477 392 484 q 345 473 361 471 q 398 503 375 476 q 416 529 407 514 l 425 543 l 433 556 q 471 609 456 592 q 522 649 496 640 q 479 603 503 637 m 105 868 q 80 806 91 844 q 65 741 72 779 l 60 707 l 54 673 q 67 810 50 745 q 96 873 79 850 q 121 899 109 890 q 155 907 138 909 q 105 868 125 903 m 932 971 q 836 897 873 967 q 788 743 807 843 q 775 661 783 712 l 772 642 l 769 623 q 764 590 766 604 q 734 519 751 521 q 696 548 717 518 q 677 579 688 559 l 667 596 l 656 614 q 606 680 629 659 q 540 707 574 709 q 466 673 500 705 q 412 608 441 651 l 401 591 l 396 583 l 391 574 q 373 547 380 556 q 340 526 354 521 q 312 605 323 533 q 307 639 310 618 l 304 657 l 302 676 q 291 755 296 726 q 248 900 275 852 q 152 960 212 964 q 14 787 49 954 q 18 426 -16 637 q 147 98 52 208 q 335 13 231 2 q 421 54 386 18 q 488 161 452 86 q 532 228 517 220 q 580 181 554 239 q 818 0 663 -5 q 975 112 909 3 q 1078 462 1049 233 q 1068 831 1107 689 q 932 971 1027 977 z "},"x":{"ha":906,"x_min":-5,"x_max":871,"o":"m 487 879 q 452 810 471 859 l 445 791 l 438 772 q 424 734 430 748 q 401 700 414 712 q 366 680 387 684 q 415 738 399 694 l 421 757 l 427 776 q 439 814 434 800 q 456 851 448 834 q 479 886 467 872 q 512 911 494 902 q 551 920 532 920 q 487 879 513 913 m 112 874 q 90 852 98 864 q 67 791 74 829 q 79 859 57 827 q 107 883 91 875 q 142 888 124 891 q 112 874 125 883 m 568 547 q 549 586 538 561 q 593 642 555 602 l 601 650 l 609 659 q 625 677 618 669 q 656 716 644 698 q 694 810 690 764 q 669 913 701 870 q 592 966 641 954 q 496 956 543 979 q 415 870 444 931 q 391 810 401 842 q 382 786 387 800 l 379 775 l 376 766 q 363 738 370 746 q 342 726 355 728 q 314 757 329 724 q 308 772 311 763 l 304 781 l 301 791 q 285 830 292 815 q 235 905 262 878 q 150 940 199 939 q 66 910 103 941 q 20 829 29 879 q 35 716 8 775 q 138 588 64 649 q 164 528 174 558 q 115 452 159 510 q 0 159 -5 292 q 33 60 3 100 q 112 6 62 20 q 276 62 204 -20 q 354 218 331 124 l 355 223 l 357 229 l 359 240 q 368 264 363 254 q 390 302 378 292 q 477 210 425 327 q 562 89 511 133 q 661 41 608 48 q 753 58 711 33 q 819 130 796 81 q 798 359 871 241 q 568 547 726 474 z "},"y":{"ha":771,"x_min":-5,"x_max":706,"o":"m 477 801 q 465 785 472 795 l 452 770 q 427 738 437 749 q 393 713 410 721 q 353 706 374 704 q 419 745 391 709 l 431 760 l 443 777 q 467 809 458 798 q 526 867 495 843 q 562 888 545 880 q 602 895 585 897 q 564 882 583 892 q 532 859 548 873 q 477 801 500 830 m 77 907 q 64 886 68 899 q 57 861 60 878 l 53 833 q 47 861 47 846 q 52 890 47 877 q 71 915 58 907 q 100 920 85 924 q 77 907 86 916 m 675 717 q 701 844 706 787 q 664 924 696 897 q 586 945 632 951 q 489 897 537 939 q 436 842 460 871 q 417 819 427 831 q 409 808 414 814 l 406 803 l 402 798 q 378 769 386 777 q 353 758 366 758 q 308 796 339 758 q 294 814 302 803 l 286 824 l 279 834 q 245 877 258 861 q 73 968 150 989 q 22 932 42 958 q 0 862 3 903 q 85 631 -5 764 q 136 562 106 597 q 147 549 140 557 l 153 543 l 157 536 q 176 514 169 523 q 199 421 209 470 q 191 378 197 408 l 186 355 l 182 331 q 168 229 172 272 q 212 52 161 109 q 273 12 236 25 q 348 0 309 -2 q 421 21 388 3 q 477 76 456 41 q 503 220 505 123 q 502 265 503 236 l 500 290 l 500 314 q 502 424 498 375 q 522 489 504 457 q 564 547 534 510 l 571 555 l 577 563 q 591 579 585 572 q 619 617 607 600 q 675 717 652 664 z "},"z":{"ha":852,"x_min":-9,"x_max":789,"o":"m 606 271 l 594 271 l 571 271 l 559 271 l 547 271 l 535 271 l 524 271 q 475 272 496 271 q 523 281 495 277 l 534 282 l 547 283 q 570 284 560 285 l 595 283 q 619 279 610 281 q 664 260 646 273 q 617 269 642 266 l 606 271 m 218 484 q 146 429 178 460 q 89 359 113 398 q 54 275 63 319 q 62 321 54 294 q 80 364 67 339 q 137 438 101 404 q 213 492 173 473 l 254 514 l 275 524 l 296 534 l 277 521 l 258 508 l 218 484 m 228 892 q 166 863 191 880 q 128 807 136 841 q 137 842 129 826 q 160 870 146 859 q 224 905 184 892 q 366 919 288 924 l 330 914 l 296 908 q 228 892 257 901 m 558 330 q 526 328 544 330 q 496 326 515 328 q 442 322 456 323 q 391 336 391 320 q 452 393 389 356 q 482 411 464 401 l 498 420 l 516 430 q 589 473 561 455 q 727 585 680 530 q 787 739 789 658 q 694 899 784 838 q 454 969 604 960 q 185 939 283 979 q 77 812 85 899 q 150 692 68 731 q 225 669 182 677 q 299 663 260 663 q 343 663 318 663 l 353 664 l 361 664 q 377 665 371 665 q 411 654 408 665 q 397 640 412 648 q 349 617 388 635 q 315 601 330 608 q 273 581 293 591 q 172 524 222 554 q 61 420 106 482 q 3 290 14 357 q 24 159 -9 218 q 149 53 61 94 q 306 12 207 26 q 509 2 411 -5 q 687 43 620 9 q 772 155 765 83 q 713 291 781 243 q 558 330 652 334 z "},"{":{"ha":688,"x_min":0,"x_max":0,"o":""},"|":{"ha":307,"x_min":-1,"x_max":248,"o":"m 56 924 q 50 907 53 917 q 46 870 47 892 q 45 795 44 838 l 47 720 l 47 682 q 47 645 48 661 l 45 663 l 43 682 l 39 720 q 35 795 36 755 q 39 871 35 841 q 46 908 41 894 q 54 926 50 918 q 69 937 60 936 q 56 924 61 935 m 227 603 q 174 890 210 802 q 61 972 133 986 q 14 926 28 966 q 0 824 1 892 q 6 674 -1 773 q 9 631 7 658 l 11 608 l 12 585 q 18 488 16 529 q 21 294 23 404 q 20 252 21 278 l 20 232 l 20 213 q 19 144 19 170 q 34 45 21 77 q 85 1 49 8 q 217 177 180 -16 q 227 603 248 345 z "},"}":{"ha":688,"x_min":0,"x_max":0,"o":""},"~":{"ha":688,"x_min":0,"x_max":0,"o":""},"¡":{"ha":456,"x_min":0,"x_max":0,"o":""},"¢":{"ha":772,"x_min":0,"x_max":0,"o":""},"£":{"ha":688,"x_min":0,"x_max":0,"o":""},"¤":{"ha":688,"x_min":0,"x_max":0,"o":""},"¥":{"ha":856,"x_min":0,"x_max":0,"o":""},"¦":{"ha":688,"x_min":0,"x_max":0,"o":""},"§":{"ha":688,"x_min":0,"x_max":0,"o":""},"¨":{"ha":694,"x_min":0,"x_max":0,"o":""},"©":{"ha":1135,"x_min":0,"x_max":0,"o":""},"ª":{"ha":439,"x_min":0,"x_max":0,"o":""},"«":{"ha":946,"x_min":0,"x_max":902,"o":"m 158 635 q 87 568 118 604 l 83 564 l 79 559 l 73 549 q 66 540 69 545 l 60 529 q 54 518 57 525 l 52 513 l 49 507 q 47 502 47 505 l 45 496 l 42 484 q 55 532 44 509 q 66 553 62 546 l 73 564 l 77 569 l 81 574 q 152 644 108 610 q 237 693 193 674 q 334 714 292 716 l 321 712 l 315 711 l 309 710 l 303 709 l 298 707 q 286 704 290 706 q 241 686 264 697 q 158 635 195 663 m 281 488 q 319 523 284 500 l 327 528 l 335 532 q 352 543 346 539 q 387 567 372 556 q 426 709 473 633 q 323 755 395 759 q 181 707 258 751 q 54 601 105 663 q 0 474 0 534 q 59 363 0 425 q 194 262 114 306 q 341 213 276 218 q 438 256 414 207 q 439 342 460 301 q 380 407 424 374 q 343 432 366 417 l 334 437 l 326 443 q 311 454 317 449 q 281 488 278 476 m 587 635 q 517 568 547 604 l 513 564 l 509 559 l 502 549 q 495 540 498 545 l 489 529 q 483 518 486 525 l 481 513 l 478 507 q 476 502 477 505 l 475 496 l 471 484 q 484 532 473 509 q 496 553 491 546 l 503 564 l 507 569 l 510 574 q 581 644 538 610 q 667 693 622 674 q 763 714 721 716 l 751 712 l 745 711 l 739 710 l 733 709 l 727 707 q 715 704 720 706 q 670 686 694 697 q 587 635 625 663 m 710 488 q 748 523 713 500 l 756 528 l 764 532 q 781 543 775 539 q 816 567 802 556 q 855 709 902 633 q 753 755 825 759 q 610 707 688 751 q 484 601 534 663 q 429 474 429 534 q 488 363 429 425 q 623 262 543 306 q 770 213 706 218 q 867 256 844 207 q 869 342 890 301 q 810 407 853 374 q 772 432 795 417 l 764 437 l 755 443 q 740 454 746 449 q 710 488 707 476 z "},"¬":{"ha":688,"x_min":0,"x_max":0,"o":""},"®":{"ha":1135,"x_min":0,"x_max":0,"o":""},"¯":{"ha":454,"x_min":0,"x_max":0,"o":""},"°":{"ha":457,"x_min":0,"x_max":0,"o":""},"±":{"ha":688,"x_min":0,"x_max":0,"o":""},"²":{"ha":688,"x_min":0,"x_max":0,"o":""},"³":{"ha":688,"x_min":0,"x_max":0,"o":""},"´":{"ha":338,"x_min":-3,"x_max":275,"o":"m 85 954 q 54 900 67 934 q 76 963 50 935 q 104 983 89 977 q 138 985 122 989 q 85 954 108 978 m 138 1038 q 47 1000 87 1038 q 1 907 9 962 q 9 834 -3 869 q 46 774 20 800 q 57 713 65 755 l 56 705 l 54 696 q 52 682 52 688 q 57 659 50 667 q 106 650 74 641 q 172 692 138 660 q 267 872 253 768 q 236 990 275 940 q 138 1038 197 1039 z "},"µ":{"ha":800,"x_min":0,"x_max":0,"o":""},"¶":{"ha":694,"x_min":0,"x_max":0,"o":""},"·":{"ha":342,"x_min":-6,"x_max":279,"o":"m 127 549 q 96 494 109 528 q 117 557 92 529 q 146 577 130 572 q 180 581 164 585 q 127 549 150 572 m 139 634 q 48 595 87 634 q 1 501 9 557 q 22 399 -6 446 q 100 337 50 351 q 209 359 158 321 q 269 466 260 397 q 239 585 279 534 q 139 634 199 634 z "},"∙":{"ha":342,"x_min":-6,"x_max":279,"o":"m 127 549 q 96 494 109 528 q 117 557 92 529 q 146 577 130 572 q 180 581 164 585 q 127 549 150 572 m 139 634 q 48 595 87 634 q 1 501 9 557 q 22 399 -6 446 q 100 337 50 351 q 209 359 158 321 q 269 466 260 397 q 239 585 279 534 q 139 634 199 634 z "},"¸":{"ha":694,"x_min":0,"x_max":0,"o":""},"¹":{"ha":688,"x_min":0,"x_max":0,"o":""},"º":{"ha":487,"x_min":0,"x_max":0,"o":""},"»":{"ha":969,"x_min":-23,"x_max":899,"o":"m 646 441 q 624 420 638 431 q 600 403 614 412 l 587 395 l 574 387 q 526 352 541 365 q 506 331 512 340 q 499 303 498 319 q 501 333 494 318 q 519 358 507 345 q 568 395 535 374 l 581 404 l 593 412 q 619 427 610 421 q 659 470 650 448 q 646 441 656 456 m 555 710 q 526 707 536 709 q 503 695 510 705 q 492 668 494 682 q 496 699 488 682 q 508 712 499 707 q 524 718 515 716 q 556 718 539 721 q 586 709 572 716 l 555 710 m 461 713 q 460 626 439 667 q 519 562 475 594 q 556 536 533 551 l 565 531 l 573 526 q 589 515 583 519 q 618 480 621 492 q 581 446 615 468 l 572 441 l 564 436 q 547 425 553 429 q 513 401 527 412 q 473 259 427 336 q 576 213 504 209 q 718 262 641 217 q 844 368 794 306 q 899 494 899 434 q 840 605 899 543 q 705 705 785 663 q 558 755 623 750 q 461 713 485 762 m 197 441 q 174 420 189 431 q 150 403 165 412 l 137 395 l 124 387 q 76 352 91 365 q 56 331 62 340 q 50 303 48 319 q 52 333 44 318 q 70 358 57 345 q 119 395 85 374 l 131 404 l 144 412 q 170 427 161 421 q 209 470 201 448 q 197 441 207 456 m 106 710 q 77 707 86 709 q 54 695 60 705 q 42 668 45 682 q 46 699 39 682 q 58 712 50 707 q 75 718 65 716 q 106 718 90 721 q 137 709 123 716 l 106 710 m 12 713 q 10 626 -11 667 q 69 562 26 594 q 106 536 83 551 l 115 531 l 123 526 q 139 515 133 519 q 169 480 172 492 q 131 446 165 468 l 123 441 l 115 436 q 98 425 104 429 q 63 401 77 412 q 24 259 -23 336 q 126 213 54 209 q 269 262 191 217 q 395 368 345 306 q 450 494 450 434 q 391 605 450 543 q 256 705 336 663 q 109 755 174 750 q 12 713 35 762 z "},"¼":{"ha":1158,"x_min":0,"x_max":0,"o":""},"½":{"ha":1332,"x_min":0,"x_max":0,"o":""},"¾":{"ha":1158,"x_min":0,"x_max":0,"o":""},"¿":{"ha":507,"x_min":0,"x_max":0,"o":""},"À":{"ha":1044,"x_min":0,"x_max":0,"o":""},"Á":{"ha":1044,"x_min":0,"x_max":0,"o":""},"Â":{"ha":1044,"x_min":0,"x_max":0,"o":""},"Ã":{"ha":1044,"x_min":0,"x_max":0,"o":""},"Ä":{"ha":1044,"x_min":0,"x_max":0,"o":""},"Å":{"ha":1044,"x_min":0,"x_max":0,"o":""},"Æ":{"ha":1436,"x_min":0,"x_max":0,"o":""},"Ç":{"ha":949,"x_min":0,"x_max":0,"o":""},"È":{"ha":781,"x_min":0,"x_max":0,"o":""},"É":{"ha":781,"x_min":0,"x_max":0,"o":""},"Ê":{"ha":781,"x_min":0,"x_max":0,"o":""},"Ë":{"ha":781,"x_min":0,"x_max":0,"o":""},"Ì":{"ha":446,"x_min":0,"x_max":0,"o":""},"Í":{"ha":446,"x_min":0,"x_max":0,"o":""},"Î":{"ha":446,"x_min":0,"x_max":0,"o":""},"Ï":{"ha":446,"x_min":0,"x_max":0,"o":""},"Ð":{"ha":1029,"x_min":0,"x_max":0,"o":""},"Ñ":{"ha":1054,"x_min":0,"x_max":0,"o":""},"Ò":{"ha":1095,"x_min":0,"x_max":0,"o":""},"Ó":{"ha":1095,"x_min":0,"x_max":0,"o":""},"Ô":{"ha":1095,"x_min":0,"x_max":0,"o":""},"Õ":{"ha":1095,"x_min":0,"x_max":0,"o":""},"Ö":{"ha":1095,"x_min":0,"x_max":0,"o":""},"×":{"ha":688,"x_min":0,"x_max":0,"o":""},"Ø":{"ha":1095,"x_min":0,"x_max":0,"o":""},"Ù":{"ha":1018,"x_min":0,"x_max":0,"o":""},"Ú":{"ha":1018,"x_min":0,"x_max":0,"o":""},"Û":{"ha":1018,"x_min":0,"x_max":0,"o":""},"Ü":{"ha":1018,"x_min":0,"x_max":0,"o":""},"Ý":{"ha":836,"x_min":0,"x_max":0,"o":""},"Þ":{"ha":760,"x_min":0,"x_max":0,"o":""},"ß":{"ha":848,"x_min":0,"x_max":0,"o":""},"à":{"ha":625,"x_min":0,"x_max":0,"o":""},"á":{"ha":625,"x_min":0,"x_max":0,"o":""},"â":{"ha":625,"x_min":0,"x_max":0,"o":""},"ã":{"ha":625,"x_min":0,"x_max":0,"o":""},"ä":{"ha":625,"x_min":0,"x_max":0,"o":""},"å":{"ha":625,"x_min":0,"x_max":0,"o":""},"æ":{"ha":986,"x_min":0,"x_max":0,"o":""},"ç":{"ha":614,"x_min":0,"x_max":0,"o":""},"è":{"ha":616,"x_min":0,"x_max":0,"o":""},"é":{"ha":616,"x_min":0,"x_max":0,"o":""},"ê":{"ha":616,"x_min":0,"x_max":0,"o":""},"ë":{"ha":616,"x_min":0,"x_max":0,"o":""},"ì":{"ha":349,"x_min":0,"x_max":0,"o":""},"í":{"ha":349,"x_min":0,"x_max":0,"o":""},"î":{"ha":349,"x_min":0,"x_max":0,"o":""},"ï":{"ha":349,"x_min":0,"x_max":0,"o":""},"ð":{"ha":772,"x_min":0,"x_max":0,"o":""},"ñ":{"ha":751,"x_min":0,"x_max":0,"o":""},"ò":{"ha":685,"x_min":0,"x_max":0,"o":""},"ó":{"ha":685,"x_min":0,"x_max":0,"o":""},"ô":{"ha":685,"x_min":0,"x_max":0,"o":""},"õ":{"ha":685,"x_min":0,"x_max":0,"o":""},"ö":{"ha":685,"x_min":0,"x_max":0,"o":""},"÷":{"ha":688,"x_min":0,"x_max":0,"o":""},"ø":{"ha":685,"x_min":0,"x_max":0,"o":""},"ù":{"ha":718,"x_min":0,"x_max":0,"o":""},"ú":{"ha":718,"x_min":0,"x_max":0,"o":""},"û":{"ha":718,"x_min":0,"x_max":0,"o":""},"ü":{"ha":718,"x_min":0,"x_max":0,"o":""},"ý":{"ha":589,"x_min":0,"x_max":0,"o":""},"þ":{"ha":685,"x_min":0,"x_max":0,"o":""},"ÿ":{"ha":589,"x_min":0,"x_max":0,"o":""},"ı":{"ha":349,"x_min":0,"x_max":0,"o":""},"ˆ":{"ha":694,"x_min":0,"x_max":0,"o":""},"ˇ":{"ha":694,"x_min":0,"x_max":0,"o":""},"ˉ":{"ha":694,"x_min":0,"x_max":0,"o":""},"˘":{"ha":694,"x_min":0,"x_max":0,"o":""},"˙":{"ha":694,"x_min":0,"x_max":0,"o":""},"˚":{"ha":694,"x_min":0,"x_max":0,"o":""},"˛":{"ha":694,"x_min":0,"x_max":0,"o":""},"˜":{"ha":694,"x_min":0,"x_max":0,"o":""},"˝":{"ha":694,"x_min":0,"x_max":0,"o":""},"–":{"ha":612,"x_min":-7,"x_max":541,"o":"m 428 538 q 397 529 412 536 l 389 526 l 382 522 q 365 517 372 518 q 330 513 348 512 l 347 519 q 362 525 356 522 l 370 528 l 377 532 q 393 540 385 536 q 427 547 411 547 q 461 538 448 548 q 428 538 446 542 m 117 519 q 90 517 101 518 q 64 513 73 515 q 53 507 56 510 q 46 495 50 504 q 48 510 45 504 q 60 521 52 516 q 88 528 71 526 q 117 528 105 530 q 145 522 134 526 q 117 519 133 519 m 360 569 q 269 557 332 554 q 212 562 248 558 l 182 565 q 154 568 166 566 q 53 562 87 572 q 1 502 8 547 q 54 401 -7 444 q 204 346 111 361 q 379 347 296 331 q 509 409 469 363 q 540 482 538 441 q 518 551 541 521 q 454 587 494 581 q 360 569 411 595 z "},"—":{"ha":746,"x_min":-7,"x_max":681,"o":"m 572 562 q 525 558 549 562 q 478 549 507 556 l 454 543 q 430 541 439 541 q 452 549 439 543 l 464 553 l 475 557 q 523 570 498 566 q 572 571 551 574 q 618 553 602 568 q 572 562 601 561 m 96 545 l 83 543 q 58 536 68 541 q 41 519 45 530 q 54 544 37 534 q 80 554 64 551 q 136 553 109 559 q 122 550 130 551 l 109 547 l 96 545 m 446 589 q 330 582 410 576 q 259 589 307 584 l 223 592 q 187 595 203 594 q 62 589 104 601 q 1 525 7 573 q 70 421 -7 464 q 255 370 140 383 q 470 374 367 357 q 630 435 580 391 q 673 507 666 468 q 658 574 681 545 q 582 610 633 604 q 446 589 524 616 z "},"‘":{"ha":340,"x_min":-7,"x_max":275,"o":"m 125 937 q 96 896 108 916 q 55 804 71 855 q 85 903 54 854 q 160 975 117 954 q 125 937 144 960 m 214 1026 q 164 1035 197 1045 q 98 993 132 1025 q 1 810 15 916 q 33 691 -7 741 q 132 642 72 642 q 224 681 184 642 q 271 775 263 719 q 263 849 275 812 q 225 909 251 884 q 214 972 206 928 l 216 980 l 218 988 q 220 1003 219 997 q 214 1026 221 1019 z "},"’":{"ha":340,"x_min":-3,"x_max":275,"o":"m 85 954 q 54 900 67 934 q 76 963 50 935 q 104 983 89 977 q 138 985 122 989 q 85 954 108 978 m 138 1038 q 47 1000 87 1038 q 1 907 9 962 q 9 834 -3 869 q 46 774 20 800 q 57 713 65 755 l 56 705 l 54 696 q 52 682 52 688 q 57 659 50 667 q 106 650 74 641 q 172 692 138 660 q 267 872 253 768 q 236 990 275 940 q 138 1038 197 1039 z "},"‚":{"ha":404,"x_min":-1,"x_max":281,"o":"m 90 217 q 58 163 71 197 q 79 227 54 198 q 108 246 92 240 q 142 249 126 253 q 90 217 112 241 m 142 303 q 51 264 90 302 q 4 170 12 226 q 12 96 -1 132 q 50 36 24 61 q 60 -26 68 17 l 59 -35 l 57 -43 q 55 -58 56 -52 q 60 -81 54 -73 q 111 -90 77 -100 q 176 -47 142 -80 q 273 134 259 29 q 241 254 281 203 q 142 303 202 303 z "},"“":{"ha":657,"x_min":-7,"x_max":591,"o":"m 125 937 q 96 896 108 916 q 55 804 71 855 q 85 903 54 854 q 160 975 117 954 q 125 937 144 960 m 214 1026 q 164 1035 197 1045 q 98 993 132 1025 q 1 810 15 916 q 33 691 -7 741 q 132 642 72 642 q 224 681 184 642 q 271 775 263 719 q 263 849 275 812 q 225 909 251 884 q 214 972 206 928 l 216 980 l 218 988 q 220 1003 219 997 q 214 1026 221 1019 m 441 937 q 412 896 424 916 q 371 804 387 855 q 400 903 370 854 q 476 975 433 954 q 441 937 460 960 m 541 909 q 530 972 522 928 l 532 980 l 534 988 q 536 1003 535 997 q 530 1026 537 1019 q 480 1035 513 1045 q 414 993 448 1025 q 317 810 331 916 q 349 691 309 741 q 448 642 388 642 q 540 681 500 642 q 587 775 579 719 q 579 849 591 812 q 541 909 567 884 z "},"”":{"ha":650,"x_min":-3,"x_max":587,"o":"m 85 954 q 54 900 67 934 q 76 963 50 935 q 104 983 89 977 q 138 985 122 989 q 85 954 108 978 m 138 1038 q 47 1000 87 1038 q 1 907 9 962 q 9 834 -3 869 q 46 774 20 800 q 57 713 65 755 l 56 705 l 54 696 q 52 682 52 688 q 57 659 50 667 q 106 650 74 641 q 172 692 138 660 q 267 872 253 768 q 236 990 275 940 q 138 1038 197 1039 m 397 954 q 366 900 379 934 q 387 963 362 935 q 416 983 400 977 q 449 985 433 989 q 397 954 419 978 m 449 1038 q 359 1000 398 1038 q 313 907 320 962 q 320 834 308 869 q 357 774 332 800 q 368 713 376 755 l 367 705 l 366 696 q 363 682 363 688 q 368 659 362 667 q 418 650 385 641 q 484 692 449 660 q 578 872 565 768 q 547 990 587 940 q 449 1038 509 1039 z "},"„":{"ha":650,"x_min":-3,"x_max":587,"o":"m 85 219 q 54 165 67 199 q 76 229 50 200 q 104 248 89 242 q 138 251 122 255 q 85 219 108 243 m 138 304 q 47 265 87 304 q 1 173 9 228 q 9 100 -3 135 q 46 40 20 65 q 57 -22 65 21 l 56 -30 l 54 -38 q 52 -52 52 -47 q 57 -75 50 -68 q 106 -84 74 -94 q 172 -43 138 -75 q 267 138 253 33 q 236 256 275 205 q 138 304 197 304 m 397 219 q 366 165 379 199 q 387 229 362 200 q 416 248 400 242 q 449 251 433 255 q 397 219 419 243 m 449 304 q 359 265 398 304 q 313 173 320 228 q 320 100 308 135 q 357 40 332 65 q 368 -22 376 21 l 367 -30 l 366 -38 q 363 -52 363 -47 q 368 -75 362 -68 q 418 -84 385 -94 q 484 -43 449 -75 q 578 138 565 33 q 547 256 587 205 q 449 304 509 304 z "},"†":{"ha":688,"x_min":0,"x_max":0,"o":""},"‡":{"ha":688,"x_min":0,"x_max":0,"o":""},"•":{"ha":694,"x_min":0,"x_max":0,"o":""},"…":{"ha":1389,"x_min":0,"x_max":0,"o":""},"‹":{"ha":520,"x_min":0,"x_max":473,"o":"m 158 635 q 87 569 118 605 l 83 565 l 79 560 l 73 550 q 66 541 69 546 l 60 530 q 54 519 57 526 l 52 513 l 49 508 q 47 503 47 505 l 45 496 l 42 484 q 55 532 44 510 q 66 554 62 547 l 73 564 l 77 570 l 81 574 q 152 644 108 610 q 237 694 193 675 q 334 715 292 717 l 321 713 l 315 712 l 309 711 l 303 709 l 298 708 q 286 705 290 707 q 241 686 264 698 q 158 635 195 663 m 281 489 q 319 524 284 501 l 327 528 l 335 533 q 352 544 346 540 q 387 568 372 557 q 426 710 473 633 q 323 755 395 760 q 181 707 258 752 q 54 602 105 663 q 0 475 0 534 q 59 364 0 426 q 194 263 114 307 q 341 214 276 219 q 438 256 414 208 q 439 343 460 302 q 380 408 424 374 q 343 433 366 418 l 334 438 l 326 444 q 311 454 317 450 q 281 489 278 477 z "},"›":{"ha":520,"x_min":-23,"x_max":451,"o":"m 197 440 q 175 418 189 429 q 150 401 165 410 l 137 393 l 125 385 q 76 350 92 363 q 56 328 62 338 q 50 300 48 317 q 52 331 44 315 q 71 356 58 343 q 119 393 86 372 l 132 401 l 144 410 q 170 425 161 419 q 210 468 201 446 q 197 440 208 454 m 106 709 q 77 707 87 709 q 54 694 60 704 q 42 667 45 680 q 47 699 39 681 q 59 711 50 706 q 75 718 65 715 q 107 718 90 720 q 137 708 123 715 l 106 709 m 12 712 q 10 625 -11 666 q 70 560 26 593 q 106 535 84 549 l 115 529 l 124 524 q 140 513 134 517 q 170 478 172 491 q 131 444 166 466 l 123 439 l 115 434 q 98 423 104 427 q 64 399 77 410 q 24 256 -23 333 q 127 210 54 206 q 269 259 192 214 q 396 366 346 303 q 451 492 451 433 q 392 604 451 541 q 256 705 337 661 q 109 755 174 749 q 12 712 35 760 z "},"⁄":{"ha":739,"x_min":-7,"x_max":689,"o":"m 576 922 q 560 909 568 917 q 532 876 548 897 q 485 806 511 846 l 439 733 l 416 696 q 393 661 404 676 l 402 680 l 412 699 l 432 737 q 475 812 451 773 q 526 882 504 856 q 557 913 543 902 q 575 924 566 920 q 597 926 587 930 q 576 922 587 928 m 611 964 q 538 951 576 979 q 460 861 504 926 q 372 715 427 813 q 347 672 362 699 l 334 649 l 321 627 q 267 530 290 570 q 146 343 218 447 q 119 304 136 328 l 106 285 l 94 267 q 51 202 66 227 q 2 98 9 137 q 24 25 -7 54 q 260 109 103 -52 q 537 509 395 250 q 667 815 646 708 q 611 964 689 932 z "},"∕":{"ha":739,"x_min":-7,"x_max":689,"o":"m 576 922 q 560 909 568 917 q 532 876 548 897 q 485 806 511 846 l 439 733 l 416 696 q 393 661 404 676 l 402 680 l 412 699 l 432 737 q 475 812 451 773 q 526 882 504 856 q 557 913 543 902 q 575 924 566 920 q 597 926 587 930 q 576 922 587 928 m 611 964 q 538 951 576 979 q 460 861 504 926 q 372 715 427 813 q 347 672 362 699 l 334 649 l 321 627 q 267 530 290 570 q 146 343 218 447 q 119 304 136 328 l 106 285 l 94 267 q 51 202 66 227 q 2 98 9 137 q 24 25 -7 54 q 260 109 103 -52 q 537 509 395 250 q 667 815 646 708 q 611 964 689 932 z "},"₣":{"ha":688,"x_min":0,"x_max":0,"o":""},"₤":{"ha":688,"x_min":0,"x_max":0,"o":""},"₧":{"ha":1375,"x_min":0,"x_max":0,"o":""},"€":{"ha":688,"x_min":0,"x_max":0,"o":""},"№":{"ha":1540,"x_min":0,"x_max":0,"o":""},"™":{"ha":1015,"x_min":0,"x_max":0,"o":""},"∂":{"ha":688,"x_min":0,"x_max":0,"o":""},"∆":{"ha":733,"x_min":0,"x_max":0,"o":""},"∏":{"ha":1027,"x_min":0,"x_max":0,"o":""},"∑":{"ha":818,"x_min":0,"x_max":0,"o":""},"−":{"ha":749,"x_min":-7,"x_max":681,"o":"m 572 562 q 525 558 549 562 q 478 549 507 556 l 454 543 q 430 541 439 541 q 452 549 439 543 l 464 553 l 475 557 q 523 570 498 566 q 572 571 551 574 q 618 553 602 568 q 572 562 601 561 m 96 545 l 83 543 q 58 536 68 541 q 41 519 45 530 q 54 544 37 534 q 80 554 64 551 q 136 553 109 559 q 122 550 130 551 l 109 547 l 96 545 m 446 589 q 330 582 410 576 q 259 589 307 584 l 223 592 q 187 595 203 594 q 62 589 104 601 q 1 525 7 573 q 70 421 -7 464 q 255 370 140 383 q 470 374 367 357 q 630 435 580 391 q 673 507 666 468 q 658 574 681 545 q 582 610 633 604 q 446 589 524 616 z "},"√":{"ha":688,"x_min":0,"x_max":0,"o":""},"∞":{"ha":688,"x_min":0,"x_max":0,"o":""},"∫":{"ha":451,"x_min":0,"x_max":0,"o":""},"≈":{"ha":688,"x_min":0,"x_max":0,"o":""},"≤":{"ha":688,"x_min":0,"x_max":0,"o":""},"≥":{"ha":688,"x_min":0,"x_max":0,"o":""},"":{"ha":728,"x_min":0,"x_max":0,"o":""},"ﬁ":{"ha":728,"x_min":0,"x_max":0,"o":""},"":{"ha":733,"x_min":0,"x_max":0,"o":""},"ﬂ":{"ha":733,"x_min":0,"x_max":0,"o":""},"А":{"ha":842,"x_min":-12,"x_max":781,"o":"m 473 370 q 444 355 458 359 q 411 354 427 350 q 465 380 441 361 q 506 425 484 395 q 473 370 501 392 m 399 408 q 379 434 384 415 q 382 473 374 453 q 407 505 390 494 q 439 509 424 515 q 460 484 455 503 q 457 444 465 465 q 432 412 449 423 q 399 408 415 402 m 290 773 q 228 679 264 738 q 199 630 216 658 l 171 581 q 219 684 191 630 q 279 781 245 733 q 355 867 319 835 l 366 877 q 376 886 372 882 l 388 895 l 400 902 q 455 918 433 919 q 404 897 432 916 l 393 888 l 382 879 q 372 870 377 876 l 361 860 q 290 773 327 824 m 471 969 q 272 848 382 983 q 94 536 173 726 q 2 201 15 347 q 64 11 -12 40 q 176 12 122 -12 q 262 78 217 30 q 281 99 271 87 l 299 119 q 332 157 321 146 q 392 195 368 195 q 454 159 417 195 q 488 123 466 148 l 507 104 l 525 85 q 608 23 571 39 q 707 24 658 2 q 774 197 766 51 q 743 509 781 334 q 636 815 704 691 q 471 969 559 955 z "},"Б":{"ha":753,"x_min":-4,"x_max":690,"o":"m 496 282 q 463 248 484 259 q 418 240 441 236 q 458 257 440 244 q 485 288 475 269 q 497 328 494 305 q 496 372 500 348 q 507 328 507 351 q 496 282 507 303 m 373 332 q 372 371 366 353 q 394 395 378 389 q 425 389 410 399 q 448 356 441 377 q 449 317 455 335 q 427 293 443 298 q 396 299 412 288 q 373 332 380 311 m 131 796 q 81 688 103 755 q 54 571 66 640 q 60 631 56 599 q 72 691 65 665 q 120 803 89 755 q 161 850 138 830 q 211 884 184 870 q 268 907 239 899 q 328 917 300 916 q 216 876 264 905 q 131 796 159 842 m 370 585 q 322 626 330 587 q 324 658 319 642 q 342 684 330 674 q 421 714 370 706 q 467 720 439 718 l 490 722 l 512 724 q 589 742 564 729 q 627 798 622 759 q 583 902 635 856 q 453 963 534 946 q 283 961 368 980 q 123 876 189 939 q 28 703 60 818 q 1 467 -4 593 q 48 231 5 336 q 175 64 94 117 q 326 4 245 17 q 477 14 405 -7 q 602 90 551 37 q 675 225 656 145 q 681 342 690 284 q 637 454 671 405 q 370 585 557 572 z "},"В":{"ha":763,"x_min":-3,"x_max":699,"o":"m 489 311 q 456 277 477 288 q 410 269 434 264 q 450 285 433 273 q 477 317 468 298 q 484 401 495 352 q 498 357 496 382 q 489 311 500 333 m 363 351 q 355 391 353 371 q 371 418 357 410 q 403 418 385 427 q 433 391 421 410 q 441 351 444 371 q 425 323 439 332 q 393 323 411 315 q 363 351 375 332 m 304 633 q 334 645 320 637 q 358 664 348 654 q 378 689 368 674 q 391 718 385 702 q 368 655 395 684 q 338 636 354 642 q 304 633 320 629 m 290 731 q 309 750 297 745 q 330 750 321 755 q 340 732 339 745 q 334 706 342 719 q 315 687 327 692 q 294 687 303 682 q 283 705 285 692 q 290 731 282 718 m 174 852 q 141 810 158 836 q 94 716 115 772 q 62 614 77 672 q 84 720 67 666 q 131 818 101 773 q 209 894 165 869 q 260 916 236 909 q 313 920 288 922 q 214 886 258 916 q 174 852 192 871 m 466 593 q 461 616 454 598 q 471 635 464 622 l 475 641 l 478 647 q 486 661 482 654 q 511 732 504 698 q 513 831 522 780 q 448 928 504 888 q 320 971 393 969 q 173 926 241 973 q 51 762 96 872 q 1 512 5 647 q 38 259 -3 374 q 170 66 83 134 q 406 1 268 -8 q 614 86 537 9 q 692 259 686 155 q 642 451 699 361 q 466 593 581 548 z "},"Г":{"ha":728,"x_min":-9,"x_max":663,"o":"m 265 905 q 210 884 236 897 q 117 817 153 857 q 87 768 100 798 q 70 713 79 747 q 59 655 63 686 q 55 625 57 642 l 52 596 q 60 715 50 659 q 107 825 75 787 q 207 893 147 869 q 264 911 234 904 q 323 918 296 918 q 265 905 288 912 m 658 817 q 587 918 653 876 q 429 970 524 959 q 241 955 332 981 q 77 859 140 926 q 4 661 19 797 q 18 391 -9 536 q 98 141 44 245 q 228 8 157 29 q 373 59 330 -22 q 387 250 410 131 q 378 296 384 267 q 372 321 376 304 l 368 336 l 366 350 q 341 469 349 423 q 353 654 317 616 q 425 679 369 672 q 450 682 435 680 l 477 684 q 531 690 511 687 q 624 724 594 699 q 658 817 663 755 z "},"Д":{"ha":1137,"x_min":-11,"x_max":1091,"o":"m 659 338 q 634 299 653 314 q 592 281 616 286 q 548 281 570 277 q 589 291 574 286 q 626 309 612 298 q 649 341 641 321 q 659 382 655 356 q 659 338 665 359 m 487 355 q 496 432 474 379 q 545 486 518 486 q 597 428 578 485 q 607 383 606 405 q 602 349 608 360 q 545 334 591 333 q 487 355 499 334 m 395 793 q 342 702 367 752 q 300 604 323 663 q 333 706 312 654 q 385 801 353 753 q 456 881 419 851 q 503 909 478 897 q 555 919 530 920 q 463 873 509 913 q 395 793 427 840 m 96 262 q 70 245 80 254 q 53 220 58 235 q 63 253 50 237 q 90 274 72 264 q 155 290 121 290 l 140 283 l 125 276 q 96 262 106 269 m 921 343 q 882 365 894 351 q 866 404 870 378 q 860 465 863 418 q 857 507 859 489 q 850 556 854 532 q 740 867 821 757 q 559 971 663 968 q 383 875 469 973 q 250 619 296 776 q 221 492 232 557 q 217 469 219 481 l 216 457 l 214 447 q 208 411 210 422 q 189 363 201 378 q 144 340 176 347 q 21 277 56 322 q 5 178 -11 236 q 189 50 28 97 q 547 1 332 7 q 848 14 743 -3 q 1049 117 1004 39 q 1054 254 1091 191 q 921 343 1017 316 z "},"Е":{"ha":730,"x_min":-5,"x_max":665,"o":"m 458 281 l 448 277 q 428 272 436 273 q 385 271 404 267 q 425 281 406 275 l 435 286 l 444 289 q 465 296 456 294 q 507 306 488 304 q 549 306 531 309 q 469 284 514 298 l 458 281 m 262 911 q 206 888 231 903 q 157 852 177 871 q 121 804 138 833 q 78 689 97 760 q 65 629 71 661 q 60 598 62 616 l 55 567 q 68 691 56 632 q 110 810 83 760 q 149 861 128 842 q 201 897 174 884 q 261 917 229 911 q 323 921 294 923 q 262 911 288 918 m 393 551 l 397 552 q 409 555 404 554 q 433 554 422 557 q 452 542 446 551 q 431 544 444 544 q 411 542 420 543 l 406 541 l 401 541 q 389 539 394 539 q 366 542 376 538 l 377 545 l 387 549 l 393 551 m 423 331 q 363 327 388 317 q 336 355 342 334 q 342 393 330 375 q 378 414 353 411 q 486 452 451 420 q 515 527 518 481 q 475 589 513 569 q 385 597 437 610 q 327 621 340 585 q 326 651 322 635 q 344 677 331 667 q 402 696 363 691 q 438 699 416 698 l 456 700 l 475 701 q 545 715 520 705 q 593 760 579 729 q 573 869 617 814 q 452 951 532 921 q 281 971 367 981 q 117 895 184 959 q 24 708 54 836 q 1 448 -5 590 q 44 197 7 307 q 148 38 84 79 q 302 0 211 -3 q 471 40 386 3 q 608 131 555 76 q 665 248 664 189 q 604 349 665 326 q 423 331 538 374 z "},"Ё":{"ha":730,"x_min":-5,"x_max":665,"o":"m 458 281 l 448 277 q 427 271 436 273 q 385 270 404 267 q 425 281 406 274 l 434 285 l 444 289 q 465 296 456 294 q 506 306 487 304 q 549 305 531 309 q 468 284 514 298 l 458 281 m 262 910 q 206 888 231 902 q 157 851 177 871 q 121 803 138 832 q 79 688 97 759 q 65 628 71 661 q 60 597 62 616 l 55 567 q 68 691 56 632 q 111 810 83 759 q 149 861 128 841 q 201 897 174 883 q 261 916 229 910 q 323 920 294 922 q 262 910 288 918 m 392 550 l 397 552 q 409 555 404 553 q 433 553 422 556 q 452 541 446 550 q 431 543 444 543 q 411 541 420 543 l 406 541 l 400 540 q 389 538 393 538 q 366 541 376 538 l 377 545 l 387 549 l 392 550 m 423 331 q 363 326 387 317 q 336 355 342 334 q 341 392 330 375 q 378 413 353 411 q 486 452 450 420 q 515 527 517 481 q 475 589 513 568 q 385 596 437 610 q 327 621 339 585 q 326 650 322 635 q 344 676 331 667 q 401 696 363 690 q 438 699 415 697 l 456 699 l 475 701 q 545 715 520 704 q 593 760 579 728 q 573 868 616 813 q 451 950 532 920 q 281 970 367 981 q 117 895 184 958 q 24 707 54 836 q 1 448 -5 589 q 44 197 7 307 q 148 38 84 79 q 302 0 211 -3 q 471 40 386 3 q 608 131 555 76 q 664 248 664 189 q 603 349 665 326 q 423 331 538 374 m 247 1083 q 251 1086 249 1085 q 256 1087 254 1088 q 256 1082 256 1085 l 256 1081 l 256 1079 l 256 1076 l 256 1073 q 251 1059 255 1065 q 243 1074 242 1063 q 247 1083 244 1080 m 280 986 q 323 1019 309 991 q 328 1082 338 1048 q 288 1133 317 1117 q 233 1135 260 1147 q 201 1097 210 1124 q 201 1043 192 1071 q 232 998 210 1015 q 280 986 255 982 m 435 1120 q 448 1130 441 1127 q 465 1129 458 1133 q 454 1121 459 1126 q 445 1112 448 1116 q 437 1101 441 1107 l 433 1095 l 428 1088 q 435 1120 422 1105 m 439 989 q 511 1003 477 979 q 550 1072 544 1027 q 530 1150 556 1117 q 465 1182 505 1182 q 406 1156 432 1182 q 376 1095 380 1132 q 389 1029 371 1059 q 439 989 408 998 z "},"Ж":{"ha":1170,"x_min":-2,"x_max":1105,"o":"m 821 823 q 841 857 829 842 q 871 884 855 876 q 910 892 892 896 q 877 876 892 888 q 851 850 863 865 q 830 819 842 837 l 821 802 l 810 785 q 821 823 813 804 m 553 916 q 541 910 547 913 q 519 893 528 903 q 497 841 507 878 q 496 872 493 856 q 509 901 498 888 q 536 920 521 915 q 553 922 544 922 q 568 920 559 922 l 560 918 l 553 916 m 309 496 q 288 480 301 488 l 277 474 l 265 468 q 182 412 220 442 q 111 341 142 380 q 60 254 80 302 q 77 302 66 277 q 103 347 90 327 q 174 422 130 386 q 261 477 216 456 l 273 482 l 284 488 q 304 500 297 494 q 329 543 326 517 q 309 496 330 517 m 136 856 q 123 823 127 842 q 119 785 119 808 q 125 863 102 825 q 154 890 137 882 q 193 897 174 901 q 136 856 156 889 m 854 538 q 837 566 825 553 q 886 597 841 571 q 923 622 907 610 q 961 655 944 637 q 1021 760 1004 700 q 1018 865 1037 817 q 960 931 1000 910 q 876 938 919 953 q 791 865 827 922 q 751 766 765 821 q 729 713 742 726 q 717 728 717 699 q 674 916 717 854 q 549 970 631 979 q 500 953 523 968 q 460 909 475 937 q 469 739 427 842 q 471 706 479 712 q 439 715 462 701 q 329 852 385 753 q 241 939 293 916 q 149 940 195 958 q 82 878 105 922 q 68 775 57 831 q 125 665 80 713 q 210 597 156 631 q 229 586 217 593 l 237 581 l 246 576 q 271 558 264 564 q 259 528 288 542 q 35 325 103 454 q 0 204 2 264 q 28 91 -2 142 q 101 27 56 45 q 193 22 145 9 q 282 80 243 36 q 345 203 325 128 q 421 357 379 328 q 446 360 437 368 q 452 334 455 353 l 451 332 l 450 330 q 449 323 450 326 q 446 307 448 315 q 439 264 442 286 q 433 156 431 204 q 541 1 441 10 q 665 60 616 -7 q 725 241 713 124 q 739 267 728 275 q 747 255 743 263 q 752 241 750 248 q 759 216 755 229 q 825 87 783 137 q 912 28 864 42 q 1001 33 958 15 q 1073 96 1044 51 q 1104 208 1105 146 q 1073 330 1103 268 q 854 538 1008 460 z "},"З":{"ha":751,"x_min":-6,"x_max":690,"o":"m 353 561 q 305 535 334 545 q 258 515 275 526 q 231 475 233 499 q 235 502 229 488 q 252 524 241 514 q 301 547 269 536 q 347 569 326 555 q 383 605 371 585 q 353 561 376 580 m 161 254 q 103 256 125 257 q 77 248 85 254 q 69 238 72 245 l 67 231 l 65 224 q 66 239 65 233 q 73 253 67 248 q 102 265 82 262 q 162 267 125 269 q 220 258 185 264 l 250 254 l 279 249 q 220 248 254 246 l 190 251 l 161 254 m 208 885 q 138 851 165 867 q 107 829 123 842 q 79 804 93 819 q 52 734 51 771 q 54 774 48 753 q 72 810 59 793 q 132 862 92 838 q 281 911 200 903 q 208 885 243 899 m 634 410 q 594 453 616 434 q 558 479 578 466 l 551 484 l 544 488 q 532 496 536 493 q 521 513 522 504 q 537 541 519 524 q 556 559 543 547 l 562 564 l 568 568 l 579 579 q 625 631 608 606 q 654 704 648 666 q 612 873 671 802 q 423 966 551 947 q 283 964 360 977 q 142 919 207 951 q 35 839 72 885 q 1 728 -6 787 q 250 643 19 582 q 312 650 288 652 q 336 636 333 648 q 326 612 340 625 q 282 589 311 598 q 179 473 176 554 q 208 407 181 433 q 286 381 238 379 q 347 353 334 382 q 346 329 351 341 q 326 309 340 316 q 247 302 302 298 q 222 305 237 303 l 197 308 q 146 313 165 312 q 58 301 88 316 q 14 229 19 281 q 71 111 8 168 q 224 26 129 58 q 414 1 321 -5 q 581 56 516 7 q 681 236 671 126 q 634 410 690 335 z "},"И":{"ha":918,"x_min":-6,"x_max":849,"o":"m 532 862 q 495 813 514 842 q 440 705 463 763 l 429 676 l 418 647 q 397 589 405 608 q 366 534 380 552 q 340 517 354 522 q 309 513 327 511 q 338 519 327 514 q 361 539 351 526 q 387 593 374 556 l 397 622 l 407 651 q 428 709 418 686 q 487 819 453 772 q 577 903 532 880 q 532 862 552 886 m 83 705 q 66 606 73 664 l 60 556 l 54 507 q 87 770 47 654 q 103 812 95 793 q 127 853 115 836 q 203 896 160 899 q 118 821 151 891 q 96 760 106 795 q 89 731 92 747 l 85 718 l 84 711 l 83 705 m 705 948 q 537 940 623 998 q 412 787 467 892 q 378 709 395 753 q 364 671 372 692 l 358 653 l 355 645 l 352 637 q 332 585 339 600 q 313 566 322 566 q 294 593 295 568 q 304 698 293 616 q 285 908 326 847 q 180 947 252 956 q 43 783 94 935 q 1 425 -6 636 q 231 5 13 35 q 358 35 295 -3 q 459 136 418 71 q 522 240 496 192 q 539 277 531 258 q 551 303 545 288 q 566 332 562 328 q 579 337 570 339 q 581 281 588 334 l 580 268 l 578 255 q 574 227 576 238 q 570 165 570 191 q 688 0 566 -1 q 810 133 766 1 q 849 433 848 252 q 812 753 849 610 q 705 948 772 907 z "},"Й":{"ha":919,"x_min":-6,"x_max":850,"o":"m 532 863 q 496 814 515 843 q 441 705 464 764 l 430 677 l 419 648 q 397 590 406 609 q 366 536 381 553 q 340 517 354 523 q 309 514 328 512 q 339 520 328 515 q 361 540 351 527 q 388 593 374 557 l 397 623 l 408 652 q 429 711 419 687 q 488 820 454 774 q 578 904 532 881 q 532 863 553 887 m 83 706 q 66 607 73 665 l 60 557 l 54 507 q 87 772 47 656 q 104 813 96 795 q 127 854 115 838 q 203 897 160 900 q 118 823 151 892 q 96 762 106 797 q 89 732 93 748 l 85 719 l 84 712 l 83 706 m 707 949 q 538 941 623 1000 q 413 789 467 894 q 378 709 395 755 q 365 672 372 693 l 359 654 l 355 646 l 353 637 q 332 586 340 600 q 313 567 322 566 q 294 594 296 568 q 305 699 294 618 q 285 909 327 848 q 181 949 252 958 q 43 785 94 937 q 1 425 -6 637 q 232 5 13 35 q 359 35 296 -3 q 460 136 418 71 q 522 241 496 193 q 540 277 532 259 q 552 303 546 289 q 566 333 563 329 q 580 338 571 340 q 582 281 589 335 l 581 269 l 578 255 q 575 227 576 239 q 571 165 572 192 q 688 0 567 -1 q 811 134 767 1 q 850 433 850 252 q 813 754 850 610 q 707 949 773 909 m 347 1064 q 410 1078 382 1068 q 465 1109 442 1090 q 477 1120 471 1114 l 489 1131 l 495 1137 q 502 1142 498 1141 q 511 1145 506 1144 l 515 1145 l 519 1145 l 515 1144 l 511 1143 q 504 1139 507 1141 q 498 1134 501 1137 l 494 1127 q 472 1101 481 1110 q 445 1080 461 1090 q 414 1066 432 1073 q 347 1054 382 1055 l 330 1054 l 314 1055 q 282 1050 292 1055 q 297 1058 288 1055 l 305 1060 l 313 1061 l 347 1064 m 600 1111 q 569 1180 600 1156 q 499 1196 539 1205 q 452 1166 474 1190 l 444 1156 q 434 1146 439 1150 q 409 1128 422 1135 q 363 1114 388 1118 q 343 1112 355 1113 l 333 1112 l 323 1112 q 252 1094 275 1110 q 226 1048 228 1078 q 238 998 224 1023 q 321 946 260 959 q 443 950 378 935 q 553 1006 510 967 q 600 1111 600 1050 z "},"К":{"ha":791,"x_min":-10,"x_max":724,"o":"m 448 760 q 395 702 421 725 q 329 660 361 672 q 388 709 355 676 q 439 768 414 736 q 462 798 451 783 l 468 806 l 473 814 q 486 830 480 824 q 517 854 500 846 q 556 862 538 864 q 494 823 521 859 q 483 808 489 818 l 477 800 l 472 791 q 448 760 463 778 m 181 908 q 155 884 168 899 q 121 824 138 863 q 96 757 111 800 l 86 722 l 76 688 q 87 760 79 730 q 109 829 96 798 q 148 891 127 869 q 178 913 161 905 q 214 920 197 922 q 181 908 195 918 m 486 515 q 473 542 458 530 q 494 555 478 547 l 502 559 l 510 563 q 528 571 522 568 q 610 625 579 596 q 676 727 657 668 q 674 831 694 782 q 613 899 656 877 q 524 909 570 922 q 435 840 472 895 q 317 711 374 746 q 287 703 295 697 q 291 735 279 710 q 321 901 340 837 q 250 967 306 954 q 71 852 134 994 q 5 521 20 739 q 25 168 -10 302 q 176 10 67 6 q 292 157 275 14 q 292 265 297 205 q 288 307 290 286 q 286 323 287 315 l 285 330 l 284 332 l 284 334 q 289 359 281 353 q 311 354 297 366 q 381 199 349 322 q 442 68 402 119 q 526 7 479 22 q 614 8 571 -7 q 688 68 658 25 q 722 179 721 117 q 696 300 724 238 q 486 515 635 432 z "},"Л":{"ha":893,"x_min":-18,"x_max":830,"o":"m 341 915 l 328 911 q 316 907 321 909 q 304 902 311 905 l 298 899 l 292 896 l 281 888 q 271 881 275 884 q 199 805 233 851 q 143 715 172 769 q 99 618 123 677 q 134 720 111 669 q 189 813 157 770 q 265 889 225 862 q 368 919 315 924 l 341 915 m 756 611 q 576 884 690 784 q 335 969 458 985 q 144 830 232 955 q 24 544 62 712 q 12 191 -18 354 q 58 62 27 111 q 138 2 91 9 q 256 55 210 -10 q 315 208 290 104 q 325 251 320 227 l 330 272 l 334 293 q 350 370 345 347 q 395 452 370 447 q 433 433 416 456 q 465 372 448 414 q 481 330 471 356 l 489 307 l 498 284 q 537 189 519 226 q 646 56 584 91 q 754 56 704 24 q 805 129 786 77 q 825 254 823 181 q 756 611 830 418 z "},"М":{"ha":1109,"x_min":-9,"x_max":1048,"o":"m 759 903 q 726 872 743 892 q 671 799 704 846 l 659 780 l 645 761 q 613 726 629 740 q 574 699 594 709 q 528 691 550 689 q 606 733 570 694 q 635 768 620 747 l 648 787 l 661 806 q 719 880 694 854 q 755 909 739 899 q 801 919 778 921 q 759 903 777 917 m 212 842 q 165 765 188 811 q 129 682 151 736 q 113 638 121 660 l 105 617 l 97 595 q 153 770 115 691 q 205 848 178 820 q 241 878 220 865 q 286 888 263 890 q 212 842 248 884 m 1039 507 q 966 838 1031 709 q 823 970 907 959 q 711 937 761 978 q 611 815 672 905 q 521 745 559 736 q 459 807 496 749 q 377 905 416 873 q 275 941 328 945 q 47 609 133 927 q 1 243 -9 405 q 113 37 14 58 q 215 66 172 25 q 278 165 249 98 q 300 223 288 188 l 305 237 l 310 251 q 319 276 315 266 q 357 336 340 330 q 382 315 370 340 q 393 288 387 307 l 396 280 l 399 272 l 406 256 q 443 193 423 214 q 509 162 471 163 q 565 184 538 161 q 606 234 583 199 l 614 247 l 623 259 q 640 280 632 273 q 673 293 657 299 q 707 239 690 287 q 714 217 710 230 l 718 205 l 722 193 q 741 140 733 161 q 794 45 765 78 q 886 0 832 1 q 1015 143 977 -3 q 1039 507 1048 271 z "},"Н":{"ha":886,"x_min":-2,"x_max":825,"o":"m 595 903 q 577 888 585 899 q 559 844 566 873 q 553 747 552 806 l 553 735 l 553 723 q 553 697 554 708 q 540 648 550 669 q 511 606 529 623 q 467 582 491 589 q 531 652 513 604 q 541 699 539 675 q 541 722 541 708 l 541 734 l 541 747 q 549 846 540 808 q 572 892 558 877 q 594 906 583 903 q 618 909 604 909 q 595 903 604 907 m 138 886 q 101 824 114 861 q 80 752 91 793 l 71 716 l 62 680 q 89 828 64 756 q 130 893 103 869 q 163 914 145 907 q 201 919 183 921 q 138 886 165 916 m 616 961 q 518 899 547 957 q 495 724 490 842 q 473 647 497 673 q 419 627 452 625 q 369 656 386 630 q 356 724 352 682 q 332 904 369 844 q 224 969 300 958 q 114 941 163 979 q 45 840 66 905 q 0 540 2 713 q 34 222 -2 373 q 119 62 60 111 q 226 30 168 22 q 343 220 356 49 q 396 346 334 346 q 444 323 427 346 q 463 226 465 292 q 498 55 456 114 q 608 0 536 0 q 776 150 728 0 q 819 509 811 258 q 770 831 825 703 q 616 961 713 966 z "},"О":{"ha":858,"x_min":-21,"x_max":821,"o":"m 462 304 q 430 277 448 286 q 391 268 411 267 q 451 312 429 282 q 479 382 471 340 q 462 304 488 340 m 320 374 q 328 420 316 399 q 362 445 340 441 q 402 432 384 448 q 425 391 420 416 q 416 345 429 365 q 382 320 404 323 q 342 332 361 317 q 320 374 324 348 m 285 894 q 192 835 233 873 q 123 748 155 800 l 116 736 l 109 724 l 97 699 l 86 672 l 76 646 q 114 753 87 702 q 183 844 141 806 q 281 904 228 886 q 337 917 307 913 l 351 918 l 366 919 l 394 918 q 285 894 332 913 m 512 956 q 162 888 302 1008 q 8 585 39 782 q 53 231 -21 394 q 297 11 132 55 q 589 91 452 -31 q 766 391 713 202 q 764 737 821 584 q 512 956 699 910 z "},"П":{"ha":863,"x_min":-18,"x_max":804,"o":"m 248 887 q 233 880 241 884 l 220 873 l 206 866 q 193 857 198 861 q 146 819 171 843 q 106 773 118 791 q 63 661 73 726 q 59 630 60 647 l 57 599 q 55 568 56 585 l 54 536 q 53 662 47 603 q 96 781 60 728 l 105 793 l 115 806 q 125 817 119 810 l 132 823 l 137 829 q 188 866 168 855 q 306 908 240 898 l 291 903 l 276 899 q 248 887 260 893 m 725 760 q 549 937 668 882 q 317 965 441 986 q 108 865 193 945 q 4 656 16 780 q 75 206 -18 427 q 169 52 117 107 q 277 1 224 -6 q 369 89 353 10 q 345 396 387 178 q 384 578 313 569 q 446 518 424 583 q 464 364 467 457 q 509 75 456 158 q 623 18 547 14 q 732 100 687 22 q 788 290 773 173 q 788 530 804 408 q 725 760 772 661 z "},"Р":{"ha":723,"x_min":-10,"x_max":665,"o":"m 456 568 q 433 532 449 548 q 399 509 418 516 q 358 505 378 500 q 395 518 378 509 q 424 541 412 528 q 463 608 450 568 q 456 568 465 588 m 334 625 q 361 654 344 646 q 393 656 379 663 q 411 629 408 648 q 404 590 414 610 q 376 561 393 570 q 345 559 359 552 q 327 586 330 567 q 334 625 324 606 m 230 893 q 151 836 184 871 q 96 753 119 802 q 62 659 77 715 q 71 709 64 680 q 87 758 77 734 q 141 844 106 806 q 226 902 178 884 q 275 916 250 911 q 326 920 303 920 q 230 893 270 912 m 357 973 q 132 898 220 975 q 20 707 52 830 q 5 462 -10 595 q 71 221 19 332 q 183 56 121 114 q 292 1 237 5 q 378 30 342 -4 q 420 121 414 64 q 418 210 426 160 q 411 250 416 224 l 408 269 q 404 287 406 279 q 406 349 398 326 q 448 392 414 376 q 613 543 557 444 q 653 734 665 635 q 567 901 641 836 q 357 973 487 971 z "},"С":{"ha":791,"x_min":0,"x_max":730,"o":"m 572 382 q 557 372 566 378 l 550 366 l 543 361 q 507 345 524 349 q 469 343 487 339 q 535 371 504 350 l 543 376 l 550 382 q 568 391 560 388 q 606 395 588 399 q 572 382 589 392 m 180 831 q 117 746 145 795 q 74 647 94 705 q 109 751 84 701 q 171 840 132 800 q 262 903 212 882 q 315 916 290 913 q 370 918 345 920 q 266 894 311 913 q 180 831 217 870 m 719 310 q 643 441 709 415 q 581 446 614 453 q 517 415 547 438 q 456 396 488 393 q 401 424 427 399 q 365 490 376 450 q 360 585 353 534 q 431 668 371 659 q 554 646 475 675 q 618 648 589 634 q 660 691 646 661 q 668 762 674 723 q 633 842 662 804 q 472 956 572 925 q 286 961 380 984 q 86 807 165 932 q 0 469 0 671 q 118 112 0 241 q 248 22 173 51 q 410 1 323 -6 q 646 106 557 14 q 719 310 730 195 z "},"Т":{"ha":852,"x_min":-7,"x_max":795,"o":"m 242 909 q 165 893 195 902 q 93 863 120 881 q 64 838 73 850 q 53 802 53 824 q 59 842 48 823 q 87 872 68 857 q 161 906 115 892 q 321 918 237 926 q 242 909 277 914 m 371 969 q 102 933 205 978 q 1 798 -7 886 q 43 726 5 748 q 125 703 70 709 l 147 701 l 169 699 q 210 694 195 697 q 260 660 251 685 q 248 484 266 645 q 236 344 239 401 q 237 201 232 262 q 301 52 246 109 q 438 1 358 -9 q 545 291 584 21 q 523 534 524 433 q 543 660 522 642 q 596 673 558 671 q 631 673 607 673 l 650 672 l 668 673 q 737 686 712 673 q 781 738 770 701 q 767 825 795 784 q 682 896 741 864 q 371 969 562 959 z "},"У":{"ha":852,"x_min":-7,"x_max":803,"o":"m 625 900 q 598 869 612 888 q 552 799 578 842 l 541 781 l 530 763 q 507 728 517 742 q 479 695 490 707 q 441 675 459 679 q 474 700 460 684 q 498 733 485 712 q 519 770 506 746 l 541 806 q 590 876 569 851 q 621 905 606 894 q 661 920 644 921 q 625 900 643 918 m 189 291 q 162 271 172 279 q 113 226 131 248 q 96 198 103 212 q 87 165 91 186 q 90 200 86 182 q 105 232 96 216 q 154 281 121 256 q 211 319 176 298 l 226 328 l 240 336 q 269 355 257 347 q 216 310 250 334 l 189 291 m 75 842 q 60 809 64 828 q 55 772 55 793 q 50 811 47 790 q 64 850 52 831 q 96 876 77 867 q 136 880 116 884 q 75 842 96 872 m 661 972 q 579 934 620 972 q 513 849 549 905 l 499 826 l 492 814 l 486 804 q 462 764 470 777 q 421 725 436 726 q 356 779 406 725 l 351 785 l 345 791 q 332 804 338 799 q 306 833 318 820 q 241 892 273 866 q 135 932 190 933 q 47 899 85 932 q 2 816 10 866 q 24 709 -7 762 q 88 628 46 671 q 126 592 104 612 l 145 575 l 164 559 q 229 498 211 518 q 259 442 257 467 q 228 389 261 416 q 193 363 216 378 l 183 357 l 173 351 l 152 337 q 74 269 100 302 q 35 168 37 224 q 50 89 33 125 q 102 30 68 53 q 290 14 178 -20 q 591 273 441 60 q 764 639 726 465 q 768 901 803 817 q 661 972 739 973 z "},"Ф":{"ha":1101,"x_min":-7,"x_max":1042,"o":"m 824 562 q 785 532 808 542 q 739 526 762 522 q 814 570 785 533 q 847 653 838 602 q 824 562 855 603 m 681 653 q 698 707 681 685 q 739 730 715 730 q 779 707 762 730 q 796 653 796 685 q 779 599 796 622 q 739 576 762 576 q 698 599 715 576 q 681 653 681 622 m 340 556 q 302 528 323 537 q 256 522 279 518 q 330 565 299 530 q 372 642 357 595 q 340 556 374 594 m 243 575 q 218 608 224 583 q 222 660 212 632 q 254 702 233 688 q 294 709 275 716 q 319 676 313 701 q 315 624 326 652 q 283 583 304 597 q 243 575 262 568 m 84 772 q 52 673 60 730 q 58 726 52 697 q 75 776 63 750 q 144 858 99 825 q 243 899 180 884 q 347 913 294 910 l 321 907 l 296 902 q 245 889 267 896 q 152 847 182 870 q 84 772 111 818 m 947 849 q 788 931 894 900 q 568 968 691 960 q 342 964 450 976 q 163 920 231 951 q 35 800 80 883 q 1 629 -7 720 q 71 463 10 534 q 254 357 138 384 q 303 325 289 349 q 317 268 315 306 q 318 232 318 256 l 319 212 q 319 191 319 201 q 334 100 322 140 q 394 20 349 47 q 488 1 437 -6 q 581 52 543 9 q 637 178 625 100 q 669 332 655 294 q 714 372 685 371 q 920 436 840 380 q 1018 566 991 486 q 1022 718 1042 640 q 947 849 1002 796 z "},"Х":{"ha":906,"x_min":-5,"x_max":871,"o":"m 487 879 q 452 810 471 859 l 445 791 l 438 772 q 424 734 430 748 q 401 700 414 712 q 366 680 387 684 q 415 738 399 694 l 421 757 l 427 776 q 439 814 434 800 q 456 851 448 834 q 479 886 467 872 q 512 911 494 902 q 551 920 532 920 q 487 879 513 913 m 112 874 q 90 852 98 864 q 67 791 74 829 q 79 859 57 827 q 107 883 91 875 q 142 888 124 891 q 112 874 125 883 m 568 547 q 549 586 538 561 q 593 642 555 602 l 601 650 l 609 659 q 625 677 618 669 q 656 716 644 698 q 694 810 690 764 q 669 913 701 870 q 592 966 641 954 q 496 956 543 979 q 415 870 444 931 q 391 810 401 842 q 382 786 387 800 l 379 775 l 376 766 q 363 738 370 746 q 342 726 355 728 q 314 757 329 724 q 308 772 311 763 l 304 781 l 301 791 q 285 830 292 815 q 235 905 262 878 q 150 940 199 939 q 66 910 103 941 q 20 829 29 879 q 35 716 8 775 q 138 588 64 649 q 164 528 174 558 q 115 452 159 510 q 0 159 -5 292 q 33 60 3 100 q 112 6 62 20 q 276 62 204 -20 q 354 218 331 124 l 355 223 l 357 229 l 359 240 q 368 264 363 254 q 390 302 378 292 q 477 210 425 327 q 562 89 511 133 q 661 41 608 48 q 753 58 711 33 q 819 130 796 81 q 798 359 871 241 q 568 547 726 474 z "},"Ц":{"ha":966,"x_min":-10,"x_max":907,"o":"m 619 861 q 597 821 607 846 q 582 776 591 806 l 568 730 q 572 779 568 753 q 585 826 576 804 q 612 868 596 853 q 657 885 633 890 q 619 861 635 881 m 459 387 q 428 372 444 376 q 395 372 410 368 q 425 382 413 377 q 451 398 439 389 q 474 418 462 406 l 486 430 l 497 441 q 459 387 487 408 m 206 906 q 180 882 190 894 q 140 823 159 859 q 109 757 126 798 l 96 722 l 83 688 q 128 829 94 764 q 172 890 149 867 q 203 912 184 901 q 240 920 224 921 q 206 906 222 916 m 807 241 q 770 313 767 254 q 777 370 770 334 l 781 401 q 786 431 785 418 q 806 753 814 659 q 697 930 792 900 q 579 902 627 953 q 517 735 530 850 q 395 424 482 424 q 371 678 296 424 q 369 893 409 810 q 238 971 330 974 q 78 830 144 968 q 3 504 16 699 q 39 191 -10 309 q 159 48 78 101 q 325 0 228 4 q 420 2 361 -1 l 446 3 l 472 5 q 529 8 507 7 q 583 -5 562 10 q 614 -43 597 -16 l 621 -54 l 629 -65 q 647 -87 638 -78 q 707 -119 671 -110 q 821 -89 769 -135 q 887 26 867 -47 q 888 158 907 98 q 807 241 868 224 z "},"Ч":{"ha":771,"x_min":-9,"x_max":713,"o":"m 445 734 q 437 644 450 680 q 414 603 429 620 q 377 578 398 585 q 428 646 416 600 q 432 733 437 682 q 431 823 428 785 q 438 868 433 849 q 458 908 446 896 q 444 867 448 892 q 441 823 441 847 q 445 734 441 780 m 120 874 q 94 825 106 854 q 74 772 85 808 l 66 745 l 58 718 q 64 774 59 751 q 81 831 71 805 q 113 880 95 861 q 136 899 125 895 q 164 906 151 907 q 120 874 142 903 m 699 525 q 647 844 694 730 q 487 971 593 972 q 387 726 365 969 q 377 645 392 673 q 334 621 363 620 q 290 646 302 621 q 278 722 276 669 q 254 907 283 852 q 164 958 228 958 q 64 893 106 958 q 7 724 22 829 q 11 526 -9 609 q 70 401 26 458 q 205 334 117 340 q 271 334 234 331 q 284 336 277 335 l 290 337 l 296 338 q 316 339 310 339 q 361 318 344 341 q 384 221 383 288 q 427 52 385 109 q 530 0 464 2 q 699 525 713 -5 z "},"Ш":{"ha":1124,"x_min":-12,"x_max":1070,"o":"m 829 895 q 805 842 812 876 q 798 781 800 818 l 798 766 l 797 750 q 796 719 797 731 l 791 749 q 787 781 788 767 q 792 844 785 814 q 822 902 801 882 q 851 918 834 913 q 883 919 867 921 q 829 895 847 915 m 761 406 q 731 389 747 393 q 697 387 713 383 q 752 415 732 395 q 788 466 767 429 q 761 406 787 429 m 506 832 q 492 810 498 822 q 483 786 486 798 q 471 735 476 766 q 464 682 467 710 q 471 790 454 738 q 498 839 481 822 q 522 854 509 850 q 550 857 536 859 q 506 832 522 853 m 419 397 q 393 384 407 387 q 363 384 378 380 q 411 408 393 392 q 430 426 420 414 l 439 437 l 447 448 q 419 397 444 418 m 182 886 q 142 849 159 872 q 91 751 111 809 q 64 644 75 709 q 52 532 56 598 q 54 645 48 587 q 79 756 61 706 q 134 855 100 817 q 178 892 155 879 q 233 905 206 907 q 182 886 205 903 m 894 970 q 777 922 818 975 q 742 751 734 864 q 743 502 755 570 q 693 439 732 436 q 667 665 652 444 q 644 849 675 787 q 550 909 613 909 q 439 834 476 909 q 412 679 408 771 q 363 435 424 435 q 325 481 338 435 q 327 648 309 538 q 245 957 374 946 q 149 931 195 961 q 67 840 102 901 q 2 472 -12 703 q 87 166 14 278 q 234 41 141 84 q 545 0 332 -3 q 883 77 780 5 q 1020 290 977 144 q 1044 403 1035 342 q 1049 450 1046 425 q 1050 469 1050 458 l 1051 477 l 1052 486 q 1034 838 1070 719 q 894 970 995 964 z "},"Щ":{"ha":1289,"x_min":-12,"x_max":1224,"o":"m 833 895 q 808 841 816 876 q 801 781 802 817 l 800 765 l 800 749 q 800 718 800 730 l 794 749 q 791 780 791 766 q 795 844 789 814 q 825 901 804 882 q 854 918 838 913 q 886 919 871 921 q 833 895 850 915 m 764 403 q 734 386 750 391 q 700 385 716 381 q 755 412 734 393 q 791 464 770 427 q 764 403 790 427 m 508 831 q 494 810 500 821 q 485 785 488 798 q 473 734 478 765 q 466 680 469 709 q 473 789 456 737 q 500 838 483 821 q 524 854 511 849 q 552 856 538 859 q 508 831 524 853 m 421 395 q 394 381 408 385 q 365 381 379 378 q 413 405 395 390 q 432 424 421 412 l 440 435 l 449 446 q 421 395 446 416 m 182 886 q 142 848 160 872 q 91 751 111 808 q 64 642 76 709 q 52 530 57 597 q 54 644 48 586 q 79 755 61 705 q 135 855 100 817 q 179 892 155 878 q 234 905 208 907 q 182 886 206 903 m 1104 297 q 1053 364 1061 304 q 1052 422 1050 387 q 1054 453 1053 435 l 1057 484 q 1038 838 1074 718 q 898 970 999 964 q 781 922 821 975 q 745 751 736 864 q 746 500 758 569 q 696 437 735 434 q 669 664 654 441 q 646 848 677 786 q 552 908 616 908 q 441 834 478 908 q 414 678 410 770 q 365 433 426 433 q 326 479 339 433 q 328 647 311 537 q 245 957 375 946 q 149 931 196 961 q 67 840 102 901 q 2 470 -12 702 q 87 163 14 275 q 235 38 141 81 q 531 1 315 1 q 859 25 726 0 q 922 20 898 32 q 958 -14 939 12 l 966 -24 l 974 -34 q 993 -54 983 -45 q 1055 -78 1017 -74 q 1164 -31 1119 -85 q 1214 92 1204 17 q 1197 225 1224 168 q 1104 297 1167 288 z "},"Ъ":{"ha":789,"x_min":-9,"x_max":731,"o":"m 511 284 q 480 258 499 266 q 441 252 460 248 q 501 292 481 260 q 515 325 510 304 q 519 363 519 341 q 525 323 526 345 q 511 284 523 302 m 397 335 q 389 372 387 354 q 406 398 393 391 q 437 397 420 406 q 464 369 454 388 q 471 331 473 350 q 454 305 467 313 q 423 307 439 298 q 397 335 406 315 m 167 918 q 142 914 156 917 q 97 898 115 909 q 64 865 77 886 q 52 817 52 842 q 55 869 44 844 q 90 909 66 894 q 140 924 112 922 q 167 924 154 925 l 180 922 l 192 919 l 179 918 l 167 918 m 506 559 q 454 591 471 570 q 431 638 438 608 q 422 703 427 656 q 417 742 419 727 q 410 785 414 765 q 325 920 391 872 q 198 968 272 959 q 96 959 141 976 q 19 897 45 941 q 5 797 -9 850 q 85 730 20 738 q 117 677 121 725 q 111 640 117 661 q 106 625 109 633 l 105 622 l 104 618 q 103 614 103 616 q 75 402 73 509 q 111 203 76 290 q 222 56 149 108 q 418 0 302 -1 q 626 75 543 1 q 716 244 701 142 q 680 431 731 346 q 506 559 623 524 z "},"Ы":{"ha":1086,"x_min":-10,"x_max":1024,"o":"m 453 295 q 420 267 441 276 q 379 262 400 258 q 442 302 421 269 q 457 336 452 315 q 460 376 460 354 q 467 335 469 357 q 453 295 465 313 m 334 347 q 327 386 323 367 q 344 413 330 406 q 376 411 359 420 q 404 382 393 402 q 410 343 414 362 q 393 317 408 324 q 361 318 378 309 q 334 347 344 327 m 271 909 q 242 890 258 903 q 195 842 218 871 q 155 787 178 822 q 136 758 147 776 l 119 729 q 146 792 132 767 q 185 850 163 825 q 237 899 210 881 q 302 920 271 922 q 271 909 286 917 m 447 581 q 403 618 412 591 q 402 680 395 639 q 406 699 404 688 l 409 718 q 417 760 414 744 q 420 851 425 811 q 378 941 413 908 q 292 970 342 975 q 183 915 237 966 q 71 751 121 858 q 5 511 20 640 q 20 265 -10 377 q 132 75 52 143 q 357 0 220 -1 q 571 78 486 1 q 665 253 649 148 q 627 447 681 358 q 447 581 568 543 m 730 893 q 713 867 719 883 q 707 836 709 853 q 713 768 706 810 l 720 735 l 726 701 q 703 766 711 737 q 694 836 693 806 q 702 871 696 857 q 724 901 710 891 q 791 918 751 922 q 730 893 753 914 m 968 855 q 893 939 939 909 q 804 970 852 966 q 722 955 760 973 q 666 903 684 937 q 668 715 633 839 q 683 664 673 696 l 691 637 l 699 612 q 722 509 718 550 q 732 307 734 411 q 728 228 731 273 l 728 210 l 727 193 q 726 162 726 174 q 733 71 724 98 q 783 29 745 38 q 916 108 857 12 q 997 342 969 193 q 1017 627 1024 486 q 968 855 1010 776 z "},"Ь":{"ha":736,"x_min":-10,"x_max":681,"o":"m 453 295 q 420 267 441 276 q 379 262 400 258 q 442 302 421 269 q 457 336 452 315 q 460 376 460 354 q 467 335 469 357 q 453 295 465 313 m 334 347 q 327 386 323 367 q 344 413 330 406 q 376 411 359 420 q 404 382 393 402 q 410 343 414 362 q 393 317 408 324 q 361 318 378 309 q 334 347 344 327 m 271 909 q 242 890 258 903 q 195 842 218 871 q 155 787 178 822 q 136 758 147 776 l 119 729 q 146 792 132 767 q 185 850 163 825 q 237 899 210 881 q 302 920 271 922 q 271 909 286 918 m 447 581 q 403 618 412 591 q 402 680 395 639 q 406 699 404 688 l 409 718 q 417 760 414 745 q 420 851 425 811 q 378 941 413 908 q 292 970 342 975 q 183 915 237 966 q 71 751 121 858 q 5 511 20 640 q 20 265 -10 377 q 132 75 52 143 q 357 0 220 -1 q 572 78 486 1 q 665 253 649 148 q 627 447 681 358 q 447 581 568 543 z "},"Э":{"ha":865,"x_min":-1,"x_max":815,"o":"m 429 284 q 381 256 409 267 q 271 244 333 238 q 243 249 260 245 l 230 252 l 217 254 q 163 260 191 260 q 111 254 133 262 q 73 220 83 245 q 109 260 79 247 q 163 271 131 270 q 219 267 186 272 l 233 264 l 246 261 q 273 258 262 258 q 378 266 330 251 q 425 289 405 274 q 463 328 448 304 q 429 284 453 304 m 408 576 q 329 547 380 555 q 287 543 311 545 l 277 543 l 267 543 q 247 542 255 543 q 210 529 224 538 q 186 498 191 519 q 206 534 186 519 q 245 551 222 547 q 266 555 254 553 l 277 555 l 286 556 l 307 557 q 327 560 318 559 q 366 569 351 564 q 401 585 386 575 q 444 650 435 605 q 408 576 444 602 m 307 913 q 258 904 289 911 q 165 871 203 892 q 88 810 119 846 q 63 768 73 792 q 54 720 52 745 q 57 770 49 743 q 81 817 65 795 q 159 882 109 855 q 256 914 203 906 q 307 919 289 919 q 357 918 324 920 l 345 917 l 332 916 q 307 913 317 914 m 795 567 q 667 855 777 747 q 412 969 564 958 q 175 941 276 979 q 41 843 89 907 q 0 728 -1 787 q 43 645 1 671 q 264 682 121 597 q 358 703 318 713 q 393 665 392 694 q 368 619 393 633 q 266 602 340 604 q 154 553 191 599 q 137 461 121 512 q 195 396 151 414 q 298 402 241 376 q 382 411 345 423 q 419 374 416 400 q 411 345 421 360 q 380 318 400 330 q 245 309 328 291 q 61 290 122 336 q 16 173 8 250 q 75 71 23 113 q 199 16 122 34 q 493 25 352 -20 q 739 226 660 79 q 795 567 815 368 z "},"Ю":{"ha":1301,"x_min":-16,"x_max":1259,"o":"m 901 304 q 869 277 887 286 q 830 267 850 267 q 890 312 868 281 q 918 382 910 339 q 901 304 927 340 m 759 374 q 767 420 755 399 q 802 444 780 441 q 842 432 823 448 q 864 391 860 416 q 855 344 868 365 q 821 320 843 323 q 781 332 800 316 q 759 374 763 348 m 724 893 q 631 834 672 872 q 562 747 593 800 l 555 735 l 549 723 l 536 698 l 525 672 l 515 646 q 553 752 526 701 q 622 844 581 805 q 720 903 667 885 q 777 916 746 912 l 791 918 l 805 918 l 833 918 q 724 893 771 913 m 83 890 q 66 863 72 880 q 60 830 62 849 q 66 762 59 805 l 73 728 l 79 693 q 56 760 63 730 q 47 831 45 800 q 55 867 49 852 q 77 898 63 888 q 146 916 105 920 q 83 890 107 911 m 951 956 q 620 902 755 1004 q 457 634 499 812 q 443 611 454 620 q 416 603 431 602 l 416 603 q 389 614 400 604 q 376 642 377 625 q 327 850 366 777 q 250 937 297 905 q 159 968 208 964 q 75 953 113 972 q 18 899 36 934 q 20 707 -16 834 q 35 654 25 688 l 44 628 l 52 602 q 75 496 71 538 q 85 290 87 396 q 82 208 84 255 l 81 191 l 80 173 q 79 142 79 154 q 87 48 77 76 q 138 5 99 14 q 248 50 197 -8 q 327 205 294 102 q 365 254 337 237 q 425 269 392 273 q 488 241 478 264 q 585 96 524 155 q 736 11 650 34 q 1027 91 890 -31 q 1205 391 1152 202 q 1202 736 1259 583 q 951 956 1137 909 z "},"Я":{"ha":812,"x_min":0,"x_max":746,"o":"m 453 528 q 420 503 439 511 q 379 498 399 494 q 443 537 418 507 q 473 606 465 564 q 453 528 483 564 m 332 602 q 343 640 331 623 q 374 656 356 655 q 406 642 392 656 q 420 605 419 627 q 408 568 420 583 q 378 551 395 551 q 346 565 359 550 q 332 602 332 580 m 277 891 q 208 843 235 871 q 161 772 179 814 q 148 731 153 753 q 141 688 144 715 q 152 776 137 732 q 198 852 165 819 q 273 901 230 884 q 360 917 315 916 l 338 912 q 317 906 326 909 q 277 891 300 901 m 102 281 q 54 179 64 227 q 63 237 52 208 q 90 289 71 260 q 128 334 108 315 q 173 372 146 353 l 154 349 l 136 328 q 102 281 115 302 m 354 970 q 186 905 254 959 q 102 777 125 854 q 95 623 79 703 q 165 475 112 541 q 170 447 177 461 q 142 415 165 437 l 137 410 l 132 406 q 120 395 125 399 q 94 368 106 381 q 37 292 62 333 q 0 169 0 229 q 28 73 0 115 q 96 14 54 34 q 176 2 136 -5 q 314 109 269 20 q 330 146 321 125 l 337 164 l 344 181 q 374 239 360 222 q 410 250 398 266 q 431 123 427 227 q 467 33 433 66 q 545 4 498 3 q 635 41 593 5 q 705 154 682 82 q 745 418 744 273 q 706 693 746 568 q 578 903 662 831 q 354 970 485 984 z "},"а":{"ha":842,"x_min":-12,"x_max":781,"o":"m 473 370 q 444 355 458 359 q 411 354 427 350 q 465 380 441 361 q 506 425 484 395 q 473 370 501 392 m 399 408 q 379 434 384 415 q 382 473 374 453 q 407 505 390 494 q 439 509 424 515 q 460 484 455 503 q 457 444 465 465 q 432 412 449 423 q 399 408 415 402 m 290 773 q 228 679 264 738 q 199 630 216 658 l 171 581 q 219 684 191 630 q 279 781 245 733 q 355 867 319 835 l 366 877 q 376 886 372 882 l 388 895 l 400 902 q 455 918 433 919 q 404 897 432 916 l 393 888 l 382 879 q 372 870 377 876 l 361 860 q 290 773 327 824 m 471 969 q 272 848 382 983 q 94 536 173 726 q 2 201 15 347 q 64 11 -12 40 q 176 12 122 -12 q 262 78 217 30 q 281 99 271 87 l 299 119 q 332 157 321 146 q 392 195 368 195 q 454 159 417 195 q 488 123 466 148 l 507 104 l 525 85 q 608 23 571 39 q 707 24 658 2 q 774 197 766 51 q 743 509 781 334 q 636 815 704 691 q 471 969 559 955 z "},"б":{"ha":753,"x_min":-4,"x_max":690,"o":"m 496 282 q 463 248 484 259 q 418 240 441 236 q 458 257 440 244 q 485 288 475 269 q 497 328 494 305 q 496 372 500 348 q 507 328 507 351 q 496 282 507 303 m 373 332 q 372 371 366 353 q 394 395 378 389 q 425 389 410 399 q 448 356 441 377 q 449 317 455 335 q 427 293 443 298 q 396 299 412 288 q 373 332 380 311 m 131 796 q 81 688 103 755 q 54 571 66 640 q 60 631 56 599 q 72 691 65 665 q 120 803 89 755 q 161 850 138 830 q 211 884 184 870 q 268 907 239 899 q 328 917 300 916 q 216 876 264 905 q 131 796 159 842 m 370 585 q 322 626 330 587 q 324 658 319 642 q 342 684 330 674 q 421 714 370 706 q 467 720 439 718 l 490 722 l 512 724 q 589 742 564 729 q 627 798 622 759 q 583 902 635 856 q 453 963 534 946 q 283 961 368 980 q 123 876 189 939 q 28 703 60 818 q 1 467 -4 593 q 48 231 5 336 q 175 64 94 117 q 326 4 245 17 q 477 14 405 -7 q 602 90 551 37 q 675 225 656 145 q 681 342 690 284 q 637 454 671 405 q 370 585 557 572 z "},"в":{"ha":763,"x_min":-3,"x_max":699,"o":"m 489 311 q 456 277 477 288 q 410 269 434 264 q 450 285 433 273 q 477 317 468 298 q 484 401 495 352 q 498 357 496 382 q 489 311 500 333 m 363 351 q 355 391 353 371 q 371 418 357 410 q 403 418 385 427 q 433 391 421 410 q 441 351 444 371 q 425 323 439 332 q 393 323 411 315 q 363 351 375 332 m 304 633 q 334 645 320 637 q 358 664 348 654 q 378 689 368 674 q 391 718 385 702 q 368 655 395 684 q 338 636 354 642 q 304 633 320 629 m 290 731 q 309 750 297 745 q 330 750 321 755 q 340 732 339 745 q 334 706 342 719 q 315 687 327 692 q 294 687 303 682 q 283 705 285 692 q 290 731 282 718 m 174 852 q 141 810 158 836 q 94 716 115 772 q 62 614 77 672 q 84 720 67 666 q 131 818 101 773 q 209 894 165 869 q 260 916 236 909 q 313 920 288 922 q 214 886 258 916 q 174 852 192 871 m 466 593 q 461 616 454 598 q 471 635 464 622 l 475 641 l 478 647 q 486 661 482 654 q 511 732 504 698 q 513 831 522 780 q 448 928 504 888 q 320 971 393 969 q 173 926 241 973 q 51 762 96 872 q 1 512 5 647 q 38 259 -3 374 q 170 66 83 134 q 406 1 268 -8 q 614 86 537 9 q 692 259 686 155 q 642 451 699 361 q 466 593 581 548 z "},"г":{"ha":728,"x_min":-9,"x_max":663,"o":"m 265 905 q 210 884 236 897 q 117 817 153 857 q 87 768 100 798 q 70 713 79 747 q 59 655 63 686 q 55 625 57 642 l 52 596 q 60 715 50 659 q 107 825 75 787 q 207 893 147 869 q 264 911 234 904 q 323 918 296 918 q 265 905 288 912 m 658 817 q 587 918 653 876 q 429 970 524 959 q 241 955 332 981 q 77 859 140 926 q 4 661 19 797 q 18 391 -9 536 q 98 141 44 245 q 228 8 157 29 q 373 59 330 -22 q 387 250 410 131 q 378 296 384 267 q 372 321 376 304 l 368 336 l 366 350 q 341 469 349 423 q 353 654 317 616 q 425 679 369 672 q 450 682 435 680 l 477 684 q 531 690 511 687 q 624 724 594 699 q 658 817 663 755 z "},"д":{"ha":1137,"x_min":-11,"x_max":1091,"o":"m 659 338 q 634 299 653 314 q 592 281 616 286 q 548 281 570 277 q 589 291 574 286 q 626 309 612 298 q 649 341 641 321 q 659 382 655 356 q 659 338 665 359 m 487 355 q 496 432 474 379 q 545 486 518 486 q 597 428 578 485 q 607 383 606 405 q 602 349 608 360 q 545 334 591 333 q 487 355 499 334 m 395 793 q 342 702 367 752 q 300 604 323 663 q 333 706 312 654 q 385 801 353 753 q 456 881 419 851 q 503 909 478 897 q 555 919 530 920 q 463 873 509 913 q 395 793 427 840 m 96 262 q 70 245 80 254 q 53 220 58 235 q 63 253 50 237 q 90 274 72 264 q 155 290 121 290 l 140 283 l 125 276 q 96 262 106 269 m 921 343 q 882 365 894 351 q 866 404 870 378 q 860 465 863 418 q 857 507 859 489 q 850 556 854 532 q 740 867 821 757 q 559 971 663 968 q 383 875 469 973 q 250 619 296 776 q 221 492 232 557 q 217 469 219 481 l 216 457 l 214 447 q 208 411 210 422 q 189 363 201 378 q 144 340 176 347 q 21 277 56 322 q 5 178 -11 236 q 189 50 28 97 q 547 1 332 7 q 848 14 743 -3 q 1049 117 1004 39 q 1054 254 1091 191 q 921 343 1017 316 z "},"е":{"ha":730,"x_min":-5,"x_max":665,"o":"m 458 281 l 448 277 q 428 272 436 273 q 385 271 404 267 q 425 281 406 275 l 435 286 l 444 289 q 465 296 456 294 q 507 306 488 304 q 549 306 531 309 q 469 284 514 298 l 458 281 m 262 911 q 206 888 231 903 q 157 852 177 871 q 121 804 138 833 q 78 689 97 760 q 65 629 71 661 q 60 598 62 616 l 55 567 q 68 691 56 632 q 110 810 83 760 q 149 861 128 842 q 201 897 174 884 q 261 917 229 911 q 323 921 294 923 q 262 911 288 918 m 393 551 l 397 552 q 409 555 404 554 q 433 554 422 557 q 452 542 446 551 q 431 544 444 544 q 411 542 420 543 l 406 541 l 401 541 q 389 539 394 539 q 366 542 376 538 l 377 545 l 387 549 l 393 551 m 423 331 q 363 327 388 317 q 336 355 342 334 q 342 393 330 375 q 378 414 353 411 q 486 452 451 420 q 515 527 518 481 q 475 589 513 569 q 385 597 437 610 q 327 621 340 585 q 326 651 322 635 q 344 677 331 667 q 402 696 363 691 q 438 699 416 698 l 456 700 l 475 701 q 545 715 520 705 q 593 760 579 729 q 573 869 617 814 q 452 951 532 921 q 281 971 367 981 q 117 895 184 959 q 24 708 54 836 q 1 448 -5 590 q 44 197 7 307 q 148 38 84 79 q 302 0 211 -3 q 471 40 386 3 q 608 131 555 76 q 665 248 664 189 q 604 349 665 326 q 423 331 538 374 z "},"ё":{"ha":730,"x_min":-5,"x_max":665,"o":"m 458 281 l 448 277 q 427 271 436 273 q 385 270 404 267 q 425 281 406 274 l 434 285 l 444 289 q 465 296 456 294 q 506 306 487 304 q 549 305 531 309 q 468 284 514 298 l 458 281 m 262 910 q 206 888 231 902 q 157 851 177 871 q 121 803 138 832 q 79 688 97 759 q 65 628 71 661 q 60 597 62 616 l 55 567 q 68 691 56 632 q 111 810 83 759 q 149 861 128 841 q 201 897 174 883 q 261 916 229 910 q 323 920 294 922 q 262 910 288 918 m 392 550 l 397 552 q 409 555 404 553 q 433 553 422 556 q 452 541 446 550 q 431 543 444 543 q 411 541 420 543 l 406 541 l 400 540 q 389 538 393 538 q 366 541 376 538 l 377 545 l 387 549 l 392 550 m 423 331 q 363 326 387 317 q 336 355 342 334 q 341 392 330 375 q 378 413 353 411 q 486 452 450 420 q 515 527 517 481 q 475 589 513 568 q 385 596 437 610 q 327 621 339 585 q 326 650 322 635 q 344 676 331 667 q 401 696 363 690 q 438 699 415 697 l 456 699 l 475 701 q 545 715 520 704 q 593 760 579 728 q 573 868 616 813 q 451 950 532 920 q 281 970 367 981 q 117 895 184 958 q 24 707 54 836 q 1 448 -5 589 q 44 197 7 307 q 148 38 84 79 q 302 0 211 -3 q 471 40 386 3 q 608 131 555 76 q 664 248 664 189 q 603 349 665 326 q 423 331 538 374 m 247 1083 q 251 1086 249 1085 q 256 1087 254 1088 q 256 1082 256 1085 l 256 1081 l 256 1079 l 256 1076 l 256 1073 q 251 1059 255 1065 q 243 1074 242 1063 q 247 1083 244 1080 m 280 986 q 323 1019 309 991 q 328 1082 338 1048 q 288 1133 317 1117 q 233 1135 260 1147 q 201 1097 210 1124 q 201 1043 192 1071 q 232 998 210 1015 q 280 986 255 982 m 435 1120 q 448 1130 441 1127 q 465 1129 458 1133 q 454 1121 459 1126 q 445 1112 448 1116 q 437 1101 441 1107 l 433 1095 l 428 1088 q 435 1120 422 1105 m 439 989 q 511 1003 477 979 q 550 1072 544 1027 q 530 1150 556 1117 q 465 1182 505 1182 q 406 1156 432 1182 q 376 1095 380 1132 q 389 1029 371 1059 q 439 989 408 998 z "},"ж":{"ha":1170,"x_min":-2,"x_max":1105,"o":"m 821 823 q 841 857 829 842 q 871 884 855 876 q 910 892 892 896 q 877 876 892 888 q 851 850 863 865 q 830 819 842 837 l 821 802 l 810 785 q 821 823 813 804 m 553 916 q 541 910 547 913 q 519 893 528 903 q 497 841 507 878 q 496 872 493 856 q 509 901 498 888 q 536 920 521 915 q 553 922 544 922 q 568 920 559 922 l 560 918 l 553 916 m 309 496 q 288 480 301 488 l 277 474 l 265 468 q 182 412 220 442 q 111 341 142 380 q 60 254 80 302 q 77 302 66 277 q 103 347 90 327 q 174 422 130 386 q 261 477 216 456 l 273 482 l 284 488 q 304 500 297 494 q 329 543 326 517 q 309 496 330 517 m 136 856 q 123 823 127 842 q 119 785 119 808 q 125 863 102 825 q 154 890 137 882 q 193 897 174 901 q 136 856 156 889 m 854 538 q 837 566 825 553 q 886 597 841 571 q 923 622 907 610 q 961 655 944 637 q 1021 760 1004 700 q 1018 865 1037 817 q 960 931 1000 910 q 876 938 919 953 q 791 865 827 922 q 751 766 765 821 q 729 713 742 726 q 717 728 717 699 q 674 916 717 854 q 549 970 631 979 q 500 953 523 968 q 460 909 475 937 q 469 739 427 842 q 471 706 479 712 q 439 715 462 701 q 329 852 385 753 q 241 939 293 916 q 149 940 195 958 q 82 878 105 922 q 68 775 57 831 q 125 665 80 713 q 210 597 156 631 q 229 586 217 593 l 237 581 l 246 576 q 271 558 264 564 q 259 528 288 542 q 35 325 103 454 q 0 204 2 264 q 28 91 -2 142 q 101 27 56 45 q 193 22 145 9 q 282 80 243 36 q 345 203 325 128 q 421 357 379 328 q 446 360 437 368 q 452 334 455 353 l 451 332 l 450 330 q 449 323 450 326 q 446 307 448 315 q 439 264 442 286 q 433 156 431 204 q 541 1 441 10 q 665 60 616 -7 q 725 241 713 124 q 739 267 728 275 q 747 255 743 263 q 752 241 750 248 q 759 216 755 229 q 825 87 783 137 q 912 28 864 42 q 1001 33 958 15 q 1073 96 1044 51 q 1104 208 1105 146 q 1073 330 1103 268 q 854 538 1008 460 z "},"з":{"ha":751,"x_min":-6,"x_max":690,"o":"m 353 561 q 305 535 334 545 q 258 515 275 526 q 231 475 233 499 q 235 502 229 488 q 252 524 241 514 q 301 547 269 536 q 347 569 326 555 q 383 605 371 585 q 353 561 376 580 m 161 254 q 103 256 125 257 q 77 248 85 254 q 69 238 72 245 l 67 231 l 65 224 q 66 239 65 233 q 73 253 67 248 q 102 265 82 262 q 162 267 125 269 q 220 258 185 264 l 250 254 l 279 249 q 220 248 254 246 l 190 251 l 161 254 m 208 885 q 138 851 165 867 q 107 829 123 842 q 79 804 93 819 q 52 734 51 771 q 54 774 48 753 q 72 810 59 793 q 132 862 92 838 q 281 911 200 903 q 208 885 243 899 m 634 410 q 594 453 616 434 q 558 479 578 466 l 551 484 l 544 488 q 532 496 536 493 q 521 513 522 504 q 537 541 519 524 q 556 559 543 547 l 562 564 l 568 568 l 579 579 q 625 631 608 606 q 654 704 648 666 q 612 873 671 802 q 423 966 551 947 q 283 964 360 977 q 142 919 207 951 q 35 839 72 885 q 1 728 -6 787 q 250 643 19 582 q 312 650 288 652 q 336 636 333 648 q 326 612 340 625 q 282 589 311 598 q 179 473 176 554 q 208 407 181 433 q 286 381 238 379 q 347 353 334 382 q 346 329 351 341 q 326 309 340 316 q 247 302 302 298 q 222 305 237 303 l 197 308 q 146 313 165 312 q 58 301 88 316 q 14 229 19 281 q 71 111 8 168 q 224 26 129 58 q 414 1 321 -5 q 581 56 516 7 q 681 236 671 126 q 634 410 690 335 z "},"и":{"ha":918,"x_min":-6,"x_max":849,"o":"m 532 862 q 495 813 514 842 q 440 705 463 763 l 429 676 l 418 647 q 397 589 405 608 q 366 534 380 552 q 340 517 354 522 q 309 513 327 511 q 338 519 327 514 q 361 539 351 526 q 387 593 374 556 l 397 622 l 407 651 q 428 709 418 686 q 487 819 453 772 q 577 903 532 880 q 532 862 552 886 m 83 705 q 66 606 73 664 l 60 556 l 54 507 q 87 770 47 654 q 103 812 95 793 q 127 853 115 836 q 203 896 160 899 q 118 821 151 891 q 96 760 106 795 q 89 731 92 747 l 85 718 l 84 711 l 83 705 m 705 948 q 537 940 623 998 q 412 787 467 892 q 378 709 395 753 q 364 671 372 692 l 358 653 l 355 645 l 352 637 q 332 585 339 600 q 313 566 322 566 q 294 593 295 568 q 304 698 293 616 q 285 908 326 847 q 180 947 252 956 q 43 783 94 935 q 1 425 -6 636 q 231 5 13 35 q 358 35 295 -3 q 459 136 418 71 q 522 240 496 192 q 539 277 531 258 q 551 303 545 288 q 566 332 562 328 q 579 337 570 339 q 581 281 588 334 l 580 268 l 578 255 q 574 227 576 238 q 570 165 570 191 q 688 0 566 -1 q 810 133 766 1 q 849 433 848 252 q 812 753 849 610 q 705 948 772 907 z "},"й":{"ha":919,"x_min":-6,"x_max":850,"o":"m 532 863 q 496 814 515 843 q 441 705 464 764 l 430 677 l 419 648 q 397 590 406 609 q 366 536 381 553 q 340 517 354 523 q 309 514 328 512 q 339 520 328 515 q 361 540 351 527 q 388 593 374 557 l 397 623 l 408 652 q 429 711 419 687 q 488 820 454 774 q 578 904 532 881 q 532 863 553 887 m 83 706 q 66 607 73 665 l 60 557 l 54 507 q 87 772 47 656 q 104 813 96 795 q 127 854 115 838 q 203 897 160 900 q 118 823 151 892 q 96 762 106 797 q 89 732 93 748 l 85 719 l 84 712 l 83 706 m 707 949 q 538 941 623 1000 q 413 789 467 894 q 378 709 395 755 q 365 672 372 693 l 359 654 l 355 646 l 353 637 q 332 586 340 600 q 313 567 322 566 q 294 594 296 568 q 305 699 294 618 q 285 909 327 848 q 181 949 252 958 q 43 785 94 937 q 1 425 -6 637 q 232 5 13 35 q 359 35 296 -3 q 460 136 418 71 q 522 241 496 193 q 540 277 532 259 q 552 303 546 289 q 566 333 563 329 q 580 338 571 340 q 582 281 589 335 l 581 269 l 578 255 q 575 227 576 239 q 571 165 572 192 q 688 0 567 -1 q 811 134 767 1 q 850 433 850 252 q 813 754 850 610 q 707 949 773 909 m 347 1064 q 410 1078 382 1068 q 465 1109 442 1090 q 477 1120 471 1114 l 489 1131 l 495 1137 q 502 1142 498 1141 q 511 1145 506 1144 l 515 1145 l 519 1145 l 515 1144 l 511 1143 q 504 1139 507 1141 q 498 1134 501 1137 l 494 1127 q 472 1101 481 1110 q 445 1080 461 1090 q 414 1066 432 1073 q 347 1054 382 1055 l 330 1054 l 314 1055 q 282 1050 292 1055 q 297 1058 288 1055 l 305 1060 l 313 1061 l 347 1064 m 600 1111 q 569 1180 600 1156 q 499 1196 539 1205 q 452 1166 474 1190 l 444 1156 q 434 1146 439 1150 q 409 1128 422 1135 q 363 1114 388 1118 q 343 1112 355 1113 l 333 1112 l 323 1112 q 252 1094 275 1110 q 226 1048 228 1078 q 238 998 224 1023 q 321 946 260 959 q 443 950 378 935 q 553 1006 510 967 q 600 1111 600 1050 z "},"к":{"ha":791,"x_min":-10,"x_max":724,"o":"m 448 760 q 395 702 421 725 q 329 660 361 672 q 388 709 355 676 q 439 768 414 736 q 462 798 451 783 l 468 806 l 473 814 q 486 830 480 824 q 517 854 500 846 q 556 862 538 864 q 494 823 521 859 q 483 808 489 818 l 477 800 l 472 791 q 448 760 463 778 m 181 908 q 155 884 168 899 q 121 824 138 863 q 96 757 111 800 l 86 722 l 76 688 q 87 760 79 730 q 109 829 96 798 q 148 891 127 869 q 178 913 161 905 q 214 920 197 922 q 181 908 195 918 m 486 515 q 473 542 458 530 q 494 555 478 547 l 502 559 l 510 563 q 528 571 522 568 q 610 625 579 596 q 676 727 657 668 q 674 831 694 782 q 613 899 656 877 q 524 909 570 922 q 435 840 472 895 q 317 711 374 746 q 287 703 295 697 q 291 735 279 710 q 321 901 340 837 q 250 967 306 954 q 71 852 134 994 q 5 521 20 739 q 25 168 -10 302 q 176 10 67 6 q 292 157 275 14 q 292 265 297 205 q 288 307 290 286 q 286 323 287 315 l 285 330 l 284 332 l 284 334 q 289 359 281 353 q 311 354 297 366 q 381 199 349 322 q 442 68 402 119 q 526 7 479 22 q 614 8 571 -7 q 688 68 658 25 q 722 179 721 117 q 696 300 724 238 q 486 515 635 432 z "},"л":{"ha":893,"x_min":-18,"x_max":830,"o":"m 341 915 l 328 911 q 316 907 321 909 q 304 902 311 905 l 298 899 l 292 896 l 281 888 q 271 881 275 884 q 199 805 233 851 q 143 715 172 769 q 99 618 123 677 q 134 720 111 669 q 189 813 157 770 q 265 889 225 862 q 368 919 315 924 l 341 915 m 756 611 q 576 884 690 784 q 335 969 458 985 q 144 830 232 955 q 24 544 62 712 q 12 191 -18 354 q 58 62 27 111 q 138 2 91 9 q 256 55 210 -10 q 315 208 290 104 q 325 251 320 227 l 330 272 l 334 293 q 350 370 345 347 q 395 452 370 447 q 433 433 416 456 q 465 372 448 414 q 481 330 471 356 l 489 307 l 498 284 q 537 189 519 226 q 646 56 584 91 q 754 56 704 24 q 805 129 786 77 q 825 254 823 181 q 756 611 830 418 z "},"м":{"ha":1109,"x_min":-9,"x_max":1048,"o":"m 759 903 q 726 872 743 892 q 671 799 704 846 l 659 780 l 645 761 q 613 726 629 740 q 574 699 594 709 q 528 691 550 689 q 606 733 570 694 q 635 768 620 747 l 648 787 l 661 806 q 719 880 694 854 q 755 909 739 899 q 801 919 778 921 q 759 903 777 917 m 212 842 q 165 765 188 811 q 129 682 151 736 q 113 638 121 660 l 105 617 l 97 595 q 153 770 115 691 q 205 848 178 820 q 241 878 220 865 q 286 888 263 890 q 212 842 248 884 m 1039 507 q 966 838 1031 709 q 823 970 907 959 q 711 937 761 978 q 611 815 672 905 q 521 745 559 736 q 459 807 496 749 q 377 905 416 873 q 275 941 328 945 q 47 609 133 927 q 1 243 -9 405 q 113 37 14 58 q 215 66 172 25 q 278 165 249 98 q 300 223 288 188 l 305 237 l 310 251 q 319 276 315 266 q 357 336 340 330 q 382 315 370 340 q 393 288 387 307 l 396 280 l 399 272 l 406 256 q 443 193 423 214 q 509 162 471 163 q 565 184 538 161 q 606 234 583 199 l 614 247 l 623 259 q 640 280 632 273 q 673 293 657 299 q 707 239 690 287 q 714 217 710 230 l 718 205 l 722 193 q 741 140 733 161 q 794 45 765 78 q 886 0 832 1 q 1015 143 977 -3 q 1039 507 1048 271 z "},"н":{"ha":886,"x_min":-2,"x_max":825,"o":"m 595 903 q 577 888 585 899 q 559 844 566 873 q 553 747 552 806 l 553 735 l 553 723 q 553 697 554 708 q 540 648 550 669 q 511 606 529 623 q 467 582 491 589 q 531 652 513 604 q 541 699 539 675 q 541 722 541 708 l 541 734 l 541 747 q 549 846 540 808 q 572 892 558 877 q 594 906 583 903 q 618 909 604 909 q 595 903 604 907 m 138 886 q 101 824 114 861 q 80 752 91 793 l 71 716 l 62 680 q 89 828 64 756 q 130 893 103 869 q 163 914 145 907 q 201 919 183 921 q 138 886 165 916 m 616 961 q 518 899 547 957 q 495 724 490 842 q 473 647 497 673 q 419 627 452 625 q 369 656 386 630 q 356 724 352 682 q 332 904 369 844 q 224 969 300 958 q 114 941 163 979 q 45 840 66 905 q 0 540 2 713 q 34 222 -2 373 q 119 62 60 111 q 226 30 168 22 q 343 220 356 49 q 396 346 334 346 q 444 323 427 346 q 463 226 465 292 q 498 55 456 114 q 608 0 536 0 q 776 150 728 0 q 819 509 811 258 q 770 831 825 703 q 616 961 713 966 z "},"о":{"ha":858,"x_min":-21,"x_max":821,"o":"m 462 304 q 430 277 448 286 q 391 268 411 267 q 451 312 429 282 q 479 382 471 340 q 462 304 488 340 m 320 374 q 328 420 316 399 q 362 445 340 441 q 402 432 384 448 q 425 391 420 416 q 416 345 429 365 q 382 320 404 323 q 342 332 361 317 q 320 374 324 348 m 285 894 q 192 835 233 873 q 123 748 155 800 l 116 736 l 109 724 l 97 699 l 86 672 l 76 646 q 114 753 87 702 q 183 844 141 806 q 281 904 228 886 q 337 917 307 913 l 351 918 l 366 919 l 394 918 q 285 894 332 913 m 512 956 q 162 888 302 1008 q 8 585 39 782 q 53 231 -21 394 q 297 11 132 55 q 589 91 452 -31 q 766 391 713 202 q 764 737 821 584 q 512 956 699 910 z "},"п":{"ha":863,"x_min":-18,"x_max":804,"o":"m 248 887 q 233 880 241 884 l 220 873 l 206 866 q 193 857 198 861 q 146 819 171 843 q 106 773 118 791 q 63 661 73 726 q 59 630 60 647 l 57 599 q 55 568 56 585 l 54 536 q 53 662 47 603 q 96 781 60 728 l 105 793 l 115 806 q 125 817 119 810 l 132 823 l 137 829 q 188 866 168 855 q 306 908 240 898 l 291 903 l 276 899 q 248 887 260 893 m 725 760 q 549 937 668 882 q 317 965 441 986 q 108 865 193 945 q 4 656 16 780 q 75 206 -18 427 q 169 52 117 107 q 277 1 224 -6 q 369 89 353 10 q 345 396 387 178 q 384 578 313 569 q 446 518 424 583 q 464 364 467 457 q 509 75 456 158 q 623 18 547 14 q 732 100 687 22 q 788 290 773 173 q 788 530 804 408 q 725 760 772 661 z "},"р":{"ha":723,"x_min":-10,"x_max":665,"o":"m 456 568 q 433 532 449 548 q 399 509 418 516 q 358 505 378 500 q 395 518 378 509 q 424 541 412 528 q 463 608 450 568 q 456 568 465 588 m 334 625 q 361 654 344 646 q 393 656 379 663 q 411 629 408 648 q 404 590 414 610 q 376 561 393 570 q 345 559 359 552 q 327 586 330 567 q 334 625 324 606 m 230 893 q 151 836 184 871 q 96 753 119 802 q 62 659 77 715 q 71 709 64 680 q 87 758 77 734 q 141 844 106 806 q 226 902 178 884 q 275 916 250 911 q 326 920 303 920 q 230 893 270 912 m 357 973 q 132 898 220 975 q 20 707 52 830 q 5 462 -10 595 q 71 221 19 332 q 183 56 121 114 q 292 1 237 5 q 378 30 342 -4 q 420 121 414 64 q 418 210 426 160 q 411 250 416 224 l 408 269 q 404 287 406 279 q 406 349 398 326 q 448 392 414 376 q 613 543 557 444 q 653 734 665 635 q 567 901 641 836 q 357 973 487 971 z "},"с":{"ha":791,"x_min":0,"x_max":730,"o":"m 572 382 q 557 372 566 378 l 550 366 l 543 361 q 507 345 524 349 q 469 343 487 339 q 535 371 504 350 l 543 376 l 550 382 q 568 391 560 388 q 606 395 588 399 q 572 382 589 392 m 180 831 q 117 746 145 795 q 74 647 94 705 q 109 751 84 701 q 171 840 132 800 q 262 903 212 882 q 315 916 290 913 q 370 918 345 920 q 266 894 311 913 q 180 831 217 870 m 719 310 q 643 441 709 415 q 581 446 614 453 q 517 415 547 438 q 456 396 488 393 q 401 424 427 399 q 365 490 376 450 q 360 585 353 534 q 431 668 371 659 q 554 646 475 675 q 618 648 589 634 q 660 691 646 661 q 668 762 674 723 q 633 842 662 804 q 472 956 572 925 q 286 961 380 984 q 86 807 165 932 q 0 469 0 671 q 118 112 0 241 q 248 22 173 51 q 410 1 323 -6 q 646 106 557 14 q 719 310 730 195 z "},"т":{"ha":852,"x_min":-7,"x_max":795,"o":"m 242 909 q 165 893 195 902 q 93 863 120 881 q 64 838 73 850 q 53 802 53 824 q 59 842 48 823 q 87 872 68 857 q 161 906 115 892 q 321 918 237 926 q 242 909 277 914 m 371 969 q 102 933 205 978 q 1 798 -7 886 q 43 726 5 748 q 125 703 70 709 l 147 701 l 169 699 q 210 694 195 697 q 260 660 251 685 q 248 484 266 645 q 236 344 239 401 q 237 201 232 262 q 301 52 246 109 q 438 1 358 -9 q 545 291 584 21 q 523 534 524 433 q 543 660 522 642 q 596 673 558 671 q 631 673 607 673 l 650 672 l 668 673 q 737 686 712 673 q 781 738 770 701 q 767 825 795 784 q 682 896 741 864 q 371 969 562 959 z "},"у":{"ha":852,"x_min":-7,"x_max":803,"o":"m 625 900 q 598 869 612 888 q 552 799 578 842 l 541 781 l 530 763 q 507 728 517 742 q 479 695 490 707 q 441 675 459 679 q 474 700 460 684 q 498 733 485 712 q 519 770 506 746 l 541 806 q 590 876 569 851 q 621 905 606 894 q 661 920 644 921 q 625 900 643 918 m 189 291 q 162 271 172 279 q 113 226 131 248 q 96 198 103 212 q 87 165 91 186 q 90 200 86 182 q 105 232 96 216 q 154 281 121 256 q 211 319 176 298 l 226 328 l 240 336 q 269 355 257 347 q 216 310 250 334 l 189 291 m 75 842 q 60 809 64 828 q 55 772 55 793 q 50 811 47 790 q 64 850 52 831 q 96 876 77 867 q 136 880 116 884 q 75 842 96 872 m 661 972 q 579 934 620 972 q 513 849 549 905 l 499 826 l 492 814 l 486 804 q 462 764 470 777 q 421 725 436 726 q 356 779 406 725 l 351 785 l 345 791 q 332 804 338 799 q 306 833 318 820 q 241 892 273 866 q 135 932 190 933 q 47 899 85 932 q 2 816 10 866 q 24 709 -7 762 q 88 628 46 671 q 126 592 104 612 l 145 575 l 164 559 q 229 498 211 518 q 259 442 257 467 q 228 389 261 416 q 193 363 216 378 l 183 357 l 173 351 l 152 337 q 74 269 100 302 q 35 168 37 224 q 50 89 33 125 q 102 30 68 53 q 290 14 178 -20 q 591 273 441 60 q 764 639 726 465 q 768 901 803 817 q 661 972 739 973 z "},"ф":{"ha":1101,"x_min":-7,"x_max":1042,"o":"m 824 562 q 785 532 808 542 q 739 526 762 522 q 814 570 785 533 q 847 653 838 602 q 824 562 855 603 m 681 653 q 698 707 681 685 q 739 730 715 730 q 779 707 762 730 q 796 653 796 685 q 779 599 796 622 q 739 576 762 576 q 698 599 715 576 q 681 653 681 622 m 340 556 q 302 528 323 537 q 256 522 279 518 q 330 565 299 530 q 372 642 357 595 q 340 556 374 594 m 243 575 q 218 608 224 583 q 222 660 212 632 q 254 702 233 688 q 294 709 275 716 q 319 676 313 701 q 315 624 326 652 q 283 583 304 597 q 243 575 262 568 m 84 772 q 52 673 60 730 q 58 726 52 697 q 75 776 63 750 q 144 858 99 825 q 243 899 180 884 q 347 913 294 910 l 321 907 l 296 902 q 245 889 267 896 q 152 847 182 870 q 84 772 111 818 m 947 849 q 788 931 894 900 q 568 968 691 960 q 342 964 450 976 q 163 920 231 951 q 35 800 80 883 q 1 629 -7 720 q 71 463 10 534 q 254 357 138 384 q 303 325 289 349 q 317 268 315 306 q 318 232 318 256 l 319 212 q 319 191 319 201 q 334 100 322 140 q 394 20 349 47 q 488 1 437 -6 q 581 52 543 9 q 637 178 625 100 q 669 332 655 294 q 714 372 685 371 q 920 436 840 380 q 1018 566 991 486 q 1022 718 1042 640 q 947 849 1002 796 z "},"х":{"ha":906,"x_min":-5,"x_max":871,"o":"m 487 879 q 452 810 471 859 l 445 791 l 438 772 q 424 734 430 748 q 401 700 414 712 q 366 680 387 684 q 415 738 399 694 l 421 757 l 427 776 q 439 814 434 800 q 456 851 448 834 q 479 886 467 872 q 512 911 494 902 q 551 920 532 920 q 487 879 513 913 m 112 874 q 90 852 98 864 q 67 791 74 829 q 79 859 57 827 q 107 883 91 875 q 142 888 124 891 q 112 874 125 883 m 568 547 q 549 586 538 561 q 593 642 555 602 l 601 650 l 609 659 q 625 677 618 669 q 656 716 644 698 q 694 810 690 764 q 669 913 701 870 q 592 966 641 954 q 496 956 543 979 q 415 870 444 931 q 391 810 401 842 q 382 786 387 800 l 379 775 l 376 766 q 363 738 370 746 q 342 726 355 728 q 314 757 329 724 q 308 772 311 763 l 304 781 l 301 791 q 285 830 292 815 q 235 905 262 878 q 150 940 199 939 q 66 910 103 941 q 20 829 29 879 q 35 716 8 775 q 138 588 64 649 q 164 528 174 558 q 115 452 159 510 q 0 159 -5 292 q 33 60 3 100 q 112 6 62 20 q 276 62 204 -20 q 354 218 331 124 l 355 223 l 357 229 l 359 240 q 368 264 363 254 q 390 302 378 292 q 477 210 425 327 q 562 89 511 133 q 661 41 608 48 q 753 58 711 33 q 819 130 796 81 q 798 359 871 241 q 568 547 726 474 z "},"ц":{"ha":966,"x_min":-10,"x_max":907,"o":"m 619 861 q 597 821 607 846 q 582 776 591 806 l 568 730 q 572 779 568 753 q 585 826 576 804 q 612 868 596 853 q 657 885 633 890 q 619 861 635 881 m 459 387 q 428 372 444 376 q 395 372 410 368 q 425 382 413 377 q 451 398 439 389 q 474 418 462 406 l 486 430 l 497 441 q 459 387 487 408 m 206 906 q 180 882 190 894 q 140 823 159 859 q 109 757 126 798 l 96 722 l 83 688 q 128 829 94 764 q 172 890 149 867 q 203 912 184 901 q 240 920 224 921 q 206 906 222 916 m 807 241 q 770 313 767 254 q 777 370 770 334 l 781 401 q 786 431 785 418 q 806 753 814 659 q 697 930 792 900 q 579 902 627 953 q 517 735 530 850 q 395 424 482 424 q 371 678 296 424 q 369 893 409 810 q 238 971 330 974 q 78 830 144 968 q 3 504 16 699 q 39 191 -10 309 q 159 48 78 101 q 325 0 228 4 q 420 2 361 -1 l 446 3 l 472 5 q 529 8 507 7 q 583 -5 562 10 q 614 -43 597 -16 l 621 -54 l 629 -65 q 647 -87 638 -78 q 707 -119 671 -110 q 821 -89 769 -135 q 887 26 867 -47 q 888 158 907 98 q 807 241 868 224 z "},"ч":{"ha":771,"x_min":-9,"x_max":713,"o":"m 445 734 q 437 644 450 680 q 414 603 429 620 q 377 578 398 585 q 428 646 416 600 q 432 733 437 682 q 431 823 428 785 q 438 868 433 849 q 458 908 446 896 q 444 867 448 892 q 441 823 441 847 q 445 734 441 780 m 120 874 q 94 825 106 854 q 74 772 85 808 l 66 745 l 58 718 q 64 774 59 751 q 81 831 71 805 q 113 880 95 861 q 136 899 125 895 q 164 906 151 907 q 120 874 142 903 m 699 525 q 647 844 694 730 q 487 971 593 972 q 387 726 365 969 q 377 645 392 673 q 334 621 363 620 q 290 646 302 621 q 278 722 276 669 q 254 907 283 852 q 164 958 228 958 q 64 893 106 958 q 7 724 22 829 q 11 526 -9 609 q 70 401 26 458 q 205 334 117 340 q 271 334 234 331 q 284 336 277 335 l 290 337 l 296 338 q 316 339 310 339 q 361 318 344 341 q 384 221 383 288 q 427 52 385 109 q 530 0 464 2 q 699 525 713 -5 z "},"ш":{"ha":1124,"x_min":-12,"x_max":1070,"o":"m 829 895 q 805 842 812 876 q 798 781 800 818 l 798 766 l 797 750 q 796 719 797 731 l 791 749 q 787 781 788 767 q 792 844 785 814 q 822 902 801 882 q 851 918 834 913 q 883 919 867 921 q 829 895 847 915 m 761 406 q 731 389 747 393 q 697 387 713 383 q 752 415 732 395 q 788 466 767 429 q 761 406 787 429 m 506 832 q 492 810 498 822 q 483 786 486 798 q 471 735 476 766 q 464 682 467 710 q 471 790 454 738 q 498 839 481 822 q 522 854 509 850 q 550 857 536 859 q 506 832 522 853 m 419 397 q 393 384 407 387 q 363 384 378 380 q 411 408 393 392 q 430 426 420 414 l 439 437 l 447 448 q 419 397 444 418 m 182 886 q 142 849 159 872 q 91 751 111 809 q 64 644 75 709 q 52 532 56 598 q 54 645 48 587 q 79 756 61 706 q 134 855 100 817 q 178 892 155 879 q 233 905 206 907 q 182 886 205 903 m 894 970 q 777 922 818 975 q 742 751 734 864 q 743 502 755 570 q 693 439 732 436 q 667 665 652 444 q 644 849 675 787 q 550 909 613 909 q 439 834 476 909 q 412 679 408 771 q 363 435 424 435 q 325 481 338 435 q 327 648 309 538 q 245 957 374 946 q 149 931 195 961 q 67 840 102 901 q 2 472 -12 703 q 87 166 14 278 q 234 41 141 84 q 545 0 332 -3 q 883 77 780 5 q 1020 290 977 144 q 1044 403 1035 342 q 1049 450 1046 425 q 1050 469 1050 458 l 1051 477 l 1052 486 q 1034 838 1070 719 q 894 970 995 964 z "},"щ":{"ha":1289,"x_min":-12,"x_max":1224,"o":"m 833 895 q 808 841 816 876 q 801 781 802 817 l 800 765 l 800 749 q 800 718 800 730 l 794 749 q 791 780 791 766 q 795 844 789 814 q 825 901 804 882 q 854 918 838 913 q 886 919 871 921 q 833 895 850 915 m 764 403 q 734 386 750 391 q 700 385 716 381 q 755 412 734 393 q 791 464 770 427 q 764 403 790 427 m 508 831 q 494 810 500 821 q 485 785 488 798 q 473 734 478 765 q 466 680 469 709 q 473 789 456 737 q 500 838 483 821 q 524 854 511 849 q 552 856 538 859 q 508 831 524 853 m 421 395 q 394 381 408 385 q 365 381 379 378 q 413 405 395 390 q 432 424 421 412 l 440 435 l 449 446 q 421 395 446 416 m 182 886 q 142 848 160 872 q 91 751 111 808 q 64 642 76 709 q 52 530 57 597 q 54 644 48 586 q 79 755 61 705 q 135 855 100 817 q 179 892 155 878 q 234 905 208 907 q 182 886 206 903 m 1104 297 q 1053 364 1061 304 q 1052 422 1050 387 q 1054 453 1053 435 l 1057 484 q 1038 838 1074 718 q 898 970 999 964 q 781 922 821 975 q 745 751 736 864 q 746 500 758 569 q 696 437 735 434 q 669 664 654 441 q 646 848 677 786 q 552 908 616 908 q 441 834 478 908 q 414 678 410 770 q 365 433 426 433 q 326 479 339 433 q 328 647 311 537 q 245 957 375 946 q 149 931 196 961 q 67 840 102 901 q 2 470 -12 702 q 87 163 14 275 q 235 38 141 81 q 531 1 315 1 q 859 25 726 0 q 922 20 898 32 q 958 -14 939 12 l 966 -24 l 974 -34 q 993 -54 983 -45 q 1055 -78 1017 -74 q 1164 -31 1119 -85 q 1214 92 1204 17 q 1197 225 1224 168 q 1104 297 1167 288 z "},"ъ":{"ha":789,"x_min":-9,"x_max":731,"o":"m 511 284 q 480 258 499 266 q 441 252 460 248 q 501 292 481 260 q 515 325 510 304 q 519 363 519 341 q 525 323 526 345 q 511 284 523 302 m 397 335 q 389 372 387 354 q 406 398 393 391 q 437 397 420 406 q 464 369 454 388 q 471 331 473 350 q 454 305 467 313 q 423 307 439 298 q 397 335 406 315 m 167 918 q 142 914 156 917 q 97 898 115 909 q 64 865 77 886 q 52 817 52 842 q 55 869 44 844 q 90 909 66 894 q 140 924 112 922 q 167 924 154 925 l 180 922 l 192 919 l 179 918 l 167 918 m 506 559 q 454 591 471 570 q 431 638 438 608 q 422 703 427 656 q 417 742 419 727 q 410 785 414 765 q 325 920 391 872 q 198 968 272 959 q 96 959 141 976 q 19 897 45 941 q 5 797 -9 850 q 85 730 20 738 q 117 677 121 725 q 111 640 117 661 q 106 625 109 633 l 105 622 l 104 618 q 103 614 103 616 q 75 402 73 509 q 111 203 76 290 q 222 56 149 108 q 418 0 302 -1 q 626 75 543 1 q 716 244 701 142 q 680 431 731 346 q 506 559 623 524 z "},"ы":{"ha":1086,"x_min":-10,"x_max":1024,"o":"m 453 295 q 420 267 441 276 q 379 262 400 258 q 442 302 421 269 q 457 336 452 315 q 460 376 460 354 q 467 335 469 357 q 453 295 465 313 m 334 347 q 327 386 323 367 q 344 413 330 406 q 376 411 359 420 q 404 382 393 402 q 410 343 414 362 q 393 317 408 324 q 361 318 378 309 q 334 347 344 327 m 271 909 q 242 890 258 903 q 195 842 218 871 q 155 787 178 822 q 136 758 147 776 l 119 729 q 146 792 132 767 q 185 850 163 825 q 237 899 210 881 q 302 920 271 922 q 271 909 286 917 m 447 581 q 403 618 412 591 q 402 680 395 639 q 406 699 404 688 l 409 718 q 417 760 414 744 q 420 851 425 811 q 378 941 413 908 q 292 970 342 975 q 183 915 237 966 q 71 751 121 858 q 5 511 20 640 q 20 265 -10 377 q 132 75 52 143 q 357 0 220 -1 q 571 78 486 1 q 665 253 649 148 q 627 447 681 358 q 447 581 568 543 m 730 893 q 713 867 719 883 q 707 836 709 853 q 713 768 706 810 l 720 735 l 726 701 q 703 766 711 737 q 694 836 693 806 q 702 871 696 857 q 724 901 710 891 q 791 918 751 922 q 730 893 753 914 m 968 855 q 893 939 939 909 q 804 970 852 966 q 722 955 760 973 q 666 903 684 937 q 668 715 633 839 q 683 664 673 696 l 691 637 l 699 612 q 722 509 718 550 q 732 307 734 411 q 728 228 731 273 l 728 210 l 727 193 q 726 162 726 174 q 733 71 724 98 q 783 29 745 38 q 916 108 857 12 q 997 342 969 193 q 1017 627 1024 486 q 968 855 1010 776 z "},"ь":{"ha":736,"x_min":-10,"x_max":681,"o":"m 453 295 q 420 267 441 276 q 379 262 400 258 q 442 302 421 269 q 457 336 452 315 q 460 376 460 354 q 467 335 469 357 q 453 295 465 313 m 334 347 q 327 386 323 367 q 344 413 330 406 q 376 411 359 420 q 404 382 393 402 q 410 343 414 362 q 393 317 408 324 q 361 318 378 309 q 334 347 344 327 m 271 909 q 242 890 258 903 q 195 842 218 871 q 155 787 178 822 q 136 758 147 776 l 119 729 q 146 792 132 767 q 185 850 163 825 q 237 899 210 881 q 302 920 271 922 q 271 909 286 918 m 447 581 q 403 618 412 591 q 402 680 395 639 q 406 699 404 688 l 409 718 q 417 760 414 745 q 420 851 425 811 q 378 941 413 908 q 292 970 342 975 q 183 915 237 966 q 71 751 121 858 q 5 511 20 640 q 20 265 -10 377 q 132 75 52 143 q 357 0 220 -1 q 572 78 486 1 q 665 253 649 148 q 627 447 681 358 q 447 581 568 543 z "},"э":{"ha":865,"x_min":-1,"x_max":815,"o":"m 429 284 q 381 256 409 267 q 271 244 333 238 q 243 249 260 245 l 230 252 l 217 254 q 163 260 191 260 q 111 254 133 262 q 73 220 83 245 q 109 260 79 247 q 163 271 131 270 q 219 267 186 272 l 233 264 l 246 261 q 273 258 262 258 q 378 266 330 251 q 425 289 405 274 q 463 328 448 304 q 429 284 453 304 m 408 576 q 329 547 380 555 q 287 543 311 545 l 277 543 l 267 543 q 247 542 255 543 q 210 529 224 538 q 186 498 191 519 q 206 534 186 519 q 245 551 222 547 q 266 555 254 553 l 277 555 l 286 556 l 307 557 q 327 560 318 559 q 366 569 351 564 q 401 585 386 575 q 444 650 435 605 q 408 576 444 602 m 307 913 q 258 904 289 911 q 165 871 203 892 q 88 810 119 846 q 63 768 73 792 q 54 720 52 745 q 57 770 49 743 q 81 817 65 795 q 159 882 109 855 q 256 914 203 906 q 307 919 289 919 q 357 918 324 920 l 345 917 l 332 916 q 307 913 317 914 m 795 567 q 667 855 777 747 q 412 969 564 958 q 175 941 276 979 q 41 843 89 907 q 0 728 -1 787 q 43 645 1 671 q 264 682 121 597 q 358 703 318 713 q 393 665 392 694 q 368 619 393 633 q 266 602 340 604 q 154 553 191 599 q 137 461 121 512 q 195 396 151 414 q 298 402 241 376 q 382 411 345 423 q 419 374 416 400 q 411 345 421 360 q 380 318 400 330 q 245 309 328 291 q 61 290 122 336 q 16 173 8 250 q 75 71 23 113 q 199 16 122 34 q 493 25 352 -20 q 739 226 660 79 q 795 567 815 368 z "},"ю":{"ha":1301,"x_min":-16,"x_max":1259,"o":"m 901 304 q 869 277 887 286 q 830 267 850 267 q 890 312 868 281 q 918 382 910 339 q 901 304 927 340 m 759 374 q 767 420 755 399 q 802 444 780 441 q 842 432 823 448 q 864 391 860 416 q 855 344 868 365 q 821 320 843 323 q 781 332 800 316 q 759 374 763 348 m 724 893 q 631 834 672 872 q 562 747 593 800 l 555 735 l 549 723 l 536 698 l 525 672 l 515 646 q 553 752 526 701 q 622 844 581 805 q 720 903 667 885 q 777 916 746 912 l 791 918 l 805 918 l 833 918 q 724 893 771 913 m 83 890 q 66 863 72 880 q 60 830 62 849 q 66 762 59 805 l 73 728 l 79 693 q 56 760 63 730 q 47 831 45 800 q 55 867 49 852 q 77 898 63 888 q 146 916 105 920 q 83 890 107 911 m 951 956 q 620 902 755 1004 q 457 634 499 812 q 443 611 454 620 q 416 603 431 602 l 416 603 q 389 614 400 604 q 376 642 377 625 q 327 850 366 777 q 250 937 297 905 q 159 968 208 964 q 75 953 113 972 q 18 899 36 934 q 20 707 -16 834 q 35 654 25 688 l 44 628 l 52 602 q 75 496 71 538 q 85 290 87 396 q 82 208 84 255 l 81 191 l 80 173 q 79 142 79 154 q 87 48 77 76 q 138 5 99 14 q 248 50 197 -8 q 327 205 294 102 q 365 254 337 237 q 425 269 392 273 q 488 241 478 264 q 585 96 524 155 q 736 11 650 34 q 1027 91 890 -31 q 1205 391 1152 202 q 1202 736 1259 583 q 951 956 1137 909 z "},"я":{"ha":812,"x_min":0,"x_max":746,"o":"m 453 528 q 420 503 439 511 q 379 498 399 494 q 443 537 418 507 q 473 606 465 564 q 453 528 483 564 m 332 602 q 343 640 331 623 q 374 656 356 655 q 406 642 392 656 q 420 605 419 627 q 408 568 420 583 q 378 551 395 551 q 346 565 359 550 q 332 602 332 580 m 277 891 q 208 843 235 871 q 161 772 179 814 q 148 731 153 753 q 141 688 144 715 q 152 776 137 732 q 198 852 165 819 q 273 901 230 884 q 360 917 315 916 l 338 912 q 317 906 326 909 q 277 891 300 901 m 102 281 q 54 179 64 227 q 63 237 52 208 q 90 289 71 260 q 128 334 108 315 q 173 372 146 353 l 154 349 l 136 328 q 102 281 115 302 m 354 970 q 186 905 254 959 q 102 777 125 854 q 95 623 79 703 q 165 475 112 541 q 170 447 177 461 q 142 415 165 437 l 137 410 l 132 406 q 120 395 125 399 q 94 368 106 381 q 37 292 62 333 q 0 169 0 229 q 28 73 0 115 q 96 14 54 34 q 176 2 136 -5 q 314 109 269 20 q 330 146 321 125 l 337 164 l 344 181 q 374 239 360 222 q 410 250 398 266 q 431 123 427 227 q 467 33 433 66 q 545 4 498 3 q 635 41 593 5 q 705 154 682 82 q 745 418 744 273 q 706 693 746 568 q 578 903 662 831 q 354 970 485 984 z "}}}
